<?xml version="1.0" encoding="utf-8"?>
<!-- Generator: Adobe Illustrator 24.1.2, SVG Export Plug-In . SVG Version: 6.00 Build 0)  -->
<svg width="20" height="25" version="1.1" id="Layer_1" xmlns="http://www.w3.org/2000/svg" xmlns:xlink="http://www.w3.org/1999/xlink" x="0px" y="0px"
	 viewBox="0 0 40 40" style="enable-background:new 0 0 40 40;" xml:space="preserve">
<style type="text/css">
	.st0{fill:#FFFFFF;}
</style>
<path class="st0" d="M36.6,9.1l0.1-0.3l1.4-0.5V6.7l-1.4-0.5l-0.1-0.3c0-0.1-0.1-0.2-0.1-0.2l-0.1-0.3L37,4.1L35.9,3l-1.4,0.7
	l-0.3-0.1c-0.1,0-0.2-0.1-0.2-0.1l-0.3-0.1l-0.5-1.4h-1.6l-0.5,1.4l-0.3,0.1c-0.1,0-0.2,0.1-0.2,0.1l-0.3,0.1L29.1,3L28,4.1l0.7,1.4
	l-0.1,0.3c0,0.1-0.1,0.2-0.1,0.2l-0.1,0.3l-1.4,0.5v1.6l1.4,0.5l0.1,0.3c0,0.1,0.1,0.2,0.1,0.2l0.1,0.3L28,10.9l1.1,1.1l1.4-0.7
	l0.3,0.1c0.1,0,0.2,0.1,0.2,0.1l0.3,0.1l0.5,1.4h1.6l0.5-1.4l0.3-0.1c0.1,0,0.2-0.1,0.2-0.1l0.3-0.1l1.4,0.7l1.1-1.1l-0.7-1.4
	l0.1-0.3C36.5,9.2,36.6,9.1,36.6,9.1z M32.5,10C31.1,10,30,8.9,30,7.5S31.1,5,32.5,5S35,6.1,35,7.5S33.9,10,32.5,10z"/>
<path class="st0" d="M11.6,30.9c0-0.1-0.1-0.2-0.1-0.2l-0.1-0.3l0.7-1.4L10.9,28l-1.4,0.7l-0.3-0.1c-0.1,0-0.2-0.1-0.2-0.1l-0.3-0.1
	l-0.5-1.4H6.7l-0.5,1.4l-0.3,0.1c-0.1,0-0.2,0.1-0.2,0.1l-0.3,0.1L4.1,28L3,29.1l0.7,1.4l-0.1,0.3c0,0.1-0.1,0.2-0.1,0.2l-0.1,0.3
	l-1.4,0.5v1.6l1.4,0.5l0.1,0.3c0,0.1,0.1,0.2,0.1,0.2l0.1,0.3L3,35.9L4.1,37l1.4-0.7l0.3,0.1c0.1,0,0.2,0.1,0.2,0.1l0.3,0.1l0.5,1.4
	h1.6l0.5-1.4l0.3-0.1c0.1,0,0.2-0.1,0.2-0.1l0.3-0.1l1.4,0.7l1.1-1.1l-0.7-1.4l0.1-0.3c0-0.1,0.1-0.2,0.1-0.2l0.1-0.3l1.4-0.5v-1.6
	l-1.4-0.5L11.6,30.9z M7.5,35C6.1,35,5,33.9,5,32.5S6.1,30,7.5,30s2.5,1.1,2.5,2.5S8.9,35,7.5,35z"/>
<path class="st0" d="M33.5,18c-0.2-0.3-0.6-0.5-1-0.5s-0.8,0.2-1,0.5l-3.2,4.9c-0.1,0.2-0.2,0.3-0.2,0.5c0,0.5,0.4,1,1,1h1.5V30
	c0,0.3-0.3,0.6-0.6,0.6H16.9v3.8h1.3h1.3h11.9c1.7,0,3.1-1.4,3.1-3.1v-6.9h1.5c0.5,0,1-0.4,1-1c0-0.2-0.1-0.4-0.2-0.5L33.5,18z"/>
<path class="st0" d="M6.5,22c0.2,0.3,0.6,0.5,1,0.5s0.8-0.2,1-0.5l3.2-4.9c0.1-0.2,0.2-0.3,0.2-0.5c0-0.5-0.4-1-1-1H9.4V10
	c0-0.3,0.3-0.6,0.6-0.6h13.1V5.6h-1.3h-1.3H8.8C7,5.6,5.6,7,5.6,8.8v6.9H4.1c-0.5,0-1,0.4-1,1c0,0.2,0.1,0.4,0.2,0.5L6.5,22z"/>
</svg>
