<?xml version="1.0" encoding="utf-8"?>
<!-- Generator: Adobe Illustrator 24.1.2, SVG Export Plug-In . SVG Version: 6.00 Build 0)  -->
<svg width="20" height="25" version="1.1" id="Layer_1" xmlns="http://www.w3.org/2000/svg" xmlns:xlink="http://www.w3.org/1999/xlink" x="0px" y="0px"
	 viewBox="0 0 40 36" style="enable-background:new 0 0 40 36;" xml:space="preserve">
<path fill="#3DD598" d="M15.9,34.3c0.4,0.8,1,1,2,1.1c0.8,0,3.3,0,4.1,0c0.7,0,1-0.1,1.4-0.3c0.4-0.2,0.6-0.6,0.8-1
	c0.1-0.3,0.1-0.9,0.2-2.9c0.1-3.5,0.1-4.1,0.4-5.6c0.5-2.7,1.2-4.9,2.3-7.1c1-2.1,2.2-3.7,4-5.6c0.6-0.6,1.6-1.6,1.6-1.6
	c0,0,0.5,0.9,0.9,1.8c0.5,1.1,0.8,1.7,1,1.9c0.4,0.4,1.1,0.5,1.6,0.1c0.2-0.2,0.3-0.4,0.4-0.7c0.5-1.6,3-10.2,3.4-11.7l0.1-0.5L40,2
	l0-0.3V1.3l0-0.1L39.9,1c-0.3-0.5-0.8-0.9-1.3-0.9c-0.4,0-0.5,0-2.3,0.5c-3.8,1-10.4,2.9-10.8,3.1c-0.5,0.3-0.8,0.6-0.8,1.1
	c0,0.3,0.1,0.6,0.3,0.8c0.2,0.2,1.3,0.7,3.4,1.6l0.1,0.1l-0.3,0.3c-2.7,2.9-3.9,4.3-5.3,6.7c-1,1.7-2.2,4.4-2.7,6.1
	c0,0.2-0.1,0.3-0.1,0.3c0,0-0.2-0.5-0.4-1.1c-0.9-2.5-2-4.7-3.4-6.9C15,11,14.3,10.1,12.3,8c-0.4-0.4-0.7-0.8-0.7-0.8
	c0,0,0.5-0.2,1.1-0.5c1.5-0.6,2.2-1,2.4-1.2c0.4-0.4,0.4-1.1,0-1.5c-0.1-0.1-0.2-0.2-0.5-0.3c-0.3-0.1-3.8-1.2-8.9-2.6
	c-4.2-1.2-4-1.1-4.5-1C0.8,0.2,0.3,0.6,0.1,1C-0.1,1.5,0,2.1,1,5.8c1.6,5.5,2.4,8.4,2.6,8.7c0.3,0.5,0.6,0.7,1.2,0.7
	c0.3,0,0.6-0.1,0.8-0.3c0.1-0.2,0.5-1,1-2c0.2-0.4,0.4-1,0.6-1.2l0.2-0.5l0.1,0.1c0.2,0.1,1.2,1.2,1.8,1.9c3.3,3.7,5.3,7.9,6,13
	c0.2,1.2,0.2,2.2,0.3,5.7l0,2.1L15.9,34.3z"/>
</svg>
