<svg width="160" height="160" viewBox="0 0 160 160" fill="none" xmlns="http://www.w3.org/2000/svg">
<path d="M150 80C150 70.8075 148.189 61.705 144.672 53.2122C141.154 44.7194 135.998 37.0026 129.497 30.5025C122.997 24.0024 115.281 18.8463 106.788 15.3284C98.2951 11.8106 89.1925 10 80 10C70.8075 10 61.705 11.8106 53.2122 15.3284C44.7194 18.8463 37.0026 24.0024 30.5025 30.5025C24.0024 37.0026 18.8463 44.7194 15.3284 53.2122C11.8106 61.7049 10 70.8075 10 80C10 89.1925 11.8106 98.295 15.3284 106.788C18.8463 115.281 24.0024 122.997 30.5025 129.497C37.0026 135.998 44.7194 141.154 53.2122 144.672C61.7049 148.189 70.8075 150 80 150C89.1925 150 98.295 148.189 106.788 144.672C115.281 141.154 122.997 135.998 129.497 129.497C135.998 122.997 141.154 115.281 144.672 106.788C148.189 98.295 150 89.1925 150 80L150 80Z" stroke="url(#paint0_linear)" stroke-width="10" stroke-dasharray="0.88 3"/>
<circle cx="80" cy="80" r="45" fill="#373747"/>
<path d="M72.4761 82.3784H68.2573V85.2349H73.2085V87H66.0601V76.3359H73.1938V78.1157H68.2573V80.6572H72.4761V82.3784ZM83.1694 87H80.9722L76.6948 79.9834V87H74.4976V76.3359H76.6948L80.9795 83.3672V76.3359H83.1694V87ZM85.0884 87V76.3359H88.3696C89.3071 76.3359 90.1445 76.5483 90.8818 76.9731C91.624 77.3931 92.2026 77.9937 92.6177 78.7749C93.0327 79.5513 93.2402 80.4351 93.2402 81.4263V81.917C93.2402 82.9082 93.0352 83.7896 92.625 84.561C92.2197 85.3325 91.646 85.9307 90.9038 86.3555C90.1616 86.7803 89.3242 86.9951 88.3916 87H85.0884ZM87.2856 78.1157V85.2349H88.3477C89.207 85.2349 89.8638 84.9541 90.3179 84.3926C90.772 83.8311 91.0039 83.0278 91.0137 81.9829V81.4189C91.0137 80.335 90.7891 79.5146 90.3398 78.958C89.8906 78.3965 89.2339 78.1157 88.3696 78.1157H87.2856Z" fill="white"/>
<defs>
<linearGradient id="paint0_linear" x1="80" y1="15" x2="92.942" y2="158.938" gradientUnits="userSpaceOnUse">
<stop stop-color="#FC5A5A"/>
<stop offset="1" stop-color="#FF3D00"/>
</linearGradient>
</defs>
</svg>
