<?xml version="1.0" encoding="utf-8"?>
<!-- Generator: Adobe Illustrator 24.1.2, SVG Export Plug-In . SVG Version: 6.00 Build 0)  -->
<svg width="20" height="25" version="1.1" id="Layer_1" xmlns="http://www.w3.org/2000/svg" xmlns:xlink="http://www.w3.org/1999/xlink" x="0px" y="0px"
	 viewBox="0 0 40 40" style="enable-background:new 0 0 40 40;" xml:space="preserve">
<style type="text/css">
	.st0{fill:#3DD598;}
</style>
<path class="st0" d="M37.9,0H2.2C1.6,0,1,0.4,0.7,0.9C0.4,1.5,0.5,2.2,0.8,2.7l13.1,18.4c0,0,0,0,0,0c0.5,0.6,0.7,1.4,0.7,2.2v15
	c0,0.4,0.2,0.9,0.5,1.2c0.3,0.3,0.7,0.5,1.2,0.5c0.2,0,0.4,0,0.7-0.1l7.3-2.8c0.7-0.2,1.1-0.8,1.1-1.6V23.3c0-0.8,0.3-1.6,0.7-2.2
	c0,0,0,0,0,0L39.2,2.7c0.4-0.5,0.4-1.2,0.1-1.8C39.1,0.4,38.5,0,37.9,0z"/>
</svg>
