<svg width="30" height="30" viewBox="0 0 37 43" fill="#3DD598" xmlns="http://www.w3.org/2000/svg">
<style type="text/css">
	.st0{fill:#3DD598;}
</style>
<path class="st0" d="M19.3793 1.07402C18.1533 0.370096 17.1276 0.969927 16.768 1.35783C12.9307 3.66144 4.7618 8.55802 2.78437 9.71554C0.806946 10.8731 0.12071 12.7262 0.0247699 13.5081C0.0200797 15.6051 0.0135136 19.9539 0.0247699 20.573C0.0360261 21.1921 0.657856 21.8628 0.967365 22.1208C6.05859 25.2171 16.3999 31.495 17.0355 31.8358C17.6711 32.1766 18.0676 31.6938 18.1865 31.4098V22.2616L8.02779 16.0608C13.3632 12.8629 24.2441 6.33637 25.0842 5.8141C25.9244 5.29184 25.4343 4.70713 25.0842 4.48005C23.6934 3.63801 20.6053 1.77794 19.3793 1.07402Z" fill="white"/>
<path class="st0"  d="M17.4518 42.2343C18.6777 42.9383 19.7035 42.3384 20.0631 41.9505C23.9004 39.6469 32.0693 34.7503 34.0467 33.5928C36.0241 32.4353 36.7103 30.5822 36.8063 29.8003C36.811 27.7032 36.8175 23.3544 36.8063 22.7353C36.795 22.1162 36.1732 21.4455 35.8637 21.1876C30.7725 18.0912 20.4311 11.8133 19.7955 11.4725C19.16 11.1317 18.7634 11.6145 18.6446 11.8985V21.0467L28.8033 27.2475C23.4679 30.4455 12.587 36.972 11.7468 37.4942C10.9067 38.0165 11.3968 38.6012 11.7468 38.8283C13.1377 39.6703 16.2258 41.5304 17.4518 42.2343Z" fill="white"/>
</svg>
