<svg width="168" height="168" viewBox="0 0 168 168" fill="none" xmlns="http://www.w3.org/2000/svg">
<g filter="url(#filter0_d)">
<path d="M154 80C154 70.8075 152.189 61.705 148.672 53.2122C145.154 44.7194 139.998 37.0026 133.497 30.5025C126.997 24.0024 119.281 18.8463 110.788 15.3284C102.295 11.8106 93.1925 10 84 10C74.8075 10 65.705 11.8106 57.2122 15.3284C48.7194 18.8463 41.0026 24.0024 34.5025 30.5025C28.0024 37.0026 22.8463 44.7194 19.3284 53.2122C15.8106 61.7049 14 70.8075 14 80C14 89.1925 15.8106 98.295 19.3284 106.788C22.8463 115.281 28.0024 122.997 34.5025 129.497C41.0026 135.998 48.7194 141.154 57.2122 144.672C65.7049 148.189 74.8075 150 84 150C93.1925 150 102.295 148.189 110.788 144.672C119.281 141.154 126.997 135.998 133.497 129.497C139.998 122.997 145.154 115.281 148.672 106.788C152.189 98.295 154 89.1925 154 80L154 80Z" stroke="url(#paint0_linear)" stroke-width="10" stroke-dasharray="0.88 3"/>
<circle cx="84" cy="80" r="45" fill="#373747"/>
<path d="M66.8667 84.2021C66.8667 83.7871 66.7202 83.4697 66.4272 83.25C66.1343 83.0254 65.6069 82.791 64.8452 82.5469C64.0835 82.2979 63.4805 82.0537 63.0361 81.8145C61.8252 81.1602 61.2197 80.2788 61.2197 79.1704C61.2197 78.5942 61.3809 78.0815 61.7031 77.6323C62.0303 77.1782 62.4966 76.8242 63.1021 76.5703C63.7124 76.3164 64.396 76.1895 65.1528 76.1895C65.9146 76.1895 66.5933 76.3286 67.189 76.6069C67.7847 76.8804 68.2461 77.2686 68.5732 77.7715C68.9053 78.2744 69.0713 78.8457 69.0713 79.4854H66.874C66.874 78.9971 66.7202 78.6187 66.4126 78.3501C66.105 78.0767 65.6729 77.9399 65.1162 77.9399C64.5791 77.9399 64.1616 78.0547 63.8638 78.2842C63.5659 78.5088 63.417 78.8066 63.417 79.1777C63.417 79.5244 63.5903 79.8149 63.937 80.0493C64.2886 80.2837 64.8037 80.5034 65.4824 80.7085C66.7324 81.0845 67.6431 81.5508 68.2144 82.1074C68.7856 82.6641 69.0713 83.3574 69.0713 84.1875C69.0713 85.1104 68.7222 85.8354 68.0239 86.3628C67.3257 86.8853 66.3857 87.1465 65.2041 87.1465C64.3838 87.1465 63.6367 86.9976 62.9629 86.6997C62.2891 86.397 61.7739 85.9844 61.4175 85.4619C61.0659 84.9395 60.8901 84.334 60.8901 83.6455H63.0947C63.0947 84.8223 63.7979 85.4106 65.2041 85.4106C65.7266 85.4106 66.1343 85.3057 66.4272 85.0957C66.7202 84.8809 66.8667 84.583 66.8667 84.2021ZM78.5928 78.1157H75.3262V87H73.1289V78.1157H69.9062V76.3359H78.5928V78.1157ZM84.9941 84.8027H81.1416L80.4092 87H78.0728L82.0425 76.3359H84.0786L88.0703 87H85.7339L84.9941 84.8027ZM81.7349 83.0229H84.4009L83.0605 79.0312L81.7349 83.0229ZM93.0142 83.0962H91.2637V87H89.0664V76.3359H93.0288C94.2886 76.3359 95.2603 76.6167 95.9438 77.1782C96.6274 77.7397 96.9692 78.5332 96.9692 79.5586C96.9692 80.2861 96.8105 80.894 96.4932 81.3823C96.1807 81.8657 95.7046 82.2515 95.0649 82.5396L97.3721 86.8975V87H95.0137L93.0142 83.0962ZM91.2637 81.3164H93.0361C93.5879 81.3164 94.0151 81.1772 94.3179 80.8989C94.6206 80.6157 94.772 80.2275 94.772 79.7344C94.772 79.2314 94.6279 78.8359 94.3398 78.5479C94.0566 78.2598 93.6196 78.1157 93.0288 78.1157H91.2637V81.3164ZM106.308 78.1157H103.041V87H100.844V78.1157H97.6211V76.3359H106.308V78.1157Z" fill="white"/>
</g>
<defs>
<filter id="filter0_d" x="0" y="0" width="168" height="168" filterUnits="userSpaceOnUse" color-interpolation-filters="sRGB">
<feFlood flood-opacity="0" result="BackgroundImageFix"/>
<feColorMatrix in="SourceAlpha" type="matrix" values="0 0 0 0 0 0 0 0 0 0 0 0 0 0 0 0 0 0 127 0"/>
<feOffset dy="4"/>
<feGaussianBlur stdDeviation="2"/>
<feColorMatrix type="matrix" values="0 0 0 0 0 0 0 0 0 0 0 0 0 0 0 0 0 0 0.25 0"/>
<feBlend mode="normal" in2="BackgroundImageFix" result="effect1_dropShadow"/>
<feBlend mode="normal" in="SourceGraphic" in2="effect1_dropShadow" result="shape"/>
</filter>
<linearGradient id="paint0_linear" x1="84" y1="15" x2="96.942" y2="158.938" gradientUnits="userSpaceOnUse">
<stop stop-color="#3DD598"/>
<stop offset="1" stop-color="#33C758"/>
</linearGradient>
</defs>
</svg>
