<svg width="776" height="386" viewBox="0 0 776 386" fill="none" xmlns="http://www.w3.org/2000/svg">
<g filter="url(#filter0_d)">
<path fill-rule="evenodd" clip-rule="evenodd" d="M3 13C3 7.47716 7.47715 3 13 3H763C768.523 3 773 7.47715 773 13V373C773 378.523 768.523 383 763 383H13C7.47716 383 3 378.523 3 373V13Z" fill="#1C1C24"/>
</g>
<path d="M588.5 91.5H589.5V161.5H588.5V91.5Z" fill="#373747" stroke="#3E495B"/>
<g filter="url(#filter1_d)">
<path fill-rule="evenodd" clip-rule="evenodd" d="M517 70C517 67.7909 518.791 66 521 66H657C659.209 66 661 67.7909 661 70V87C661 89.2091 659.209 91 657 91H630.386H599.771H591.483H577.376H521C518.791 91 517 89.2091 517 87V70Z" fill="#2C2C38"/>
<path d="M517.5 70C517.5 68.067 519.067 66.5 521 66.5H657C658.933 66.5 660.5 68.067 660.5 70V87C660.5 88.933 658.933 90.5 657 90.5H630.386H599.771H591.483H577.376H521C519.067 90.5 517.5 88.933 517.5 87V70Z" stroke="#373747"/>
</g>
<path d="M539.824 83H533.768V82.1558L536.967 78.6011C537.441 78.0636 537.767 77.6278 537.945 77.2935C538.127 76.9549 538.218 76.6058 538.218 76.2461C538.218 75.7637 538.072 75.368 537.78 75.0591C537.488 74.7502 537.098 74.5957 536.612 74.5957C536.028 74.5957 535.573 74.7629 535.247 75.0972C534.925 75.4272 534.765 75.8885 534.765 76.481H533.59C533.59 75.6304 533.863 74.9427 534.409 74.418C534.959 73.8932 535.694 73.6309 536.612 73.6309C537.471 73.6309 538.15 73.8573 538.649 74.3101C539.149 74.7586 539.398 75.3574 539.398 76.1064C539.398 77.0163 538.819 78.0996 537.659 79.3564L535.184 82.0415H539.824V83ZM547.124 83H541.068V82.1558L544.267 78.6011C544.741 78.0636 545.067 77.6278 545.245 77.2935C545.427 76.9549 545.518 76.6058 545.518 76.2461C545.518 75.7637 545.372 75.368 545.08 75.0591C544.788 74.7502 544.398 74.5957 543.912 74.5957C543.328 74.5957 542.873 74.7629 542.547 75.0972C542.225 75.4272 542.064 75.8885 542.064 76.481H540.89C540.89 75.6304 541.163 74.9427 541.709 74.418C542.259 73.8932 542.993 73.6309 543.912 73.6309C544.771 73.6309 545.45 73.8573 545.949 74.3101C546.449 74.7586 546.698 75.3574 546.698 76.1064C546.698 77.0163 546.118 78.0996 544.959 79.3564L542.483 82.0415H547.124V83ZM554.62 78.8804C553.575 78.5799 552.813 78.2118 552.335 77.7759C551.861 77.3358 551.624 76.7941 551.624 76.1509C551.624 75.423 551.914 74.8221 552.494 74.3481C553.078 73.87 553.835 73.6309 554.766 73.6309C555.401 73.6309 555.966 73.7536 556.461 73.999C556.96 74.2445 557.345 74.583 557.616 75.0146C557.891 75.4463 558.029 75.9181 558.029 76.4302H556.804C556.804 75.8716 556.626 75.4336 556.271 75.1162C555.915 74.7946 555.414 74.6338 554.766 74.6338C554.165 74.6338 553.695 74.7671 553.357 75.0337C553.023 75.2961 552.855 75.6621 552.855 76.1318C552.855 76.5085 553.014 76.828 553.332 77.0903C553.653 77.3485 554.197 77.5854 554.963 77.8013C555.733 78.0171 556.334 78.2562 556.766 78.5186C557.201 78.7767 557.523 79.0793 557.73 79.4263C557.942 79.7733 558.048 80.1816 558.048 80.6514C558.048 81.4004 557.756 82.0013 557.172 82.4541C556.588 82.9027 555.807 83.127 554.83 83.127C554.195 83.127 553.602 83.0063 553.052 82.7651C552.502 82.5197 552.077 82.1854 551.776 81.7622C551.48 81.339 551.332 80.8587 551.332 80.3213H552.557C552.557 80.8799 552.762 81.3221 553.173 81.6479C553.588 81.9696 554.14 82.1304 554.83 82.1304C555.473 82.1304 555.966 81.9992 556.309 81.7368C556.651 81.4744 556.823 81.1169 556.823 80.6641C556.823 80.2113 556.664 79.8621 556.347 79.6167C556.029 79.367 555.454 79.1216 554.62 78.8804ZM562.282 83.127C561.351 83.127 560.593 82.8223 560.009 82.2129C559.425 81.5993 559.133 80.7804 559.133 79.7563V79.5405C559.133 78.8592 559.262 78.252 559.521 77.7188C559.783 77.1813 560.147 76.7624 560.612 76.4619C561.082 76.1572 561.59 76.0049 562.136 76.0049C563.029 76.0049 563.723 76.299 564.218 76.8872C564.713 77.4754 564.96 78.3175 564.96 79.4136V79.9023H560.308C560.325 80.5794 560.521 81.1274 560.898 81.5464C561.279 81.9611 561.761 82.1685 562.345 82.1685C562.76 82.1685 563.111 82.0838 563.399 81.9146C563.687 81.7453 563.938 81.521 564.154 81.2417L564.872 81.8003C564.296 82.6847 563.433 83.127 562.282 83.127ZM562.136 76.9697C561.662 76.9697 561.264 77.1432 560.942 77.4902C560.621 77.833 560.422 78.3154 560.346 78.9375H563.786V78.8486C563.752 78.252 563.591 77.7907 563.304 77.4648C563.016 77.1348 562.627 76.9697 562.136 76.9697ZM572.127 79.6421C572.127 80.6873 571.888 81.5295 571.41 82.1685C570.931 82.8075 570.284 83.127 569.467 83.127C568.634 83.127 567.978 82.8625 567.5 82.3335V85.6406H566.325V76.1318H567.398L567.455 76.8936C567.933 76.3011 568.598 76.0049 569.448 76.0049C570.273 76.0049 570.925 76.3159 571.403 76.938C571.886 77.5601 572.127 78.4255 572.127 79.5342V79.6421ZM570.953 79.5088C570.953 78.7344 570.788 78.1229 570.458 77.6743C570.127 77.2257 569.675 77.0015 569.099 77.0015C568.388 77.0015 567.855 77.3167 567.5 77.9473V81.229C567.851 81.8553 568.388 82.1685 569.112 82.1685C569.675 82.1685 570.121 81.9463 570.451 81.502C570.785 81.0534 570.953 80.389 570.953 79.5088ZM582.785 83H576.729V82.1558L579.928 78.6011C580.402 78.0636 580.728 77.6278 580.906 77.2935C581.088 76.9549 581.179 76.6058 581.179 76.2461C581.179 75.7637 581.033 75.368 580.741 75.0591C580.449 74.7502 580.059 74.5957 579.573 74.5957C578.989 74.5957 578.534 74.7629 578.208 75.0972C577.886 75.4272 577.726 75.8885 577.726 76.481H576.551C576.551 75.6304 576.824 74.9427 577.37 74.418C577.92 73.8932 578.654 73.6309 579.573 73.6309C580.432 73.6309 581.111 73.8573 581.61 74.3101C582.11 74.7586 582.359 75.3574 582.359 76.1064C582.359 77.0163 581.78 78.0996 580.62 79.3564L578.145 82.0415H582.785V83ZM589.824 79.0581C589.824 80.4334 589.589 81.4554 589.12 82.124C588.65 82.7926 587.916 83.127 586.917 83.127C585.931 83.127 585.201 82.8011 584.727 82.1494C584.253 81.4935 584.008 80.516 583.991 79.2168V77.6489C583.991 76.2905 584.226 75.2812 584.695 74.6211C585.165 73.9609 585.901 73.6309 586.904 73.6309C587.899 73.6309 588.631 73.9504 589.101 74.5894C589.57 75.2241 589.812 76.2059 589.824 77.5347V79.0581ZM588.65 77.4521C588.65 76.4577 588.51 75.734 588.231 75.2812C587.952 74.8242 587.509 74.5957 586.904 74.5957C586.303 74.5957 585.865 74.8221 585.59 75.2749C585.315 75.7277 585.174 76.4238 585.165 77.3633V79.2422C585.165 80.2409 585.309 80.9793 585.597 81.4575C585.889 81.9315 586.329 82.1685 586.917 82.1685C587.497 82.1685 587.926 81.9442 588.206 81.4956C588.489 81.047 588.637 80.3403 588.65 79.3755V77.4521ZM597.384 83H591.329V82.1558L594.528 78.6011C595.002 78.0636 595.328 77.6278 595.505 77.2935C595.687 76.9549 595.778 76.6058 595.778 76.2461C595.778 75.7637 595.632 75.368 595.34 75.0591C595.048 74.7502 594.659 74.5957 594.172 74.5957C593.588 74.5957 593.133 74.7629 592.808 75.0972C592.486 75.4272 592.325 75.8885 592.325 76.481H591.151C591.151 75.6304 591.424 74.9427 591.97 74.418C592.52 73.8932 593.254 73.6309 594.172 73.6309C595.031 73.6309 595.711 73.8573 596.21 74.3101C596.709 74.7586 596.959 75.3574 596.959 76.1064C596.959 77.0163 596.379 78.0996 595.22 79.3564L592.744 82.0415H597.384V83ZM604.424 79.0581C604.424 80.4334 604.189 81.4554 603.719 82.124C603.25 82.7926 602.515 83.127 601.517 83.127C600.531 83.127 599.801 82.8011 599.327 82.1494C598.853 81.4935 598.607 80.516 598.59 79.2168V77.6489C598.59 76.2905 598.825 75.2812 599.295 74.6211C599.765 73.9609 600.501 73.6309 601.504 73.6309C602.498 73.6309 603.23 73.9504 603.7 74.5894C604.17 75.2241 604.411 76.2059 604.424 77.5347V79.0581ZM603.25 77.4521C603.25 76.4577 603.11 75.734 602.831 75.2812C602.551 74.8242 602.109 74.5957 601.504 74.5957C600.903 74.5957 600.465 74.8221 600.19 75.2749C599.915 75.7277 599.773 76.4238 599.765 77.3633V79.2422C599.765 80.2409 599.909 80.9793 600.196 81.4575C600.488 81.9315 600.928 82.1685 601.517 82.1685C602.096 82.1685 602.526 81.9442 602.805 81.4956C603.089 81.047 603.237 80.3403 603.25 79.3755V77.4521ZM611.717 79.5532H608.62V78.5947H611.717V79.5532ZM616.51 78.3662L616.979 73.7578H621.715V74.8433H617.976L617.697 77.3633C618.15 77.0967 618.664 76.9634 619.239 76.9634C620.081 76.9634 620.75 77.2427 621.245 77.8013C621.74 78.3556 621.988 79.1068 621.988 80.0547C621.988 81.0068 621.73 81.758 621.213 82.3081C620.701 82.854 619.984 83.127 619.062 83.127C618.245 83.127 617.578 82.9006 617.062 82.4478C616.546 81.995 616.252 81.3687 616.18 80.5688H617.291C617.362 81.0978 617.551 81.4977 617.855 81.7686C618.16 82.0352 618.562 82.1685 619.062 82.1685C619.607 82.1685 620.035 81.9823 620.344 81.6099C620.657 81.2375 620.813 80.7233 620.813 80.0674C620.813 79.4495 620.644 78.9544 620.306 78.582C619.971 78.2054 619.525 78.0171 618.966 78.0171C618.454 78.0171 618.052 78.1292 617.76 78.3535L617.449 78.6074L616.51 78.3662ZM627.878 73.7515V74.748H627.663C626.749 74.765 626.021 75.0358 625.479 75.5605C624.937 76.0853 624.624 76.8237 624.54 77.7759C625.026 77.2173 625.691 76.938 626.533 76.938C627.337 76.938 627.978 77.2215 628.456 77.7886C628.938 78.3556 629.18 79.0877 629.18 79.9849C629.18 80.937 628.919 81.6987 628.399 82.27C627.883 82.8413 627.189 83.127 626.317 83.127C625.432 83.127 624.715 82.7884 624.165 82.1113C623.615 81.43 623.34 80.554 623.34 79.4834V79.0327C623.34 77.3315 623.702 76.0324 624.425 75.1353C625.153 74.2339 626.234 73.7726 627.669 73.7515H627.878ZM626.336 77.9155C625.934 77.9155 625.564 78.0361 625.225 78.2773C624.887 78.5186 624.652 78.8211 624.521 79.1851V79.6167C624.521 80.3784 624.692 80.992 625.035 81.4575C625.377 81.923 625.805 82.1558 626.317 82.1558C626.846 82.1558 627.261 81.9611 627.561 81.5718C627.866 81.1825 628.018 80.6725 628.018 80.042C628.018 79.4072 627.864 78.8952 627.555 78.5059C627.25 78.1123 626.844 77.9155 626.336 77.9155ZM635.527 79.896H636.81V80.8545H635.527V83H634.347V80.8545H630.138V80.1626L634.277 73.7578H635.527V79.896ZM631.471 79.896H634.347V75.3638L634.207 75.6177L631.471 79.896ZM638.409 78.3662L638.879 73.7578H643.614V74.8433H639.875L639.596 77.3633C640.049 77.0967 640.563 76.9634 641.139 76.9634C641.981 76.9634 642.649 77.2427 643.145 77.8013C643.64 78.3556 643.887 79.1068 643.887 80.0547C643.887 81.0068 643.629 81.758 643.113 82.3081C642.601 82.854 641.883 83.127 640.961 83.127C640.144 83.127 639.478 82.9006 638.961 82.4478C638.445 81.995 638.151 81.3687 638.079 80.5688H639.19C639.262 81.0978 639.45 81.4977 639.755 81.7686C640.06 82.0352 640.462 82.1685 640.961 82.1685C641.507 82.1685 641.934 81.9823 642.243 81.6099C642.556 81.2375 642.713 80.7233 642.713 80.0674C642.713 79.4495 642.544 78.9544 642.205 78.582C641.871 78.2054 641.424 78.0171 640.866 78.0171C640.354 78.0171 639.952 78.1292 639.66 78.3535L639.349 78.6074L638.409 78.3662Z" fill="white"/>
<path d="M36.1323 358.381L38.7729 350.758H40.106L36.6782 360H35.5991L32.1777 350.758H33.5044L36.1323 358.381ZM45.1143 360C45.0465 359.865 44.9915 359.623 44.9492 359.276C44.4033 359.843 43.7516 360.127 42.9941 360.127C42.3171 360.127 41.7606 359.937 41.3247 359.556C40.8931 359.171 40.6772 358.684 40.6772 358.096C40.6772 357.381 40.9481 356.826 41.4897 356.433C42.0356 356.035 42.8016 355.836 43.7876 355.836H44.9302V355.296C44.9302 354.886 44.8075 354.56 44.562 354.319C44.3166 354.073 43.9548 353.951 43.4766 353.951C43.0576 353.951 42.7064 354.056 42.4229 354.268C42.1393 354.48 41.9976 354.736 41.9976 355.036H40.8169C40.8169 354.693 40.9375 354.363 41.1787 354.046C41.4242 353.724 41.7542 353.47 42.1689 353.284C42.5879 353.098 43.047 353.005 43.5464 353.005C44.3377 353.005 44.9577 353.204 45.4062 353.602C45.8548 353.995 46.0876 354.539 46.1045 355.233V358.394C46.1045 359.025 46.1849 359.526 46.3457 359.898V360H45.1143ZM43.1655 359.105C43.5337 359.105 43.8828 359.01 44.2129 358.819C44.543 358.629 44.7821 358.381 44.9302 358.077V356.667H44.0098C42.571 356.667 41.8516 357.089 41.8516 357.931C41.8516 358.299 41.9743 358.587 42.2197 358.794C42.4652 359.001 42.7804 359.105 43.1655 359.105ZM49.2212 360H48.0469V350.25H49.2212V360ZM55.3467 359.321C54.8896 359.858 54.2189 360.127 53.3345 360.127C52.6024 360.127 52.0438 359.915 51.6587 359.492C51.2778 359.065 51.0853 358.434 51.0811 357.601V353.132H52.2554V357.569C52.2554 358.61 52.6785 359.13 53.5249 359.13C54.422 359.13 55.0187 358.796 55.3149 358.127V353.132H56.4893V360H55.3721L55.3467 359.321ZM61.1294 360.127C60.1984 360.127 59.4409 359.822 58.8569 359.213C58.2729 358.599 57.981 357.78 57.981 356.756V356.541C57.981 355.859 58.11 355.252 58.3682 354.719C58.6305 354.181 58.9945 353.762 59.46 353.462C59.9297 353.157 60.4375 353.005 60.9834 353.005C61.8763 353.005 62.5703 353.299 63.0654 353.887C63.5605 354.475 63.8081 355.318 63.8081 356.414V356.902H59.1553C59.1722 357.579 59.369 358.127 59.7456 358.546C60.1265 358.961 60.6089 359.168 61.1929 359.168C61.6076 359.168 61.9588 359.084 62.2466 358.915C62.5343 358.745 62.7861 358.521 63.002 358.242L63.7192 358.8C63.1437 359.685 62.2804 360.127 61.1294 360.127ZM60.9834 353.97C60.5094 353.97 60.1117 354.143 59.79 354.49C59.4684 354.833 59.2695 355.315 59.1934 355.938H62.6338V355.849C62.5999 355.252 62.4391 354.791 62.1514 354.465C61.8636 354.135 61.4743 353.97 60.9834 353.97Z" fill="white"/>
<path d="M247.465 358.381L250.106 350.758H251.439L248.011 360H246.932L243.511 350.758H244.837L247.465 358.381ZM256.447 360C256.38 359.865 256.325 359.623 256.282 359.276C255.736 359.843 255.085 360.127 254.327 360.127C253.65 360.127 253.094 359.937 252.658 359.556C252.226 359.171 252.01 358.684 252.01 358.096C252.01 357.381 252.281 356.826 252.823 356.433C253.369 356.035 254.135 355.836 255.121 355.836H256.263V355.296C256.263 354.886 256.14 354.56 255.895 354.319C255.65 354.073 255.288 353.951 254.81 353.951C254.391 353.951 254.039 354.056 253.756 354.268C253.472 354.48 253.331 354.736 253.331 355.036H252.15C252.15 354.693 252.271 354.363 252.512 354.046C252.757 353.724 253.087 353.47 253.502 353.284C253.921 353.098 254.38 353.005 254.879 353.005C255.671 353.005 256.291 353.204 256.739 353.602C257.188 353.995 257.421 354.539 257.438 355.233V358.394C257.438 359.025 257.518 359.526 257.679 359.898V360H256.447ZM254.499 359.105C254.867 359.105 255.216 359.01 255.546 358.819C255.876 358.629 256.115 358.381 256.263 358.077V356.667H255.343C253.904 356.667 253.185 357.089 253.185 357.931C253.185 358.299 253.307 358.587 253.553 358.794C253.798 359.001 254.113 359.105 254.499 359.105ZM260.554 360H259.38V350.25H260.554V360ZM266.68 359.321C266.223 359.858 265.552 360.127 264.667 360.127C263.935 360.127 263.377 359.915 262.992 359.492C262.611 359.065 262.418 358.434 262.414 357.601V353.132H263.588V357.569C263.588 358.61 264.012 359.13 264.858 359.13C265.755 359.13 266.352 358.796 266.648 358.127V353.132H267.822V360H266.705L266.68 359.321ZM272.462 360.127C271.531 360.127 270.774 359.822 270.19 359.213C269.606 358.599 269.314 357.78 269.314 356.756V356.541C269.314 355.859 269.443 355.252 269.701 354.719C269.964 354.181 270.327 353.762 270.793 353.462C271.263 353.157 271.771 353.005 272.316 353.005C273.209 353.005 273.903 353.299 274.398 353.887C274.894 354.475 275.141 355.318 275.141 356.414V356.902H270.488C270.505 357.579 270.702 358.127 271.079 358.546C271.459 358.961 271.942 359.168 272.526 359.168C272.941 359.168 273.292 359.084 273.58 358.915C273.867 358.745 274.119 358.521 274.335 358.242L275.052 358.8C274.477 359.685 273.613 360.127 272.462 360.127ZM272.316 353.97C271.842 353.97 271.445 354.143 271.123 354.49C270.801 354.833 270.603 355.315 270.526 355.938H273.967V355.849C273.933 355.252 273.772 354.791 273.484 354.465C273.197 354.135 272.807 353.97 272.316 353.97Z" fill="white"/>
<path d="M458.799 358.381L461.44 350.758H462.773L459.345 360H458.266L454.845 350.758H456.171L458.799 358.381ZM467.781 360C467.714 359.865 467.659 359.623 467.616 359.276C467.07 359.843 466.419 360.127 465.661 360.127C464.984 360.127 464.428 359.937 463.992 359.556C463.56 359.171 463.344 358.684 463.344 358.096C463.344 357.381 463.615 356.826 464.157 356.433C464.703 356.035 465.469 355.836 466.455 355.836H467.597V355.296C467.597 354.886 467.474 354.56 467.229 354.319C466.984 354.073 466.622 353.951 466.144 353.951C465.725 353.951 465.373 354.056 465.09 354.268C464.806 354.48 464.665 354.736 464.665 355.036H463.484C463.484 354.693 463.604 354.363 463.846 354.046C464.091 353.724 464.421 353.47 464.836 353.284C465.255 353.098 465.714 353.005 466.213 353.005C467.005 353.005 467.625 353.204 468.073 353.602C468.522 353.995 468.755 354.539 468.771 355.233V358.394C468.771 359.025 468.852 359.526 469.013 359.898V360H467.781ZM465.833 359.105C466.201 359.105 466.55 359.01 466.88 358.819C467.21 358.629 467.449 358.381 467.597 358.077V356.667H466.677C465.238 356.667 464.519 357.089 464.519 357.931C464.519 358.299 464.641 358.587 464.887 358.794C465.132 359.001 465.447 359.105 465.833 359.105ZM471.888 360H470.714V350.25H471.888V360ZM478.014 359.321C477.557 359.858 476.886 360.127 476.001 360.127C475.269 360.127 474.711 359.915 474.326 359.492C473.945 359.065 473.752 358.434 473.748 357.601V353.132H474.922V357.569C474.922 358.61 475.346 359.13 476.192 359.13C477.089 359.13 477.686 358.796 477.982 358.127V353.132H479.156V360H478.039L478.014 359.321ZM483.796 360.127C482.865 360.127 482.108 359.822 481.524 359.213C480.94 358.599 480.648 357.78 480.648 356.756V356.541C480.648 355.859 480.777 355.252 481.035 354.719C481.298 354.181 481.661 353.762 482.127 353.462C482.597 353.157 483.104 353.005 483.65 353.005C484.543 353.005 485.237 353.299 485.732 353.887C486.228 354.475 486.475 355.318 486.475 356.414V356.902H481.822C481.839 357.579 482.036 358.127 482.413 358.546C482.793 358.961 483.276 359.168 483.86 359.168C484.275 359.168 484.626 359.084 484.914 358.915C485.201 358.745 485.453 358.521 485.669 358.242L486.386 358.8C485.811 359.685 484.947 360.127 483.796 360.127ZM483.65 353.97C483.176 353.97 482.779 354.143 482.457 354.49C482.135 354.833 481.937 355.315 481.86 355.938H485.301V355.849C485.267 355.252 485.106 354.791 484.818 354.465C484.531 354.135 484.141 353.97 483.65 353.97Z" fill="white"/>
<path d="M670.132 358.381L672.773 350.758H674.106L670.678 360H669.599L666.178 350.758H667.504L670.132 358.381ZM679.114 360C679.047 359.865 678.992 359.623 678.949 359.276C678.403 359.843 677.752 360.127 676.994 360.127C676.317 360.127 675.761 359.937 675.325 359.556C674.893 359.171 674.677 358.684 674.677 358.096C674.677 357.381 674.948 356.826 675.49 356.433C676.036 356.035 676.802 355.836 677.788 355.836H678.93V355.296C678.93 354.886 678.807 354.56 678.562 354.319C678.317 354.073 677.955 353.951 677.477 353.951C677.058 353.951 676.706 354.056 676.423 354.268C676.139 354.48 675.998 354.736 675.998 355.036H674.817C674.817 354.693 674.938 354.363 675.179 354.046C675.424 353.724 675.754 353.47 676.169 353.284C676.588 353.098 677.047 353.005 677.546 353.005C678.338 353.005 678.958 353.204 679.406 353.602C679.855 353.995 680.088 354.539 680.104 355.233V358.394C680.104 359.025 680.185 359.526 680.346 359.898V360H679.114ZM677.166 359.105C677.534 359.105 677.883 359.01 678.213 358.819C678.543 358.629 678.782 358.381 678.93 358.077V356.667H678.01C676.571 356.667 675.852 357.089 675.852 357.931C675.852 358.299 675.974 358.587 676.22 358.794C676.465 359.001 676.78 359.105 677.166 359.105ZM683.221 360H682.047V350.25H683.221V360ZM689.347 359.321C688.89 359.858 688.219 360.127 687.334 360.127C686.602 360.127 686.044 359.915 685.659 359.492C685.278 359.065 685.085 358.434 685.081 357.601V353.132H686.255V357.569C686.255 358.61 686.679 359.13 687.525 359.13C688.422 359.13 689.019 358.796 689.315 358.127V353.132H690.489V360H689.372L689.347 359.321ZM695.129 360.127C694.198 360.127 693.441 359.822 692.857 359.213C692.273 358.599 691.981 357.78 691.981 356.756V356.541C691.981 355.859 692.11 355.252 692.368 354.719C692.631 354.181 692.994 353.762 693.46 353.462C693.93 353.157 694.438 353.005 694.983 353.005C695.876 353.005 696.57 353.299 697.065 353.887C697.561 354.475 697.808 355.318 697.808 356.414V356.902H693.155C693.172 357.579 693.369 358.127 693.746 358.546C694.126 358.961 694.609 359.168 695.193 359.168C695.608 359.168 695.959 359.084 696.247 358.915C696.534 358.745 696.786 358.521 697.002 358.242L697.719 358.8C697.144 359.685 696.28 360.127 695.129 360.127ZM694.983 353.97C694.509 353.97 694.112 354.143 693.79 354.49C693.468 354.833 693.27 355.315 693.193 355.938H696.634V355.849C696.6 355.252 696.439 354.791 696.151 354.465C695.864 354.135 695.474 353.97 694.983 353.97Z" fill="white"/>
<path d="M37.5361 281.058C37.5361 282.433 37.3013 283.455 36.8315 284.124C36.3618 284.793 35.6276 285.127 34.6289 285.127C33.6429 285.127 32.9129 284.801 32.439 284.149C31.965 283.493 31.7196 282.516 31.7026 281.217V279.649C31.7026 278.291 31.9375 277.281 32.4072 276.621C32.877 275.961 33.6133 275.631 34.6162 275.631C35.6107 275.631 36.3428 275.95 36.8125 276.589C37.2822 277.224 37.5234 278.206 37.5361 279.535V281.058ZM36.3618 279.452C36.3618 278.458 36.2222 277.734 35.9429 277.281C35.6636 276.824 35.2214 276.596 34.6162 276.596C34.0153 276.596 33.5773 276.822 33.3022 277.275C33.0272 277.728 32.8854 278.424 32.877 279.363V281.242C32.877 282.241 33.0208 282.979 33.3086 283.458C33.6006 283.931 34.0407 284.168 34.6289 284.168C35.2087 284.168 35.6382 283.944 35.9175 283.496C36.201 283.047 36.3491 282.34 36.3618 281.375V279.452ZM39.1865 284.384C39.1865 284.181 39.2458 284.012 39.3643 283.876C39.487 283.741 39.6689 283.673 39.9102 283.673C40.1514 283.673 40.3333 283.741 40.4561 283.876C40.583 284.012 40.6465 284.181 40.6465 284.384C40.6465 284.579 40.583 284.742 40.4561 284.873C40.3333 285.004 40.1514 285.07 39.9102 285.07C39.6689 285.07 39.487 285.004 39.3643 284.873C39.2458 284.742 39.1865 284.579 39.1865 284.384ZM46.3276 285H45.147V277.173L42.7793 278.043V276.977L46.1436 275.713H46.3276V285Z" fill="white"/>
<path d="M37.5361 219.058C37.5361 220.433 37.3013 221.455 36.8315 222.124C36.3618 222.793 35.6276 223.127 34.6289 223.127C33.6429 223.127 32.9129 222.801 32.439 222.149C31.965 221.493 31.7196 220.516 31.7026 219.217V217.649C31.7026 216.291 31.9375 215.281 32.4072 214.621C32.877 213.961 33.6133 213.631 34.6162 213.631C35.6107 213.631 36.3428 213.95 36.8125 214.589C37.2822 215.224 37.5234 216.206 37.5361 217.535V219.058ZM36.3618 217.452C36.3618 216.458 36.2222 215.734 35.9429 215.281C35.6636 214.824 35.2214 214.596 34.6162 214.596C34.0153 214.596 33.5773 214.822 33.3022 215.275C33.0272 215.728 32.8854 216.424 32.877 217.363V219.242C32.877 220.241 33.0208 220.979 33.3086 221.458C33.6006 221.931 34.0407 222.168 34.6289 222.168C35.2087 222.168 35.6382 221.944 35.9175 221.496C36.201 221.047 36.3491 220.34 36.3618 219.375V217.452ZM39.1865 222.384C39.1865 222.181 39.2458 222.012 39.3643 221.876C39.487 221.741 39.6689 221.673 39.9102 221.673C40.1514 221.673 40.3333 221.741 40.4561 221.876C40.583 222.012 40.6465 222.181 40.6465 222.384C40.6465 222.579 40.583 222.742 40.4561 222.873C40.3333 223.004 40.1514 223.07 39.9102 223.07C39.6689 223.07 39.487 223.004 39.3643 222.873C39.2458 222.742 39.1865 222.579 39.1865 222.384ZM48.5239 223H42.4683V222.156L45.6675 218.601C46.1414 218.064 46.4673 217.628 46.645 217.293C46.827 216.955 46.918 216.606 46.918 216.246C46.918 215.764 46.772 215.368 46.48 215.059C46.188 214.75 45.7987 214.596 45.312 214.596C44.728 214.596 44.2731 214.763 43.9473 215.097C43.6257 215.427 43.4648 215.889 43.4648 216.481H42.2905C42.2905 215.63 42.5635 214.943 43.1094 214.418C43.6595 213.893 44.3937 213.631 45.312 213.631C46.1711 213.631 46.8503 213.857 47.3496 214.31C47.849 214.759 48.0986 215.357 48.0986 216.106C48.0986 217.016 47.5189 218.1 46.3594 219.356L43.8838 222.042H48.5239V223Z" fill="white"/>
<path d="M37.5361 159.058C37.5361 160.433 37.3013 161.455 36.8315 162.124C36.3618 162.793 35.6276 163.127 34.6289 163.127C33.6429 163.127 32.9129 162.801 32.439 162.149C31.965 161.493 31.7196 160.516 31.7026 159.217V157.649C31.7026 156.291 31.9375 155.281 32.4072 154.621C32.877 153.961 33.6133 153.631 34.6162 153.631C35.6107 153.631 36.3428 153.95 36.8125 154.589C37.2822 155.224 37.5234 156.206 37.5361 157.535V159.058ZM36.3618 157.452C36.3618 156.458 36.2222 155.734 35.9429 155.281C35.6636 154.824 35.2214 154.596 34.6162 154.596C34.0153 154.596 33.5773 154.822 33.3022 155.275C33.0272 155.728 32.8854 156.424 32.877 157.363V159.242C32.877 160.241 33.0208 160.979 33.3086 161.458C33.6006 161.931 34.0407 162.168 34.6289 162.168C35.2087 162.168 35.6382 161.944 35.9175 161.496C36.201 161.047 36.3491 160.34 36.3618 159.375V157.452ZM39.1865 162.384C39.1865 162.181 39.2458 162.012 39.3643 161.876C39.487 161.741 39.6689 161.673 39.9102 161.673C40.1514 161.673 40.3333 161.741 40.4561 161.876C40.583 162.012 40.6465 162.181 40.6465 162.384C40.6465 162.579 40.583 162.742 40.4561 162.873C40.3333 163.004 40.1514 163.07 39.9102 163.07C39.6689 163.07 39.487 163.004 39.3643 162.873C39.2458 162.742 39.1865 162.579 39.1865 162.384ZM44.1758 157.808H45.0581C45.6125 157.799 46.0483 157.653 46.3657 157.37C46.6831 157.086 46.8418 156.703 46.8418 156.221C46.8418 155.137 46.3022 154.596 45.2231 154.596C44.7153 154.596 44.3091 154.742 44.0044 155.034C43.7039 155.321 43.5537 155.704 43.5537 156.183H42.3794C42.3794 155.451 42.646 154.843 43.1792 154.361C43.7166 153.874 44.3979 153.631 45.2231 153.631C46.0949 153.631 46.7783 153.861 47.2734 154.323C47.7686 154.784 48.0161 155.425 48.0161 156.246C48.0161 156.648 47.8849 157.037 47.6226 157.414C47.3644 157.791 47.0111 158.072 46.5625 158.258C47.0703 158.419 47.4618 158.686 47.7368 159.058C48.0161 159.431 48.1558 159.885 48.1558 160.423C48.1558 161.252 47.8849 161.91 47.3433 162.397C46.8016 162.884 46.097 163.127 45.2295 163.127C44.362 163.127 43.6553 162.892 43.1094 162.422C42.5677 161.953 42.2969 161.333 42.2969 160.562H43.4775C43.4775 161.049 43.6362 161.438 43.9536 161.73C44.271 162.022 44.6963 162.168 45.2295 162.168C45.7965 162.168 46.2303 162.02 46.5308 161.724C46.8312 161.428 46.9814 161.003 46.9814 160.448C46.9814 159.911 46.8164 159.498 46.4863 159.21C46.1562 158.923 45.6802 158.775 45.0581 158.766H44.1758V157.808Z" fill="white"/>
<path d="M37.5361 98.0581C37.5361 99.4334 37.3013 100.455 36.8315 101.124C36.3618 101.793 35.6276 102.127 34.6289 102.127C33.6429 102.127 32.9129 101.801 32.439 101.149C31.965 100.493 31.7196 99.516 31.7026 98.2168V96.6489C31.7026 95.2905 31.9375 94.2812 32.4072 93.6211C32.877 92.9609 33.6133 92.6309 34.6162 92.6309C35.6107 92.6309 36.3428 92.9504 36.8125 93.5894C37.2822 94.2241 37.5234 95.2059 37.5361 96.5347V98.0581ZM36.3618 96.4521C36.3618 95.4577 36.2222 94.734 35.9429 94.2812C35.6636 93.8242 35.2214 93.5957 34.6162 93.5957C34.0153 93.5957 33.5773 93.8221 33.3022 94.2749C33.0272 94.7277 32.8854 95.4238 32.877 96.3633V98.2422C32.877 99.2409 33.0208 99.9793 33.3086 100.458C33.6006 100.931 34.0407 101.168 34.6289 101.168C35.2087 101.168 35.6382 100.944 35.9175 100.496C36.201 100.047 36.3491 99.3403 36.3618 98.3755V96.4521ZM39.1865 101.384C39.1865 101.181 39.2458 101.012 39.3643 100.876C39.487 100.741 39.6689 100.673 39.9102 100.673C40.1514 100.673 40.3333 100.741 40.4561 100.876C40.583 101.012 40.6465 101.181 40.6465 101.384C40.6465 101.579 40.583 101.742 40.4561 101.873C40.3333 102.004 40.1514 102.07 39.9102 102.07C39.6689 102.07 39.487 102.004 39.3643 101.873C39.2458 101.742 39.1865 101.579 39.1865 101.384ZM47.4258 98.896H48.708V99.8545H47.4258V102H46.2451V99.8545H42.0366V99.1626L46.1753 92.7578H47.4258V98.896ZM43.3696 98.896H46.2451V94.3638L46.1055 94.6177L43.3696 98.896Z" fill="white"/>
<path fill-rule="evenodd" clip-rule="evenodd" d="M53 279H749V280H53V279Z" fill="#525268"/>
<path fill-rule="evenodd" clip-rule="evenodd" d="M53 218H749V219H53V218Z" fill="#525268"/>
<path fill-rule="evenodd" clip-rule="evenodd" d="M53 157H749V158H53V157Z" fill="#525268"/>
<path fill-rule="evenodd" clip-rule="evenodd" d="M53 96H749V97H53V96Z" fill="#525268"/>
<path fill-rule="evenodd" clip-rule="evenodd" d="M27 340H749V341H27V340Z" fill="#525268"/>
<path opacity="0.2" fill-rule="evenodd" clip-rule="evenodd" d="M53 165.548L79.7692 252.258L106.538 289.419L134.795 215.097L161.564 227.484L188.333 134.581L213.615 252.258L240.385 277.032L268.641 165.548L293.923 289.419L322.179 308L348.949 196.516L375.718 215.097L401 242.968L427.769 277.032L454.538 227.484L481.308 196.516L509.564 116L534.846 134.581L561.615 196.516L589.872 165.548L615.154 196.516L641.923 215.097L667.205 116L695.462 277.032L722.231 184.129L749 277.032V340.105H53.7166L53 165.548Z" fill="#1E75FF"/>
<path d="M53 165.548L79.7692 252.258L106.538 289.419L134.795 215.097L161.564 227.484L188.333 134.581L213.615 252.258L240.385 277.032L268.641 165.548L293.923 289.419L322.179 308L348.949 196.516L375.718 215.097L401 242.968L427.769 277.032L454.538 227.484L481.308 196.516L509.564 116L534.846 134.581L561.615 196.516L589.872 165.548L615.154 196.516L641.923 215.097L667.205 116L695.462 277.032L722.231 184.129L749 277.032" stroke="#1E75FF" stroke-width="2"/>
<path fill-rule="evenodd" clip-rule="evenodd" d="M589 172C591.761 172 594 169.761 594 167C594 164.239 591.761 162 589 162C586.239 162 584 164.239 584 167C584 169.761 586.239 172 589 172Z" fill="#2B3648" stroke="#1E75FF" stroke-width="2"/>
<path d="M38.5488 44H35.9121L30.7793 35.5801V44H28.1426V31.2031H30.7793L35.9209 39.6406V31.2031H38.5488V44ZM46.1953 44C46.0781 43.7715 45.9932 43.4873 45.9404 43.1475C45.3252 43.833 44.5254 44.1758 43.541 44.1758C42.6094 44.1758 41.8359 43.9062 41.2207 43.3672C40.6113 42.8281 40.3066 42.1484 40.3066 41.3281C40.3066 40.3203 40.6787 39.5469 41.4229 39.0078C42.1729 38.4688 43.2539 38.1963 44.666 38.1904H45.835V37.6455C45.835 37.2061 45.7207 36.8545 45.4922 36.5908C45.2695 36.3271 44.915 36.1953 44.4287 36.1953C44.001 36.1953 43.6641 36.2979 43.418 36.5029C43.1777 36.708 43.0576 36.9893 43.0576 37.3467H40.5176C40.5176 36.7959 40.6875 36.2861 41.0273 35.8174C41.3672 35.3486 41.8477 34.9824 42.4688 34.7188C43.0898 34.4492 43.7871 34.3145 44.5605 34.3145C45.7324 34.3145 46.6611 34.6104 47.3467 35.2021C48.0381 35.7881 48.3838 36.6143 48.3838 37.6807V41.8027C48.3896 42.7051 48.5156 43.3877 48.7617 43.8506V44H46.1953ZM44.0947 42.2334C44.4697 42.2334 44.8154 42.1514 45.1318 41.9873C45.4482 41.8174 45.6826 41.5918 45.835 41.3105V39.6758H44.8857C43.6143 39.6758 42.9375 40.1152 42.8555 40.9941L42.8467 41.1436C42.8467 41.46 42.958 41.7207 43.1807 41.9258C43.4033 42.1309 43.708 42.2334 44.0947 42.2334ZM52.7168 34.4902L52.7959 35.5537C53.4697 34.7275 54.3809 34.3145 55.5293 34.3145C56.7539 34.3145 57.5947 34.7979 58.0518 35.7646C58.7197 34.7979 59.6719 34.3145 60.9082 34.3145C61.9395 34.3145 62.707 34.6162 63.2109 35.2197C63.7148 35.8174 63.9668 36.7197 63.9668 37.9268V44H61.418V37.9355C61.418 37.3965 61.3125 37.0039 61.1016 36.7578C60.8906 36.5059 60.5186 36.3799 59.9854 36.3799C59.2236 36.3799 58.6963 36.7432 58.4033 37.4697L58.4121 44H55.8721V37.9443C55.8721 37.3936 55.7637 36.9951 55.5469 36.749C55.3301 36.5029 54.9609 36.3799 54.4395 36.3799C53.7188 36.3799 53.1973 36.6787 52.875 37.2764V44H50.335V34.4902H52.7168ZM70.3037 44.1758C68.9092 44.1758 67.7725 43.748 66.8936 42.8926C66.0205 42.0371 65.584 40.8975 65.584 39.4736V39.2275C65.584 38.2725 65.7686 37.4199 66.1377 36.6699C66.5068 35.9141 67.0283 35.334 67.7021 34.9297C68.3818 34.5195 69.1553 34.3145 70.0225 34.3145C71.3232 34.3145 72.3457 34.7246 73.0898 35.5449C73.8398 36.3652 74.2148 37.5283 74.2148 39.0342V40.0713H68.1592C68.2412 40.6924 68.4873 41.1904 68.8975 41.5654C69.3135 41.9404 69.8379 42.1279 70.4707 42.1279C71.4492 42.1279 72.2139 41.7734 72.7646 41.0645L74.0127 42.4619C73.6318 43.001 73.1162 43.4229 72.4658 43.7275C71.8154 44.0264 71.0947 44.1758 70.3037 44.1758ZM70.0137 36.3711C69.5098 36.3711 69.0996 36.541 68.7832 36.8809C68.4727 37.2207 68.2734 37.707 68.1855 38.3398H71.7188V38.1377C71.707 37.5752 71.5547 37.1416 71.2617 36.8369C70.9688 36.5264 70.5527 36.3711 70.0137 36.3711ZM79.752 39.1572C79.752 38.2139 79.9336 37.373 80.2969 36.6348C80.6602 35.8965 81.1816 35.3252 81.8613 34.9209C82.5469 34.5166 83.3408 34.3145 84.2432 34.3145C85.5264 34.3145 86.5723 34.707 87.3809 35.4922C88.1953 36.2773 88.6494 37.3438 88.7432 38.6914L88.7607 39.3418C88.7607 40.8008 88.3535 41.9727 87.5391 42.8574C86.7246 43.7363 85.6318 44.1758 84.2607 44.1758C82.8896 44.1758 81.7939 43.7363 80.9736 42.8574C80.1592 41.9785 79.752 40.7832 79.752 39.2715V39.1572ZM82.292 39.3418C82.292 40.2441 82.4619 40.9355 82.8018 41.416C83.1416 41.8906 83.6279 42.1279 84.2607 42.1279C84.876 42.1279 85.3564 41.8936 85.7021 41.4248C86.0479 40.9502 86.2207 40.1943 86.2207 39.1572C86.2207 38.2725 86.0479 37.5869 85.7021 37.1006C85.3564 36.6143 84.8701 36.3711 84.2432 36.3711C83.6221 36.3711 83.1416 36.6143 82.8018 37.1006C82.4619 37.5811 82.292 38.3281 82.292 39.3418ZM91.0195 44V36.3535H89.6045V34.4902H91.0195V33.6816C91.0195 32.6152 91.3242 31.7891 91.9336 31.2031C92.5488 30.6113 93.4072 30.3154 94.5088 30.3154C94.8604 30.3154 95.291 30.374 95.8008 30.4912L95.7744 32.46C95.5635 32.4072 95.3057 32.3809 95.001 32.3809C94.0459 32.3809 93.5684 32.8291 93.5684 33.7256V34.4902H95.458V36.3535H93.5684V44H91.0195ZM104.3 32.1523V34.4902H105.926V36.3535H104.3V41.0996C104.3 41.4512 104.367 41.7031 104.502 41.8555C104.637 42.0078 104.895 42.084 105.275 42.084C105.557 42.084 105.806 42.0635 106.022 42.0225V43.9473C105.524 44.0996 105.012 44.1758 104.484 44.1758C102.703 44.1758 101.795 43.2764 101.76 41.4775V36.3535H100.371V34.4902H101.76V32.1523H104.3ZM109.819 35.5273C110.493 34.7188 111.34 34.3145 112.359 34.3145C114.422 34.3145 115.468 35.5127 115.497 37.9092V44H112.957V37.9795C112.957 37.4346 112.84 37.0332 112.605 36.7754C112.371 36.5117 111.981 36.3799 111.437 36.3799C110.692 36.3799 110.153 36.667 109.819 37.2412V44H107.279V30.5H109.819V35.5273ZM121.79 44.1758C120.396 44.1758 119.259 43.748 118.38 42.8926C117.507 42.0371 117.07 40.8975 117.07 39.4736V39.2275C117.07 38.2725 117.255 37.4199 117.624 36.6699C117.993 35.9141 118.515 35.334 119.188 34.9297C119.868 34.5195 120.642 34.3145 121.509 34.3145C122.81 34.3145 123.832 34.7246 124.576 35.5449C125.326 36.3652 125.701 37.5283 125.701 39.0342V40.0713H119.646C119.728 40.6924 119.974 41.1904 120.384 41.5654C120.8 41.9404 121.324 42.1279 121.957 42.1279C122.936 42.1279 123.7 41.7734 124.251 41.0645L125.499 42.4619C125.118 43.001 124.603 43.4229 123.952 43.7275C123.302 44.0264 122.581 44.1758 121.79 44.1758ZM121.5 36.3711C120.996 36.3711 120.586 36.541 120.27 36.8809C119.959 37.2207 119.76 37.707 119.672 38.3398H123.205V38.1377C123.193 37.5752 123.041 37.1416 122.748 36.8369C122.455 36.5264 122.039 36.3711 121.5 36.3711ZM139.904 40.5459L141.152 34.4902H143.604L141.179 44H139.052L137.25 38.0146L135.448 44H133.33L130.904 34.4902H133.356L134.596 40.5371L136.336 34.4902H138.173L139.904 40.5459ZM147.551 44H145.002V34.4902H147.551V44ZM144.853 32.0293C144.853 31.6484 144.979 31.335 145.23 31.0889C145.488 30.8428 145.837 30.7197 146.276 30.7197C146.71 30.7197 147.056 30.8428 147.313 31.0889C147.571 31.335 147.7 31.6484 147.7 32.0293C147.7 32.416 147.568 32.7324 147.305 32.9785C147.047 33.2246 146.704 33.3477 146.276 33.3477C145.849 33.3477 145.503 33.2246 145.239 32.9785C144.981 32.7324 144.853 32.416 144.853 32.0293ZM149.256 39.1748C149.256 37.6924 149.587 36.5117 150.249 35.6328C150.917 34.7539 151.828 34.3145 152.982 34.3145C153.908 34.3145 154.673 34.6602 155.276 35.3516V30.5H157.825V44H155.531L155.408 42.9893C154.775 43.7803 153.961 44.1758 152.965 44.1758C151.846 44.1758 150.946 43.7363 150.267 42.8574C149.593 41.9727 149.256 40.7451 149.256 39.1748ZM151.796 39.3594C151.796 40.25 151.951 40.9326 152.262 41.4072C152.572 41.8818 153.023 42.1191 153.615 42.1191C154.4 42.1191 154.954 41.7881 155.276 41.126V37.373C154.96 36.7109 154.412 36.3799 153.633 36.3799C152.408 36.3799 151.796 37.373 151.796 39.3594ZM159.425 39.1748C159.425 37.7158 159.771 36.541 160.462 35.6504C161.159 34.7598 162.097 34.3145 163.274 34.3145C164.317 34.3145 165.129 34.6719 165.709 35.3867L165.814 34.4902H168.117V43.6836C168.117 44.5156 167.927 45.2393 167.546 45.8545C167.171 46.4697 166.641 46.9385 165.955 47.2607C165.27 47.583 164.467 47.7441 163.547 47.7441C162.85 47.7441 162.17 47.6035 161.508 47.3223C160.846 47.0469 160.345 46.6895 160.005 46.25L161.13 44.7031C161.763 45.4121 162.53 45.7666 163.433 45.7666C164.106 45.7666 164.631 45.585 165.006 45.2217C165.381 44.8643 165.568 44.3545 165.568 43.6924V43.1826C164.982 43.8447 164.212 44.1758 163.257 44.1758C162.114 44.1758 161.188 43.7305 160.479 42.8398C159.776 41.9434 159.425 40.7568 159.425 39.2803V39.1748ZM161.965 39.3594C161.965 40.2207 162.138 40.8975 162.483 41.3896C162.829 41.876 163.304 42.1191 163.907 42.1191C164.681 42.1191 165.234 41.8291 165.568 41.249V37.25C165.229 36.6699 164.681 36.3799 163.925 36.3799C163.315 36.3799 162.835 36.6289 162.483 37.127C162.138 37.625 161.965 38.3691 161.965 39.3594ZM174.454 44.1758C173.06 44.1758 171.923 43.748 171.044 42.8926C170.171 42.0371 169.734 40.8975 169.734 39.4736V39.2275C169.734 38.2725 169.919 37.4199 170.288 36.6699C170.657 35.9141 171.179 35.334 171.853 34.9297C172.532 34.5195 173.306 34.3145 174.173 34.3145C175.474 34.3145 176.496 34.7246 177.24 35.5449C177.99 36.3652 178.365 37.5283 178.365 39.0342V40.0713H172.31C172.392 40.6924 172.638 41.1904 173.048 41.5654C173.464 41.9404 173.988 42.1279 174.621 42.1279C175.6 42.1279 176.364 41.7734 176.915 41.0645L178.163 42.4619C177.782 43.001 177.267 43.4229 176.616 43.7275C175.966 44.0264 175.245 44.1758 174.454 44.1758ZM174.164 36.3711C173.66 36.3711 173.25 36.541 172.934 36.8809C172.623 37.2207 172.424 37.707 172.336 38.3398H175.869V38.1377C175.857 37.5752 175.705 37.1416 175.412 36.8369C175.119 36.5264 174.703 36.3711 174.164 36.3711ZM182.856 32.1523V34.4902H184.482V36.3535H182.856V41.0996C182.856 41.4512 182.924 41.7031 183.059 41.8555C183.193 42.0078 183.451 42.084 183.832 42.084C184.113 42.084 184.362 42.0635 184.579 42.0225V43.9473C184.081 44.0996 183.568 44.1758 183.041 44.1758C181.26 44.1758 180.352 43.2764 180.316 41.4775V36.3535H178.928V34.4902H180.316V32.1523H182.856Z" fill="white"/>
<defs>
<filter id="filter0_d" x="0" y="0" width="776" height="386" filterUnits="userSpaceOnUse" color-interpolation-filters="sRGB">
<feFlood flood-opacity="0" result="BackgroundImageFix"/>
<feColorMatrix in="SourceAlpha" type="matrix" values="0 0 0 0 0 0 0 0 0 0 0 0 0 0 0 0 0 0 127 0"/>
<feOffset/>
<feGaussianBlur stdDeviation="1.5"/>
<feColorMatrix type="matrix" values="0 0 0 0 0 0 0 0 0 0 0 0 0 0 0 0 0 0 0.03 0"/>
<feBlend mode="normal" in2="BackgroundImageFix" result="effect1_dropShadow"/>
<feBlend mode="normal" in="SourceGraphic" in2="effect1_dropShadow" result="shape"/>
</filter>
<filter id="filter1_d" x="515" y="66" width="148" height="29" filterUnits="userSpaceOnUse" color-interpolation-filters="sRGB">
<feFlood flood-opacity="0" result="BackgroundImageFix"/>
<feColorMatrix in="SourceAlpha" type="matrix" values="0 0 0 0 0 0 0 0 0 0 0 0 0 0 0 0 0 0 127 0"/>
<feOffset dy="2"/>
<feGaussianBlur stdDeviation="1"/>
<feColorMatrix type="matrix" values="0 0 0 0 0 0 0 0 0 0 0 0 0 0 0 0 0 0 0.08 0"/>
<feBlend mode="normal" in2="BackgroundImageFix" result="effect1_dropShadow"/>
<feBlend mode="normal" in="SourceGraphic" in2="effect1_dropShadow" result="shape"/>
</filter>
</defs>
</svg>
