<svg width="776" height="434" viewBox="0 0 776 434" fill="none" xmlns="http://www.w3.org/2000/svg">
<g filter="url(#filter0_d)">
<path fill-rule="evenodd" clip-rule="evenodd" d="M3 421C3 426.523 7.47715 431 13 431H763C768.523 431 773 426.523 773 421V13C773 7.47714 768.523 3 763 3H13C7.47716 3 3 7.47714 3 13L3 421Z" fill="#1C1C24"/>
</g>
<path d="M105.074 393H103.855V383.758H105.074V393ZM108.717 384.469V386.132H110V387.04H108.717V391.299C108.717 391.574 108.774 391.781 108.889 391.921C109.003 392.056 109.198 392.124 109.473 392.124C109.608 392.124 109.794 392.099 110.031 392.048V393C109.722 393.085 109.422 393.127 109.13 393.127C108.605 393.127 108.209 392.968 107.943 392.651C107.676 392.333 107.543 391.883 107.543 391.299V387.04H106.292V386.132H107.543V384.469H108.717ZM114.227 393.127C113.296 393.127 112.539 392.822 111.955 392.213C111.371 391.599 111.079 390.78 111.079 389.756V389.541C111.079 388.859 111.208 388.252 111.466 387.719C111.728 387.181 112.092 386.762 112.558 386.462C113.027 386.157 113.535 386.005 114.081 386.005C114.974 386.005 115.668 386.299 116.163 386.887C116.658 387.475 116.906 388.318 116.906 389.414V389.902H112.253C112.27 390.579 112.467 391.127 112.843 391.546C113.224 391.961 113.707 392.168 114.291 392.168C114.705 392.168 115.056 392.084 115.344 391.915C115.632 391.745 115.884 391.521 116.1 391.242L116.817 391.8C116.241 392.685 115.378 393.127 114.227 393.127ZM114.081 386.97C113.607 386.97 113.209 387.143 112.888 387.49C112.566 387.833 112.367 388.315 112.291 388.938H115.731V388.849C115.698 388.252 115.537 387.791 115.249 387.465C114.961 387.135 114.572 386.97 114.081 386.97ZM119.375 386.132L119.407 386.894C119.91 386.301 120.59 386.005 121.444 386.005C122.405 386.005 123.059 386.373 123.406 387.109C123.634 386.779 123.931 386.513 124.294 386.31C124.663 386.106 125.096 386.005 125.596 386.005C127.102 386.005 127.868 386.803 127.894 388.398V393H126.719V388.468C126.719 387.977 126.607 387.611 126.383 387.37C126.159 387.124 125.782 387.001 125.253 387.001C124.817 387.001 124.455 387.133 124.167 387.395C123.88 387.653 123.713 388.002 123.666 388.442V393H122.485V388.5C122.485 387.501 121.997 387.001 121.019 387.001C120.249 387.001 119.722 387.329 119.438 387.985V393H118.264V386.132H119.375ZM136.634 393H135.454V385.173L133.086 386.043V384.977L136.45 383.713H136.634V393Z" fill="white"/>
<path d="M221.074 393H219.855V383.758H221.074V393ZM224.717 384.469V386.132H226V387.04H224.717V391.299C224.717 391.574 224.774 391.781 224.889 391.921C225.003 392.056 225.198 392.124 225.473 392.124C225.608 392.124 225.794 392.099 226.031 392.048V393C225.722 393.085 225.422 393.127 225.13 393.127C224.605 393.127 224.209 392.968 223.943 392.651C223.676 392.333 223.543 391.883 223.543 391.299V387.04H222.292V386.132H223.543V384.469H224.717ZM230.227 393.127C229.296 393.127 228.539 392.822 227.955 392.213C227.371 391.599 227.079 390.78 227.079 389.756V389.541C227.079 388.859 227.208 388.252 227.466 387.719C227.728 387.181 228.092 386.762 228.558 386.462C229.027 386.157 229.535 386.005 230.081 386.005C230.974 386.005 231.668 386.299 232.163 386.887C232.658 387.475 232.906 388.318 232.906 389.414V389.902H228.253C228.27 390.579 228.467 391.127 228.843 391.546C229.224 391.961 229.707 392.168 230.291 392.168C230.705 392.168 231.056 392.084 231.344 391.915C231.632 391.745 231.884 391.521 232.1 391.242L232.817 391.8C232.241 392.685 231.378 393.127 230.227 393.127ZM230.081 386.97C229.607 386.97 229.209 387.143 228.888 387.49C228.566 387.833 228.367 388.315 228.291 388.938H231.731V388.849C231.698 388.252 231.537 387.791 231.249 387.465C230.961 387.135 230.572 386.97 230.081 386.97ZM235.375 386.132L235.407 386.894C235.91 386.301 236.59 386.005 237.444 386.005C238.405 386.005 239.059 386.373 239.406 387.109C239.634 386.779 239.931 386.513 240.294 386.31C240.663 386.106 241.096 386.005 241.596 386.005C243.102 386.005 243.868 386.803 243.894 388.398V393H242.719V388.468C242.719 387.977 242.607 387.611 242.383 387.37C242.159 387.124 241.782 387.001 241.253 387.001C240.817 387.001 240.455 387.133 240.167 387.395C239.88 387.653 239.713 388.002 239.666 388.442V393H238.485V388.5C238.485 387.501 237.997 387.001 237.019 387.001C236.249 387.001 235.722 387.329 235.438 387.985V393H234.264V386.132H235.375ZM254.831 393H248.775V392.156L251.974 388.601C252.448 388.064 252.774 387.628 252.952 387.293C253.134 386.955 253.225 386.606 253.225 386.246C253.225 385.764 253.079 385.368 252.787 385.059C252.495 384.75 252.105 384.596 251.619 384.596C251.035 384.596 250.58 384.763 250.254 385.097C249.932 385.427 249.771 385.889 249.771 386.481H248.597C248.597 385.63 248.87 384.943 249.416 384.418C249.966 383.893 250.7 383.631 251.619 383.631C252.478 383.631 253.157 383.857 253.656 384.31C254.156 384.759 254.405 385.357 254.405 386.106C254.405 387.016 253.826 388.1 252.666 389.356L250.19 392.042H254.831V393Z" fill="white"/>
<path d="M337.074 393H335.855V383.758H337.074V393ZM340.717 384.469V386.132H342V387.04H340.717V391.299C340.717 391.574 340.774 391.781 340.889 391.921C341.003 392.056 341.198 392.124 341.473 392.124C341.608 392.124 341.794 392.099 342.031 392.048V393C341.722 393.085 341.422 393.127 341.13 393.127C340.605 393.127 340.209 392.968 339.943 392.651C339.676 392.333 339.543 391.883 339.543 391.299V387.04H338.292V386.132H339.543V384.469H340.717ZM346.227 393.127C345.296 393.127 344.539 392.822 343.955 392.213C343.371 391.599 343.079 390.78 343.079 389.756V389.541C343.079 388.859 343.208 388.252 343.466 387.719C343.728 387.181 344.092 386.762 344.558 386.462C345.027 386.157 345.535 386.005 346.081 386.005C346.974 386.005 347.668 386.299 348.163 386.887C348.658 387.475 348.906 388.318 348.906 389.414V389.902H344.253C344.27 390.579 344.467 391.127 344.843 391.546C345.224 391.961 345.707 392.168 346.291 392.168C346.705 392.168 347.056 392.084 347.344 391.915C347.632 391.745 347.884 391.521 348.1 391.242L348.817 391.8C348.241 392.685 347.378 393.127 346.227 393.127ZM346.081 386.97C345.607 386.97 345.209 387.143 344.888 387.49C344.566 387.833 344.367 388.315 344.291 388.938H347.731V388.849C347.698 388.252 347.537 387.791 347.249 387.465C346.961 387.135 346.572 386.97 346.081 386.97ZM351.375 386.132L351.407 386.894C351.91 386.301 352.59 386.005 353.444 386.005C354.405 386.005 355.059 386.373 355.406 387.109C355.634 386.779 355.931 386.513 356.294 386.31C356.663 386.106 357.096 386.005 357.596 386.005C359.102 386.005 359.868 386.803 359.894 388.398V393H358.719V388.468C358.719 387.977 358.607 387.611 358.383 387.37C358.159 387.124 357.782 387.001 357.253 387.001C356.817 387.001 356.455 387.133 356.167 387.395C355.88 387.653 355.713 388.002 355.666 388.442V393H354.485V388.5C354.485 387.501 353.997 387.001 353.019 387.001C352.249 387.001 351.722 387.329 351.438 387.985V393H350.264V386.132H351.375ZM366.482 387.808H367.365C367.919 387.799 368.355 387.653 368.672 387.37C368.99 387.086 369.148 386.703 369.148 386.221C369.148 385.137 368.609 384.596 367.53 384.596C367.022 384.596 366.616 384.742 366.311 385.034C366.011 385.321 365.86 385.704 365.86 386.183H364.686C364.686 385.451 364.953 384.843 365.486 384.361C366.023 383.874 366.705 383.631 367.53 383.631C368.402 383.631 369.085 383.861 369.58 384.323C370.075 384.784 370.323 385.425 370.323 386.246C370.323 386.648 370.192 387.037 369.929 387.414C369.671 387.791 369.318 388.072 368.869 388.258C369.377 388.419 369.768 388.686 370.043 389.058C370.323 389.431 370.462 389.885 370.462 390.423C370.462 391.252 370.192 391.91 369.65 392.397C369.108 392.884 368.404 393.127 367.536 393.127C366.669 393.127 365.962 392.892 365.416 392.422C364.874 391.953 364.604 391.333 364.604 390.562H365.784C365.784 391.049 365.943 391.438 366.26 391.73C366.578 392.022 367.003 392.168 367.536 392.168C368.103 392.168 368.537 392.02 368.837 391.724C369.138 391.428 369.288 391.003 369.288 390.448C369.288 389.911 369.123 389.498 368.793 389.21C368.463 388.923 367.987 388.775 367.365 388.766H366.482V387.808Z" fill="white"/>
<path d="M453.074 393H451.855V383.758H453.074V393ZM456.717 384.469V386.132H458V387.04H456.717V391.299C456.717 391.574 456.774 391.781 456.889 391.921C457.003 392.056 457.198 392.124 457.473 392.124C457.608 392.124 457.794 392.099 458.031 392.048V393C457.722 393.085 457.422 393.127 457.13 393.127C456.605 393.127 456.209 392.968 455.943 392.651C455.676 392.333 455.543 391.883 455.543 391.299V387.04H454.292V386.132H455.543V384.469H456.717ZM462.227 393.127C461.296 393.127 460.539 392.822 459.955 392.213C459.371 391.599 459.079 390.78 459.079 389.756V389.541C459.079 388.859 459.208 388.252 459.466 387.719C459.728 387.181 460.092 386.762 460.558 386.462C461.027 386.157 461.535 386.005 462.081 386.005C462.974 386.005 463.668 386.299 464.163 386.887C464.658 387.475 464.906 388.318 464.906 389.414V389.902H460.253C460.27 390.579 460.467 391.127 460.843 391.546C461.224 391.961 461.707 392.168 462.291 392.168C462.705 392.168 463.056 392.084 463.344 391.915C463.632 391.745 463.884 391.521 464.1 391.242L464.817 391.8C464.241 392.685 463.378 393.127 462.227 393.127ZM462.081 386.97C461.607 386.97 461.209 387.143 460.888 387.49C460.566 387.833 460.367 388.315 460.291 388.938H463.731V388.849C463.698 388.252 463.537 387.791 463.249 387.465C462.961 387.135 462.572 386.97 462.081 386.97ZM467.375 386.132L467.407 386.894C467.91 386.301 468.59 386.005 469.444 386.005C470.405 386.005 471.059 386.373 471.406 387.109C471.634 386.779 471.931 386.513 472.294 386.31C472.663 386.106 473.096 386.005 473.596 386.005C475.102 386.005 475.868 386.803 475.894 388.398V393H474.719V388.468C474.719 387.977 474.607 387.611 474.383 387.37C474.159 387.124 473.782 387.001 473.253 387.001C472.817 387.001 472.455 387.133 472.167 387.395C471.88 387.653 471.713 388.002 471.666 388.442V393H470.485V388.5C470.485 387.501 469.997 387.001 469.019 387.001C468.249 387.001 467.722 387.329 467.438 387.985V393H466.264V386.132H467.375ZM485.732 389.896H487.015V390.854H485.732V393H484.552V390.854H480.343V390.163L484.482 383.758H485.732V389.896ZM481.676 389.896H484.552V385.364L484.412 385.618L481.676 389.896Z" fill="white"/>
<path d="M664.574 393H663.355V383.758H664.574V393ZM668.217 384.469V386.132H669.5V387.04H668.217V391.299C668.217 391.574 668.274 391.781 668.389 391.921C668.503 392.056 668.698 392.124 668.973 392.124C669.108 392.124 669.294 392.099 669.531 392.048V393C669.222 393.085 668.922 393.127 668.63 393.127C668.105 393.127 667.709 392.968 667.443 392.651C667.176 392.333 667.043 391.883 667.043 391.299V387.04H665.792V386.132H667.043V384.469H668.217ZM673.727 393.127C672.796 393.127 672.039 392.822 671.455 392.213C670.871 391.599 670.579 390.78 670.579 389.756V389.541C670.579 388.859 670.708 388.252 670.966 387.719C671.228 387.181 671.592 386.762 672.058 386.462C672.527 386.157 673.035 386.005 673.581 386.005C674.474 386.005 675.168 386.299 675.663 386.887C676.158 387.475 676.406 388.318 676.406 389.414V389.902H671.753C671.77 390.579 671.967 391.127 672.343 391.546C672.724 391.961 673.207 392.168 673.791 392.168C674.205 392.168 674.556 392.084 674.844 391.915C675.132 391.745 675.384 391.521 675.6 391.242L676.317 391.8C675.741 392.685 674.878 393.127 673.727 393.127ZM673.581 386.97C673.107 386.97 672.709 387.143 672.388 387.49C672.066 387.833 671.867 388.315 671.791 388.938H675.231V388.849C675.198 388.252 675.037 387.791 674.749 387.465C674.461 387.135 674.072 386.97 673.581 386.97ZM678.875 386.132L678.907 386.894C679.41 386.301 680.09 386.005 680.944 386.005C681.905 386.005 682.559 386.373 682.906 387.109C683.134 386.779 683.431 386.513 683.794 386.31C684.163 386.106 684.596 386.005 685.096 386.005C686.602 386.005 687.368 386.803 687.394 388.398V393H686.219V388.468C686.219 387.977 686.107 387.611 685.883 387.37C685.659 387.124 685.282 387.001 684.753 387.001C684.317 387.001 683.955 387.133 683.667 387.395C683.38 387.653 683.213 388.002 683.166 388.442V393H681.985V388.5C681.985 387.501 681.497 387.001 680.519 387.001C679.749 387.001 679.222 387.329 678.938 387.985V393H677.764V386.132H678.875ZM696.883 383.751V384.748H696.667C695.753 384.765 695.026 385.036 694.484 385.561C693.942 386.085 693.629 386.824 693.544 387.776C694.031 387.217 694.695 386.938 695.538 386.938C696.342 386.938 696.983 387.222 697.461 387.789C697.943 388.356 698.185 389.088 698.185 389.985C698.185 390.937 697.924 391.699 697.404 392.27C696.888 392.841 696.194 393.127 695.322 393.127C694.437 393.127 693.72 392.788 693.17 392.111C692.62 391.43 692.345 390.554 692.345 389.483V389.033C692.345 387.332 692.707 386.032 693.43 385.135C694.158 384.234 695.239 383.773 696.674 383.751H696.883ZM695.341 387.916C694.939 387.916 694.569 388.036 694.23 388.277C693.891 388.519 693.657 388.821 693.525 389.185V389.617C693.525 390.378 693.697 390.992 694.04 391.458C694.382 391.923 694.81 392.156 695.322 392.156C695.851 392.156 696.265 391.961 696.566 391.572C696.871 391.182 697.023 390.673 697.023 390.042C697.023 389.407 696.868 388.895 696.56 388.506C696.255 388.112 695.849 387.916 695.341 387.916Z" fill="white"/>
<path d="M568.074 393H566.855V383.758H568.074V393ZM571.717 384.469V386.132H573V387.04H571.717V391.299C571.717 391.574 571.774 391.781 571.889 391.921C572.003 392.056 572.198 392.124 572.473 392.124C572.608 392.124 572.794 392.099 573.031 392.048V393C572.722 393.085 572.422 393.127 572.13 393.127C571.605 393.127 571.209 392.968 570.943 392.651C570.676 392.333 570.543 391.883 570.543 391.299V387.04H569.292V386.132H570.543V384.469H571.717ZM577.227 393.127C576.296 393.127 575.539 392.822 574.955 392.213C574.371 391.599 574.079 390.78 574.079 389.756V389.541C574.079 388.859 574.208 388.252 574.466 387.719C574.728 387.181 575.092 386.762 575.558 386.462C576.027 386.157 576.535 386.005 577.081 386.005C577.974 386.005 578.668 386.299 579.163 386.887C579.658 387.475 579.906 388.318 579.906 389.414V389.902H575.253C575.27 390.579 575.467 391.127 575.843 391.546C576.224 391.961 576.707 392.168 577.291 392.168C577.705 392.168 578.056 392.084 578.344 391.915C578.632 391.745 578.884 391.521 579.1 391.242L579.817 391.8C579.241 392.685 578.378 393.127 577.227 393.127ZM577.081 386.97C576.607 386.97 576.209 387.143 575.888 387.49C575.566 387.833 575.367 388.315 575.291 388.938H578.731V388.849C578.698 388.252 578.537 387.791 578.249 387.465C577.961 387.135 577.572 386.97 577.081 386.97ZM582.375 386.132L582.407 386.894C582.91 386.301 583.59 386.005 584.444 386.005C585.405 386.005 586.059 386.373 586.406 387.109C586.634 386.779 586.931 386.513 587.294 386.31C587.663 386.106 588.096 386.005 588.596 386.005C590.102 386.005 590.868 386.803 590.894 388.398V393H589.719V388.468C589.719 387.977 589.607 387.611 589.383 387.37C589.159 387.124 588.782 387.001 588.253 387.001C587.817 387.001 587.455 387.133 587.167 387.395C586.88 387.653 586.713 388.002 586.666 388.442V393H585.485V388.5C585.485 387.501 584.997 387.001 584.019 387.001C583.249 387.001 582.722 387.329 582.438 387.985V393H581.264V386.132H582.375ZM596.314 388.366L596.784 383.758H601.52V384.843H597.781L597.501 387.363C597.954 387.097 598.468 386.963 599.044 386.963C599.886 386.963 600.555 387.243 601.05 387.801C601.545 388.356 601.792 389.107 601.792 390.055C601.792 391.007 601.534 391.758 601.018 392.308C600.506 392.854 599.789 393.127 598.866 393.127C598.049 393.127 597.383 392.901 596.867 392.448C596.35 391.995 596.056 391.369 595.984 390.569H597.095C597.167 391.098 597.355 391.498 597.66 391.769C597.965 392.035 598.367 392.168 598.866 392.168C599.412 392.168 599.84 391.982 600.148 391.61C600.462 391.237 600.618 390.723 600.618 390.067C600.618 389.45 600.449 388.954 600.11 388.582C599.776 388.205 599.33 388.017 598.771 388.017C598.259 388.017 597.857 388.129 597.565 388.354L597.254 388.607L596.314 388.366Z" fill="white"/>
<path fill-rule="evenodd" clip-rule="evenodd" d="M69 73H749V74H69V73Z" fill="#373747"/>
<path fill-rule="evenodd" clip-rule="evenodd" d="M69 122H749V123H69V122Z" fill="#373747"/>
<path fill-rule="evenodd" clip-rule="evenodd" d="M69 171H749V172H69V171Z" fill="#373747"/>
<path fill-rule="evenodd" clip-rule="evenodd" d="M69 220H749V221H69V220Z" fill="#373747"/>
<path fill-rule="evenodd" clip-rule="evenodd" d="M69 269H749V270H69V269Z" fill="#373747"/>
<path fill-rule="evenodd" clip-rule="evenodd" d="M69 318H749V319H69V318Z" fill="#373747"/>
<path fill-rule="evenodd" clip-rule="evenodd" d="M69 367H749V368H69V367Z" fill="#373747"/>
<path d="M102.308 85.3662L102.777 80.7578H107.513V81.8433H103.774L103.495 84.3633C103.947 84.0967 104.462 83.9634 105.037 83.9634C105.879 83.9634 106.548 84.2427 107.043 84.8013C107.538 85.3556 107.786 86.1068 107.786 87.0547C107.786 88.0068 107.528 88.758 107.011 89.3081C106.499 89.854 105.782 90.127 104.859 90.127C104.043 90.127 103.376 89.9006 102.86 89.4478C102.344 88.995 102.049 88.3687 101.978 87.5688H103.088C103.16 88.0978 103.349 88.4977 103.653 88.7686C103.958 89.0352 104.36 89.1685 104.859 89.1685C105.405 89.1685 105.833 88.9823 106.142 88.6099C106.455 88.2375 106.611 87.7233 106.611 87.0674C106.611 86.4495 106.442 85.9544 106.104 85.582C105.769 85.2054 105.323 85.0171 104.764 85.0171C104.252 85.0171 103.85 85.1292 103.558 85.3535L103.247 85.6074L102.308 85.3662ZM113.676 80.7515V81.748H113.46C112.546 81.765 111.819 82.0358 111.277 82.5605C110.735 83.0853 110.422 83.8237 110.337 84.7759C110.824 84.2173 111.488 83.938 112.331 83.938C113.135 83.938 113.776 84.2215 114.254 84.7886C114.736 85.3556 114.978 86.0877 114.978 86.9849C114.978 87.937 114.717 88.6987 114.197 89.27C113.681 89.8413 112.986 90.127 112.115 90.127C111.23 90.127 110.513 89.7884 109.963 89.1113C109.413 88.43 109.138 87.554 109.138 86.4834V86.0327C109.138 84.3315 109.5 83.0324 110.223 82.1353C110.951 81.2339 112.032 80.7726 113.467 80.7515H113.676ZM112.134 84.9155C111.732 84.9155 111.361 85.0361 111.023 85.2773C110.684 85.5186 110.45 85.8211 110.318 86.1851V86.6167C110.318 87.3784 110.49 87.992 110.833 88.4575C111.175 88.923 111.603 89.1558 112.115 89.1558C112.644 89.1558 113.058 88.9611 113.359 88.5718C113.664 88.1825 113.816 87.6725 113.816 87.042C113.816 86.4072 113.661 85.8952 113.353 85.5059C113.048 85.1123 112.642 84.9155 112.134 84.9155ZM116.514 89.3843C116.514 89.1812 116.573 89.0119 116.691 88.8765C116.814 88.741 116.996 88.6733 117.237 88.6733C117.479 88.6733 117.66 88.741 117.783 88.8765C117.91 89.0119 117.974 89.1812 117.974 89.3843C117.974 89.5789 117.91 89.7419 117.783 89.873C117.66 90.0042 117.479 90.0698 117.237 90.0698C116.996 90.0698 116.814 90.0042 116.691 89.873C116.573 89.7419 116.514 89.5789 116.514 89.3843ZM121.503 84.8076H122.385C122.94 84.7992 123.375 84.6532 123.693 84.3696C124.01 84.0861 124.169 83.7031 124.169 83.2207C124.169 82.1374 123.629 81.5957 122.55 81.5957C122.042 81.5957 121.636 81.7417 121.332 82.0337C121.031 82.3215 120.881 82.7044 120.881 83.1826H119.707C119.707 82.4505 119.973 81.8433 120.506 81.3608C121.044 80.8742 121.725 80.6309 122.55 80.6309C123.422 80.6309 124.105 80.8615 124.601 81.3228C125.096 81.784 125.343 82.4251 125.343 83.2461C125.343 83.6481 125.212 84.0374 124.95 84.4141C124.692 84.7907 124.338 85.0721 123.89 85.2583C124.397 85.4191 124.789 85.6857 125.064 86.0581C125.343 86.4305 125.483 86.8854 125.483 87.4229C125.483 88.2523 125.212 88.9103 124.67 89.397C124.129 89.8836 123.424 90.127 122.557 90.127C121.689 90.127 120.982 89.8921 120.437 89.4224C119.895 88.9526 119.624 88.3327 119.624 87.5625H120.805C120.805 88.0492 120.963 88.4385 121.281 88.7305C121.598 89.0225 122.023 89.1685 122.557 89.1685C123.124 89.1685 123.557 89.0203 123.858 88.7241C124.158 88.4279 124.309 88.0026 124.309 87.4482C124.309 86.9108 124.144 86.4982 123.813 86.2104C123.483 85.9227 123.007 85.7746 122.385 85.7661H121.503V84.8076ZM126.994 82.5352C126.994 81.9808 127.169 81.5238 127.521 81.1641C127.876 80.8044 128.331 80.6245 128.885 80.6245C129.448 80.6245 129.903 80.8065 130.25 81.1704C130.601 81.5301 130.777 81.9977 130.777 82.5732V83.0239C130.777 83.5825 130.599 84.0396 130.244 84.395C129.892 84.7463 129.444 84.9219 128.898 84.9219C128.348 84.9219 127.893 84.7463 127.533 84.395C127.174 84.0396 126.994 83.5677 126.994 82.9795V82.5352ZM127.87 83.0239C127.87 83.354 127.963 83.627 128.149 83.8428C128.335 84.0544 128.585 84.1602 128.898 84.1602C129.198 84.1602 129.44 84.0565 129.622 83.8491C129.808 83.6418 129.901 83.3582 129.901 82.9985V82.5352C129.901 82.2051 129.81 81.9321 129.628 81.7163C129.446 81.5005 129.198 81.3926 128.885 81.3926C128.572 81.3926 128.325 81.5005 128.143 81.7163C127.961 81.9321 127.87 82.2135 127.87 82.5605V83.0239ZM131.494 87.7339C131.494 87.1795 131.67 86.7246 132.021 86.3691C132.376 86.0094 132.831 85.8296 133.386 85.8296C133.94 85.8296 134.395 86.0073 134.75 86.3628C135.106 86.7183 135.284 87.1901 135.284 87.7783V88.229C135.284 88.7834 135.106 89.2404 134.75 89.6001C134.399 89.9556 133.949 90.1333 133.398 90.1333C132.848 90.1333 132.393 89.9577 132.034 89.6064C131.674 89.251 131.494 88.7791 131.494 88.1909V87.7339ZM132.37 88.229C132.37 88.5633 132.463 88.8384 132.649 89.0542C132.836 89.2658 133.085 89.3716 133.398 89.3716C133.703 89.3716 133.946 89.2679 134.128 89.0605C134.31 88.849 134.401 88.5633 134.401 88.2036V87.7339C134.401 87.3996 134.308 87.1266 134.122 86.915C133.94 86.7035 133.695 86.5977 133.386 86.5977C133.085 86.5977 132.84 86.7035 132.649 86.915C132.463 87.1224 132.37 87.4038 132.37 87.7593V88.229ZM129.165 89.3018L128.498 88.8828L133.011 81.6592L133.678 82.0781L129.165 89.3018Z" fill="white"/>
<path d="M226.824 247H220.768V246.156L223.967 242.601C224.441 242.064 224.767 241.628 224.945 241.293C225.127 240.955 225.218 240.606 225.218 240.246C225.218 239.764 225.072 239.368 224.78 239.059C224.488 238.75 224.098 238.596 223.612 238.596C223.028 238.596 222.573 238.763 222.247 239.097C221.925 239.427 221.765 239.889 221.765 240.481H220.59C220.59 239.63 220.863 238.943 221.409 238.418C221.959 237.893 222.694 237.631 223.612 237.631C224.471 237.631 225.15 237.857 225.649 238.31C226.149 238.759 226.398 239.357 226.398 240.106C226.398 241.016 225.819 242.1 224.659 243.356L222.184 246.042H226.824V247ZM233.025 243.896H234.308V244.854H233.025V247H231.845V244.854H227.636V244.163L231.775 237.758H233.025V243.896ZM228.969 243.896H231.845V239.364L231.705 239.618L228.969 243.896ZM235.514 246.384C235.514 246.181 235.573 246.012 235.691 245.876C235.814 245.741 235.996 245.673 236.237 245.673C236.479 245.673 236.66 245.741 236.783 245.876C236.91 246.012 236.974 246.181 236.974 246.384C236.974 246.579 236.91 246.742 236.783 246.873C236.66 247.004 236.479 247.07 236.237 247.07C235.996 247.07 235.814 247.004 235.691 246.873C235.573 246.742 235.514 246.579 235.514 246.384ZM244.591 243.058C244.591 244.433 244.356 245.455 243.886 246.124C243.417 246.793 242.682 247.127 241.684 247.127C240.698 247.127 239.968 246.801 239.494 246.149C239.02 245.493 238.774 244.516 238.757 243.217V241.649C238.757 240.291 238.992 239.281 239.462 238.621C239.932 237.961 240.668 237.631 241.671 237.631C242.665 237.631 243.397 237.95 243.867 238.589C244.337 239.224 244.578 240.206 244.591 241.535V243.058ZM243.417 241.452C243.417 240.458 243.277 239.734 242.998 239.281C242.718 238.824 242.276 238.596 241.671 238.596C241.07 238.596 240.632 238.822 240.357 239.275C240.082 239.728 239.94 240.424 239.932 241.363V243.242C239.932 244.241 240.076 244.979 240.363 245.458C240.655 245.931 241.095 246.168 241.684 246.168C242.263 246.168 242.693 245.944 242.972 245.496C243.256 245.047 243.404 244.34 243.417 243.375V241.452ZM245.994 239.535C245.994 238.981 246.169 238.524 246.521 238.164C246.876 237.804 247.331 237.625 247.885 237.625C248.448 237.625 248.903 237.806 249.25 238.17C249.601 238.53 249.777 238.998 249.777 239.573V240.024C249.777 240.583 249.599 241.04 249.244 241.395C248.892 241.746 248.444 241.922 247.898 241.922C247.348 241.922 246.893 241.746 246.533 241.395C246.174 241.04 245.994 240.568 245.994 239.979V239.535ZM246.87 240.024C246.87 240.354 246.963 240.627 247.149 240.843C247.335 241.054 247.585 241.16 247.898 241.16C248.198 241.16 248.44 241.056 248.622 240.849C248.808 240.642 248.901 240.358 248.901 239.999V239.535C248.901 239.205 248.81 238.932 248.628 238.716C248.446 238.5 248.198 238.393 247.885 238.393C247.572 238.393 247.325 238.5 247.143 238.716C246.961 238.932 246.87 239.214 246.87 239.561V240.024ZM250.494 244.734C250.494 244.18 250.67 243.725 251.021 243.369C251.376 243.009 251.831 242.83 252.386 242.83C252.94 242.83 253.395 243.007 253.75 243.363C254.106 243.718 254.284 244.19 254.284 244.778V245.229C254.284 245.783 254.106 246.24 253.75 246.6C253.399 246.956 252.949 247.133 252.398 247.133C251.848 247.133 251.393 246.958 251.034 246.606C250.674 246.251 250.494 245.779 250.494 245.191V244.734ZM251.37 245.229C251.37 245.563 251.463 245.838 251.649 246.054C251.836 246.266 252.085 246.372 252.398 246.372C252.703 246.372 252.946 246.268 253.128 246.061C253.31 245.849 253.401 245.563 253.401 245.204V244.734C253.401 244.4 253.308 244.127 253.122 243.915C252.94 243.703 252.695 243.598 252.386 243.598C252.085 243.598 251.84 243.703 251.649 243.915C251.463 244.122 251.37 244.404 251.37 244.759V245.229ZM248.165 246.302L247.498 245.883L252.011 238.659L252.678 239.078L248.165 246.302Z" fill="white"/>
<path d="M339.627 312H338.447V304.173L336.079 305.043V303.977L339.443 302.713H339.627V312ZM348.863 308.058C348.863 309.433 348.628 310.455 348.159 311.124C347.689 311.793 346.955 312.127 345.956 312.127C344.97 312.127 344.24 311.801 343.766 311.149C343.292 310.493 343.047 309.516 343.03 308.217V306.649C343.03 305.291 343.265 304.281 343.734 303.621C344.204 302.961 344.94 302.631 345.943 302.631C346.938 302.631 347.67 302.95 348.14 303.589C348.609 304.224 348.851 305.206 348.863 306.535V308.058ZM347.689 306.452C347.689 305.458 347.549 304.734 347.27 304.281C346.991 303.824 346.549 303.596 345.943 303.596C345.342 303.596 344.904 303.822 344.629 304.275C344.354 304.728 344.213 305.424 344.204 306.363V308.242C344.204 309.241 344.348 309.979 344.636 310.458C344.928 310.931 345.368 311.168 345.956 311.168C346.536 311.168 346.965 310.944 347.245 310.496C347.528 310.047 347.676 309.34 347.689 308.375V306.452ZM350.514 311.384C350.514 311.181 350.573 311.012 350.691 310.876C350.814 310.741 350.996 310.673 351.237 310.673C351.479 310.673 351.66 310.741 351.783 310.876C351.91 311.012 351.974 311.181 351.974 311.384C351.974 311.579 351.91 311.742 351.783 311.873C351.66 312.004 351.479 312.07 351.237 312.07C350.996 312.07 350.814 312.004 350.691 311.873C350.573 311.742 350.514 311.579 350.514 311.384ZM358.753 308.896H360.035V309.854H358.753V312H357.572V309.854H353.364V309.163L357.502 302.758H358.753V308.896ZM354.697 308.896H357.572V304.364L357.433 304.618L354.697 308.896ZM360.994 304.535C360.994 303.981 361.169 303.524 361.521 303.164C361.876 302.804 362.331 302.625 362.885 302.625C363.448 302.625 363.903 302.806 364.25 303.17C364.601 303.53 364.777 303.998 364.777 304.573V305.024C364.777 305.583 364.599 306.04 364.244 306.395C363.892 306.746 363.444 306.922 362.898 306.922C362.348 306.922 361.893 306.746 361.533 306.395C361.174 306.04 360.994 305.568 360.994 304.979V304.535ZM361.87 305.024C361.87 305.354 361.963 305.627 362.149 305.843C362.335 306.054 362.585 306.16 362.898 306.16C363.198 306.16 363.44 306.056 363.622 305.849C363.808 305.642 363.901 305.358 363.901 304.999V304.535C363.901 304.205 363.81 303.932 363.628 303.716C363.446 303.5 363.198 303.393 362.885 303.393C362.572 303.393 362.325 303.5 362.143 303.716C361.961 303.932 361.87 304.214 361.87 304.561V305.024ZM365.494 309.734C365.494 309.18 365.67 308.725 366.021 308.369C366.376 308.009 366.831 307.83 367.386 307.83C367.94 307.83 368.395 308.007 368.75 308.363C369.106 308.718 369.284 309.19 369.284 309.778V310.229C369.284 310.783 369.106 311.24 368.75 311.6C368.399 311.956 367.949 312.133 367.398 312.133C366.848 312.133 366.393 311.958 366.034 311.606C365.674 311.251 365.494 310.779 365.494 310.191V309.734ZM366.37 310.229C366.37 310.563 366.463 310.838 366.649 311.054C366.836 311.266 367.085 311.372 367.398 311.372C367.703 311.372 367.946 311.268 368.128 311.061C368.31 310.849 368.401 310.563 368.401 310.204V309.734C368.401 309.4 368.308 309.127 368.122 308.915C367.94 308.703 367.695 308.598 367.386 308.598C367.085 308.598 366.84 308.703 366.649 308.915C366.463 309.122 366.37 309.404 366.37 309.759V310.229ZM363.165 311.302L362.498 310.883L367.011 303.659L367.678 304.078L363.165 311.302Z" fill="white"/>
<path d="M455.726 336.896H457.008V337.854H455.726V340H454.545V337.854H450.336V337.163L454.475 330.758H455.726V336.896ZM451.669 336.896H454.545V332.364L454.405 332.618L451.669 336.896ZM458.214 339.384C458.214 339.181 458.273 339.012 458.392 338.876C458.514 338.741 458.696 338.673 458.938 338.673C459.179 338.673 459.361 338.741 459.483 338.876C459.61 339.012 459.674 339.181 459.674 339.384C459.674 339.579 459.61 339.742 459.483 339.873C459.361 340.004 459.179 340.07 458.938 340.07C458.696 340.07 458.514 340.004 458.392 339.873C458.273 339.742 458.214 339.579 458.214 339.384ZM467.101 333.17C467.101 333.631 466.978 334.042 466.732 334.401C466.491 334.761 466.163 335.042 465.749 335.246C466.231 335.453 466.612 335.756 466.891 336.153C467.175 336.551 467.316 337.002 467.316 337.505C467.316 338.305 467.046 338.942 466.504 339.416C465.966 339.89 465.258 340.127 464.377 340.127C463.489 340.127 462.776 339.89 462.238 339.416C461.705 338.938 461.438 338.301 461.438 337.505C461.438 337.006 461.574 336.555 461.845 336.153C462.12 335.751 462.499 335.447 462.981 335.239C462.57 335.036 462.247 334.755 462.01 334.395C461.773 334.035 461.654 333.627 461.654 333.17C461.654 332.391 461.904 331.773 462.403 331.316C462.903 330.859 463.561 330.631 464.377 330.631C465.19 330.631 465.846 330.859 466.345 331.316C466.849 331.773 467.101 332.391 467.101 333.17ZM466.142 337.48C466.142 336.964 465.977 336.543 465.647 336.217C465.321 335.891 464.894 335.728 464.365 335.728C463.836 335.728 463.41 335.889 463.089 336.21C462.771 336.532 462.613 336.955 462.613 337.48C462.613 338.005 462.767 338.417 463.076 338.718C463.389 339.018 463.823 339.168 464.377 339.168C464.928 339.168 465.359 339.018 465.672 338.718C465.986 338.413 466.142 338 466.142 337.48ZM464.377 331.596C463.916 331.596 463.542 331.74 463.254 332.027C462.97 332.311 462.829 332.698 462.829 333.189C462.829 333.659 462.968 334.04 463.248 334.332C463.531 334.619 463.908 334.763 464.377 334.763C464.847 334.763 465.222 334.619 465.501 334.332C465.785 334.04 465.926 333.659 465.926 333.189C465.926 332.719 465.78 332.336 465.488 332.04C465.196 331.744 464.826 331.596 464.377 331.596ZM468.694 332.535C468.694 331.981 468.869 331.524 469.221 331.164C469.576 330.804 470.031 330.625 470.585 330.625C471.148 330.625 471.603 330.806 471.95 331.17C472.301 331.53 472.477 331.998 472.477 332.573V333.024C472.477 333.583 472.299 334.04 471.944 334.395C471.593 334.746 471.144 334.922 470.598 334.922C470.048 334.922 469.593 334.746 469.233 334.395C468.874 334.04 468.694 333.568 468.694 332.979V332.535ZM469.57 333.024C469.57 333.354 469.663 333.627 469.849 333.843C470.035 334.054 470.285 334.16 470.598 334.16C470.899 334.16 471.14 334.056 471.322 333.849C471.508 333.642 471.601 333.358 471.601 332.999V332.535C471.601 332.205 471.51 331.932 471.328 331.716C471.146 331.5 470.899 331.393 470.585 331.393C470.272 331.393 470.025 331.5 469.843 331.716C469.661 331.932 469.57 332.214 469.57 332.561V333.024ZM473.194 337.734C473.194 337.18 473.37 336.725 473.721 336.369C474.077 336.009 474.532 335.83 475.086 335.83C475.64 335.83 476.095 336.007 476.451 336.363C476.806 336.718 476.984 337.19 476.984 337.778V338.229C476.984 338.783 476.806 339.24 476.451 339.6C476.099 339.956 475.649 340.133 475.099 340.133C474.549 340.133 474.094 339.958 473.734 339.606C473.374 339.251 473.194 338.779 473.194 338.191V337.734ZM474.07 338.229C474.07 338.563 474.163 338.838 474.35 339.054C474.536 339.266 474.785 339.372 475.099 339.372C475.403 339.372 475.647 339.268 475.829 339.061C476.011 338.849 476.102 338.563 476.102 338.204V337.734C476.102 337.4 476.008 337.127 475.822 336.915C475.64 336.703 475.395 336.598 475.086 336.598C474.785 336.598 474.54 336.703 474.35 336.915C474.163 337.122 474.07 337.404 474.07 337.759V338.229ZM470.865 339.302L470.198 338.883L474.711 331.659L475.378 332.078L470.865 339.302Z" fill="white"/>
<path d="M574.563 354.058C574.563 355.433 574.329 356.455 573.859 357.124C573.389 357.793 572.655 358.127 571.656 358.127C570.67 358.127 569.94 357.801 569.466 357.149C568.992 356.493 568.747 355.516 568.73 354.217V352.649C568.73 351.291 568.965 350.281 569.435 349.621C569.904 348.961 570.641 348.631 571.644 348.631C572.638 348.631 573.37 348.95 573.84 349.589C574.31 350.224 574.551 351.206 574.563 352.535V354.058ZM573.389 352.452C573.389 351.458 573.25 350.734 572.97 350.281C572.691 349.824 572.249 349.596 571.644 349.596C571.043 349.596 570.605 349.822 570.33 350.275C570.055 350.728 569.913 351.424 569.904 352.363V354.242C569.904 355.241 570.048 355.979 570.336 356.458C570.628 356.931 571.068 357.168 571.656 357.168C572.236 357.168 572.666 356.944 572.945 356.496C573.228 356.047 573.376 355.34 573.389 354.375V352.452ZM576.214 357.384C576.214 357.181 576.273 357.012 576.392 356.876C576.514 356.741 576.696 356.673 576.938 356.673C577.179 356.673 577.361 356.741 577.483 356.876C577.61 357.012 577.674 357.181 577.674 357.384C577.674 357.579 577.61 357.742 577.483 357.873C577.361 358.004 577.179 358.07 576.938 358.07C576.696 358.07 576.514 358.004 576.392 357.873C576.273 357.742 576.214 357.579 576.214 357.384ZM583.996 353.938C583.751 354.229 583.457 354.464 583.114 354.642C582.775 354.82 582.403 354.909 581.997 354.909C581.463 354.909 580.998 354.778 580.6 354.515C580.207 354.253 579.902 353.885 579.686 353.411C579.47 352.932 579.362 352.406 579.362 351.83C579.362 351.212 579.479 350.656 579.711 350.161C579.948 349.666 580.283 349.287 580.714 349.024C581.146 348.762 581.65 348.631 582.225 348.631C583.139 348.631 583.859 348.974 584.383 349.659C584.912 350.34 585.177 351.271 585.177 352.452V352.795C585.177 354.593 584.821 355.907 584.11 356.737C583.399 357.562 582.327 357.985 580.892 358.006H580.664V357.016H580.911C581.88 356.999 582.625 356.747 583.146 356.261C583.666 355.77 583.95 354.995 583.996 353.938ZM582.187 353.938C582.581 353.938 582.942 353.817 583.272 353.576C583.607 353.334 583.85 353.036 584.002 352.681V352.211C584.002 351.441 583.835 350.814 583.501 350.332C583.167 349.85 582.743 349.608 582.231 349.608C581.715 349.608 581.3 349.807 580.987 350.205C580.674 350.599 580.518 351.119 580.518 351.767C580.518 352.397 580.668 352.918 580.968 353.328C581.273 353.734 581.679 353.938 582.187 353.938ZM586.694 350.535C586.694 349.981 586.869 349.524 587.221 349.164C587.576 348.804 588.031 348.625 588.585 348.625C589.148 348.625 589.603 348.806 589.95 349.17C590.301 349.53 590.477 349.998 590.477 350.573V351.024C590.477 351.583 590.299 352.04 589.944 352.395C589.593 352.746 589.144 352.922 588.598 352.922C588.048 352.922 587.593 352.746 587.233 352.395C586.874 352.04 586.694 351.568 586.694 350.979V350.535ZM587.57 351.024C587.57 351.354 587.663 351.627 587.849 351.843C588.035 352.054 588.285 352.16 588.598 352.16C588.899 352.16 589.14 352.056 589.322 351.849C589.508 351.642 589.601 351.358 589.601 350.999V350.535C589.601 350.205 589.51 349.932 589.328 349.716C589.146 349.5 588.899 349.393 588.585 349.393C588.272 349.393 588.025 349.5 587.843 349.716C587.661 349.932 587.57 350.214 587.57 350.561V351.024ZM591.194 355.734C591.194 355.18 591.37 354.725 591.721 354.369C592.077 354.009 592.532 353.83 593.086 353.83C593.64 353.83 594.095 354.007 594.451 354.363C594.806 354.718 594.984 355.19 594.984 355.778V356.229C594.984 356.783 594.806 357.24 594.451 357.6C594.099 357.956 593.649 358.133 593.099 358.133C592.549 358.133 592.094 357.958 591.734 357.606C591.374 357.251 591.194 356.779 591.194 356.191V355.734ZM592.07 356.229C592.07 356.563 592.163 356.838 592.35 357.054C592.536 357.266 592.785 357.372 593.099 357.372C593.403 357.372 593.647 357.268 593.829 357.061C594.011 356.849 594.102 356.563 594.102 356.204V355.734C594.102 355.4 594.008 355.127 593.822 354.915C593.64 354.703 593.395 354.598 593.086 354.598C592.785 354.598 592.54 354.703 592.35 354.915C592.163 355.122 592.07 355.404 592.07 355.759V356.229ZM588.865 357.302L588.198 356.883L592.711 349.659L593.378 350.078L588.865 357.302Z" fill="white"/>
<path d="M669.563 355.058C669.563 356.433 669.329 357.455 668.859 358.124C668.389 358.793 667.655 359.127 666.656 359.127C665.67 359.127 664.94 358.801 664.466 358.149C663.992 357.493 663.747 356.516 663.73 355.217V353.649C663.73 352.291 663.965 351.281 664.435 350.621C664.904 349.961 665.641 349.631 666.644 349.631C667.638 349.631 668.37 349.95 668.84 350.589C669.31 351.224 669.551 352.206 669.563 353.535V355.058ZM668.389 353.452C668.389 352.458 668.25 351.734 667.97 351.281C667.691 350.824 667.249 350.596 666.644 350.596C666.043 350.596 665.605 350.822 665.33 351.275C665.055 351.728 664.913 352.424 664.904 353.363V355.242C664.904 356.241 665.048 356.979 665.336 357.458C665.628 357.931 666.068 358.168 666.656 358.168C667.236 358.168 667.666 357.944 667.945 357.496C668.228 357.047 668.376 356.34 668.389 355.375V353.452ZM671.214 358.384C671.214 358.181 671.273 358.012 671.392 357.876C671.514 357.741 671.696 357.673 671.938 357.673C672.179 357.673 672.361 357.741 672.483 357.876C672.61 358.012 672.674 358.181 672.674 358.384C672.674 358.579 672.61 358.742 672.483 358.873C672.361 359.004 672.179 359.07 671.938 359.07C671.696 359.07 671.514 359.004 671.392 358.873C671.273 358.742 671.214 358.579 671.214 358.384ZM680.551 359H674.496V358.156L677.695 354.601C678.169 354.064 678.495 353.628 678.672 353.293C678.854 352.955 678.945 352.606 678.945 352.246C678.945 351.764 678.799 351.368 678.507 351.059C678.215 350.75 677.826 350.596 677.339 350.596C676.755 350.596 676.3 350.763 675.975 351.097C675.653 351.427 675.492 351.889 675.492 352.481H674.318C674.318 351.63 674.591 350.943 675.137 350.418C675.687 349.893 676.421 349.631 677.339 349.631C678.198 349.631 678.878 349.857 679.377 350.31C679.876 350.759 680.126 351.357 680.126 352.106C680.126 353.016 679.546 354.1 678.387 355.356L675.911 358.042H680.551V359ZM681.694 351.535C681.694 350.981 681.869 350.524 682.221 350.164C682.576 349.804 683.031 349.625 683.585 349.625C684.148 349.625 684.603 349.806 684.95 350.17C685.301 350.53 685.477 350.998 685.477 351.573V352.024C685.477 352.583 685.299 353.04 684.944 353.395C684.593 353.746 684.144 353.922 683.598 353.922C683.048 353.922 682.593 353.746 682.233 353.395C681.874 353.04 681.694 352.568 681.694 351.979V351.535ZM682.57 352.024C682.57 352.354 682.663 352.627 682.849 352.843C683.035 353.054 683.285 353.16 683.598 353.16C683.899 353.16 684.14 353.056 684.322 352.849C684.508 352.642 684.601 352.358 684.601 351.999V351.535C684.601 351.205 684.51 350.932 684.328 350.716C684.146 350.5 683.899 350.393 683.585 350.393C683.272 350.393 683.025 350.5 682.843 350.716C682.661 350.932 682.57 351.214 682.57 351.561V352.024ZM686.194 356.734C686.194 356.18 686.37 355.725 686.721 355.369C687.077 355.009 687.532 354.83 688.086 354.83C688.64 354.83 689.095 355.007 689.451 355.363C689.806 355.718 689.984 356.19 689.984 356.778V357.229C689.984 357.783 689.806 358.24 689.451 358.6C689.099 358.956 688.649 359.133 688.099 359.133C687.549 359.133 687.094 358.958 686.734 358.606C686.374 358.251 686.194 357.779 686.194 357.191V356.734ZM687.07 357.229C687.07 357.563 687.163 357.838 687.35 358.054C687.536 358.266 687.785 358.372 688.099 358.372C688.403 358.372 688.647 358.268 688.829 358.061C689.011 357.849 689.102 357.563 689.102 357.204V356.734C689.102 356.4 689.008 356.127 688.822 355.915C688.64 355.703 688.395 355.598 688.086 355.598C687.785 355.598 687.54 355.703 687.35 355.915C687.163 356.122 687.07 356.404 687.07 356.759V357.229ZM683.865 358.302L683.198 357.883L687.711 350.659L688.378 351.078L683.865 358.302Z" fill="white"/>
<path d="M50.468 75.208C50.756 75.208 51.016 75.162 51.248 75.07C51.484 74.978 51.684 74.85 51.848 74.686C52.016 74.522 52.144 74.328 52.232 74.104C52.324 73.88 52.37 73.636 52.37 73.372C52.37 73.092 52.326 72.84 52.238 72.616C52.15 72.388 52.024 72.196 51.86 72.04C51.7 71.88 51.508 71.758 51.284 71.674C51.06 71.59 50.814 71.548 50.546 71.548C50.258 71.548 49.998 71.598 49.766 71.698C49.534 71.794 49.336 71.926 49.172 72.094C49.012 72.258 48.888 72.45 48.8 72.67C48.716 72.886 48.674 73.112 48.674 73.348C48.674 73.624 48.714 73.876 48.794 74.104C48.874 74.332 48.99 74.528 49.142 74.692C49.298 74.856 49.486 74.984 49.706 75.076C49.93 75.164 50.184 75.208 50.468 75.208ZM49.844 70.624C49.768 70.72 49.694 70.814 49.622 70.906C49.554 70.994 49.488 71.082 49.424 71.17C49.628 71.03 49.852 70.922 50.096 70.846C50.34 70.77 50.606 70.732 50.894 70.732C51.242 70.732 51.57 70.79 51.878 70.906C52.186 71.018 52.454 71.184 52.682 71.404C52.914 71.62 53.098 71.888 53.234 72.208C53.37 72.524 53.438 72.886 53.438 73.294C53.438 73.69 53.366 74.058 53.222 74.398C53.078 74.738 52.876 75.034 52.616 75.286C52.36 75.538 52.05 75.736 51.686 75.88C51.326 76.024 50.928 76.096 50.492 76.096C50.06 76.096 49.668 76.028 49.316 75.892C48.964 75.752 48.664 75.556 48.416 75.304C48.172 75.048 47.982 74.74 47.846 74.38C47.714 74.016 47.648 73.61 47.648 73.162C47.648 72.786 47.73 72.386 47.894 71.962C48.062 71.534 48.328 71.078 48.692 70.594L50.876 67.66C50.932 67.588 51.008 67.528 51.104 67.48C51.204 67.428 51.318 67.402 51.446 67.402H52.394L49.844 70.624ZM60.5609 71.704C60.5609 72.456 60.4789 73.108 60.3149 73.66C60.1549 74.208 59.9349 74.662 59.6549 75.022C59.3749 75.382 59.0429 75.65 58.6589 75.826C58.2789 76.002 57.8709 76.09 57.4349 76.09C56.9949 76.09 56.5849 76.002 56.2049 75.826C55.8289 75.65 55.5009 75.382 55.2209 75.022C54.9409 74.662 54.7209 74.208 54.5609 73.66C54.4009 73.108 54.3209 72.456 54.3209 71.704C54.3209 70.952 54.4009 70.3 54.5609 69.748C54.7209 69.196 54.9409 68.74 55.2209 68.38C55.5009 68.016 55.8289 67.746 56.2049 67.57C56.5849 67.394 56.9949 67.306 57.4349 67.306C57.8709 67.306 58.2789 67.394 58.6589 67.57C59.0429 67.746 59.3749 68.016 59.6549 68.38C59.9349 68.74 60.1549 69.196 60.3149 69.748C60.4789 70.3 60.5609 70.952 60.5609 71.704ZM59.4509 71.704C59.4509 71.048 59.3949 70.498 59.2829 70.054C59.1749 69.606 59.0269 69.246 58.8389 68.974C58.6549 68.702 58.4409 68.508 58.1969 68.392C57.9529 68.272 57.6989 68.212 57.4349 68.212C57.1709 68.212 56.9169 68.272 56.6729 68.392C56.4289 68.508 56.2149 68.702 56.0309 68.974C55.8469 69.246 55.6989 69.606 55.5869 70.054C55.4789 70.498 55.4249 71.048 55.4249 71.704C55.4249 72.36 55.4789 72.91 55.5869 73.354C55.6989 73.798 55.8469 74.156 56.0309 74.428C56.2149 74.7 56.4289 74.896 56.6729 75.016C56.9169 75.132 57.1709 75.19 57.4349 75.19C57.6989 75.19 57.9529 75.132 58.1969 75.016C58.4409 74.896 58.6549 74.7 58.8389 74.428C59.0269 74.156 59.1749 73.798 59.2829 73.354C59.3949 72.91 59.4509 72.36 59.4509 71.704ZM49.172 119.648C49.62 119.552 50.032 119.504 50.408 119.504C50.856 119.504 51.252 119.57 51.596 119.702C51.94 119.834 52.226 120.016 52.454 120.248C52.686 120.48 52.86 120.754 52.976 121.07C53.096 121.386 53.156 121.73 53.156 122.102C53.156 122.558 53.076 122.97 52.916 123.338C52.76 123.706 52.542 124.022 52.262 124.286C51.986 124.546 51.66 124.746 51.284 124.886C50.908 125.026 50.502 125.096 50.066 125.096C49.814 125.096 49.572 125.07 49.34 125.018C49.108 124.97 48.89 124.904 48.686 124.82C48.486 124.736 48.3 124.64 48.128 124.532C47.956 124.424 47.804 124.31 47.672 124.19L48.002 123.734C48.074 123.63 48.168 123.578 48.284 123.578C48.364 123.578 48.454 123.61 48.554 123.674C48.654 123.734 48.776 123.802 48.92 123.878C49.064 123.954 49.232 124.024 49.424 124.088C49.62 124.148 49.852 124.178 50.12 124.178C50.42 124.178 50.69 124.13 50.93 124.034C51.17 123.938 51.376 123.802 51.548 123.626C51.72 123.446 51.852 123.232 51.944 122.984C52.036 122.736 52.082 122.458 52.082 122.15C52.082 121.882 52.042 121.64 51.962 121.424C51.886 121.208 51.768 121.024 51.608 120.872C51.452 120.72 51.256 120.602 51.02 120.518C50.784 120.434 50.508 120.392 50.192 120.392C49.976 120.392 49.75 120.41 49.514 120.446C49.282 120.482 49.044 120.54 48.8 120.62L48.128 120.422L48.818 116.402H52.892V116.87C52.892 117.022 52.844 117.148 52.748 117.248C52.656 117.344 52.496 117.392 52.268 117.392H49.568L49.172 119.648ZM60.5609 120.704C60.5609 121.456 60.4789 122.108 60.3149 122.66C60.1549 123.208 59.9349 123.662 59.6549 124.022C59.3749 124.382 59.0429 124.65 58.6589 124.826C58.2789 125.002 57.8709 125.09 57.4349 125.09C56.9949 125.09 56.5849 125.002 56.2049 124.826C55.8289 124.65 55.5009 124.382 55.2209 124.022C54.9409 123.662 54.7209 123.208 54.5609 122.66C54.4009 122.108 54.3209 121.456 54.3209 120.704C54.3209 119.952 54.4009 119.3 54.5609 118.748C54.7209 118.196 54.9409 117.74 55.2209 117.38C55.5009 117.016 55.8289 116.746 56.2049 116.57C56.5849 116.394 56.9949 116.306 57.4349 116.306C57.8709 116.306 58.2789 116.394 58.6589 116.57C59.0429 116.746 59.3749 117.016 59.6549 117.38C59.9349 117.74 60.1549 118.196 60.3149 118.748C60.4789 119.3 60.5609 119.952 60.5609 120.704ZM59.4509 120.704C59.4509 120.048 59.3949 119.498 59.2829 119.054C59.1749 118.606 59.0269 118.246 58.8389 117.974C58.6549 117.702 58.4409 117.508 58.1969 117.392C57.9529 117.272 57.6989 117.212 57.4349 117.212C57.1709 117.212 56.9169 117.272 56.6729 117.392C56.4289 117.508 56.2149 117.702 56.0309 117.974C55.8469 118.246 55.6989 118.606 55.5869 119.054C55.4789 119.498 55.4249 120.048 55.4249 120.704C55.4249 121.36 55.4789 121.91 55.5869 122.354C55.6989 122.798 55.8469 123.156 56.0309 123.428C56.2149 123.7 56.4289 123.896 56.6729 124.016C56.9169 124.132 57.1709 124.19 57.4349 124.19C57.6989 124.19 57.9529 124.132 58.1969 124.016C58.4409 123.896 58.6549 123.7 58.8389 123.428C59.0269 123.156 59.1749 122.798 59.2829 122.354C59.3949 121.91 59.4509 121.36 59.4509 120.704ZM51.38 170.898V167.352C51.38 167.248 51.384 167.134 51.392 167.01C51.4 166.886 51.412 166.76 51.428 166.632L48.296 170.898H51.38ZM53.618 170.898V171.51C53.618 171.574 53.598 171.628 53.558 171.672C53.522 171.716 53.464 171.738 53.384 171.738H52.316V174H51.38V171.738H47.564C47.484 171.738 47.414 171.716 47.354 171.672C47.298 171.624 47.262 171.566 47.246 171.498L47.138 170.952L51.32 165.402H52.316V170.898H53.618ZM60.5609 169.704C60.5609 170.456 60.4789 171.108 60.3149 171.66C60.1549 172.208 59.9349 172.662 59.6549 173.022C59.3749 173.382 59.0429 173.65 58.6589 173.826C58.2789 174.002 57.8709 174.09 57.4349 174.09C56.9949 174.09 56.5849 174.002 56.2049 173.826C55.8289 173.65 55.5009 173.382 55.2209 173.022C54.9409 172.662 54.7209 172.208 54.5609 171.66C54.4009 171.108 54.3209 170.456 54.3209 169.704C54.3209 168.952 54.4009 168.3 54.5609 167.748C54.7209 167.196 54.9409 166.74 55.2209 166.38C55.5009 166.016 55.8289 165.746 56.2049 165.57C56.5849 165.394 56.9949 165.306 57.4349 165.306C57.8709 165.306 58.2789 165.394 58.6589 165.57C59.0429 165.746 59.3749 166.016 59.6549 166.38C59.9349 166.74 60.1549 167.196 60.3149 167.748C60.4789 168.3 60.5609 168.952 60.5609 169.704ZM59.4509 169.704C59.4509 169.048 59.3949 168.498 59.2829 168.054C59.1749 167.606 59.0269 167.246 58.8389 166.974C58.6549 166.702 58.4409 166.508 58.1969 166.392C57.9529 166.272 57.6989 166.212 57.4349 166.212C57.1709 166.212 56.9169 166.272 56.6729 166.392C56.4289 166.508 56.2149 166.702 56.0309 166.974C55.8469 167.246 55.6989 167.606 55.5869 168.054C55.4789 168.498 55.4249 169.048 55.4249 169.704C55.4249 170.36 55.4789 170.91 55.5869 171.354C55.6989 171.798 55.8469 172.156 56.0309 172.428C56.2149 172.7 56.4289 172.896 56.6729 173.016C56.9169 173.132 57.1709 173.19 57.4349 173.19C57.6989 173.19 57.9529 173.132 58.1969 173.016C58.4409 172.896 58.6549 172.7 58.8389 172.428C59.0269 172.156 59.1749 171.798 59.2829 171.354C59.3949 170.91 59.4509 170.36 59.4509 169.704ZM47.78 216.73C47.836 216.338 47.944 215.992 48.104 215.692C48.264 215.388 48.466 215.134 48.71 214.93C48.958 214.726 49.24 214.572 49.556 214.468C49.876 214.36 50.22 214.306 50.588 214.306C50.952 214.306 51.288 214.358 51.596 214.462C51.904 214.566 52.168 214.714 52.388 214.906C52.612 215.098 52.786 215.33 52.91 215.602C53.034 215.874 53.096 216.176 53.096 216.508C53.096 216.78 53.06 217.024 52.988 217.24C52.92 217.452 52.82 217.638 52.688 217.798C52.56 217.958 52.404 218.094 52.22 218.206C52.036 218.318 51.83 218.41 51.602 218.482C52.162 218.626 52.582 218.874 52.862 219.226C53.146 219.574 53.288 220.01 53.288 220.534C53.288 220.93 53.212 221.286 53.06 221.602C52.912 221.918 52.708 222.188 52.448 222.412C52.188 222.632 51.884 222.802 51.536 222.922C51.192 223.038 50.822 223.096 50.426 223.096C49.97 223.096 49.58 223.04 49.256 222.928C48.932 222.812 48.658 222.654 48.434 222.454C48.21 222.254 48.026 222.018 47.882 221.746C47.738 221.47 47.616 221.172 47.516 220.852L47.978 220.66C48.098 220.608 48.214 220.594 48.326 220.618C48.442 220.642 48.526 220.708 48.578 220.816C48.63 220.928 48.694 221.062 48.77 221.218C48.85 221.374 48.958 221.524 49.094 221.668C49.23 221.812 49.402 221.934 49.61 222.034C49.822 222.134 50.09 222.184 50.414 222.184C50.714 222.184 50.976 222.136 51.2 222.04C51.428 221.94 51.616 221.812 51.764 221.656C51.916 221.5 52.03 221.326 52.106 221.134C52.182 220.942 52.22 220.752 52.22 220.564C52.22 220.332 52.19 220.12 52.13 219.928C52.07 219.736 51.958 219.57 51.794 219.43C51.63 219.29 51.404 219.18 51.116 219.1C50.832 219.02 50.466 218.98 50.018 218.98V218.206C50.386 218.202 50.698 218.162 50.954 218.086C51.214 218.01 51.424 217.906 51.584 217.774C51.748 217.642 51.866 217.484 51.938 217.3C52.014 217.116 52.052 216.912 52.052 216.688C52.052 216.44 52.012 216.224 51.932 216.04C51.856 215.856 51.75 215.704 51.614 215.584C51.478 215.464 51.316 215.374 51.128 215.314C50.944 215.254 50.744 215.224 50.528 215.224C50.312 215.224 50.11 215.256 49.922 215.32C49.738 215.384 49.574 215.474 49.43 215.59C49.29 215.702 49.172 215.836 49.076 215.992C48.98 216.148 48.912 216.32 48.872 216.508C48.82 216.648 48.754 216.742 48.674 216.79C48.598 216.834 48.486 216.846 48.338 216.826L47.78 216.73ZM60.5609 218.704C60.5609 219.456 60.4789 220.108 60.3149 220.66C60.1549 221.208 59.9349 221.662 59.6549 222.022C59.3749 222.382 59.0429 222.65 58.6589 222.826C58.2789 223.002 57.8709 223.09 57.4349 223.09C56.9949 223.09 56.5849 223.002 56.2049 222.826C55.8289 222.65 55.5009 222.382 55.2209 222.022C54.9409 221.662 54.7209 221.208 54.5609 220.66C54.4009 220.108 54.3209 219.456 54.3209 218.704C54.3209 217.952 54.4009 217.3 54.5609 216.748C54.7209 216.196 54.9409 215.74 55.2209 215.38C55.5009 215.016 55.8289 214.746 56.2049 214.57C56.5849 214.394 56.9949 214.306 57.4349 214.306C57.8709 214.306 58.2789 214.394 58.6589 214.57C59.0429 214.746 59.3749 215.016 59.6549 215.38C59.9349 215.74 60.1549 216.196 60.3149 216.748C60.4789 217.3 60.5609 217.952 60.5609 218.704ZM59.4509 218.704C59.4509 218.048 59.3949 217.498 59.2829 217.054C59.1749 216.606 59.0269 216.246 58.8389 215.974C58.6549 215.702 58.4409 215.508 58.1969 215.392C57.9529 215.272 57.6989 215.212 57.4349 215.212C57.1709 215.212 56.9169 215.272 56.6729 215.392C56.4289 215.508 56.2149 215.702 56.0309 215.974C55.8469 216.246 55.6989 216.606 55.5869 217.054C55.4789 217.498 55.4249 218.048 55.4249 218.704C55.4249 219.36 55.4789 219.91 55.5869 220.354C55.6989 220.798 55.8469 221.156 56.0309 221.428C56.2149 221.7 56.4289 221.896 56.6729 222.016C56.9169 222.132 57.1709 222.19 57.4349 222.19C57.6989 222.19 57.9529 222.132 58.1969 222.016C58.4409 221.896 58.6549 221.7 58.8389 221.428C59.0269 221.156 59.1749 220.798 59.2829 220.354C59.3949 219.91 59.4509 219.36 59.4509 218.704ZM52.922 270.986C53.038 270.986 53.13 271.02 53.198 271.088C53.266 271.156 53.3 271.244 53.3 271.352V272H47.564V271.634C47.564 271.558 47.58 271.48 47.612 271.4C47.644 271.32 47.694 271.246 47.762 271.178L50.516 268.412C50.744 268.18 50.952 267.958 51.14 267.746C51.328 267.53 51.488 267.314 51.62 267.098C51.752 266.882 51.854 266.664 51.926 266.444C51.998 266.22 52.034 265.982 52.034 265.73C52.034 265.478 51.994 265.258 51.914 265.07C51.834 264.878 51.724 264.72 51.584 264.596C51.448 264.472 51.286 264.38 51.098 264.32C50.91 264.256 50.708 264.224 50.492 264.224C50.272 264.224 50.07 264.256 49.886 264.32C49.702 264.384 49.538 264.474 49.394 264.59C49.254 264.702 49.136 264.836 49.04 264.992C48.944 265.148 48.876 265.32 48.836 265.508C48.788 265.648 48.722 265.742 48.638 265.79C48.558 265.834 48.444 265.846 48.296 265.826L47.738 265.73C47.794 265.338 47.902 264.992 48.062 264.692C48.226 264.388 48.43 264.134 48.674 263.93C48.922 263.726 49.204 263.572 49.52 263.468C49.836 263.36 50.178 263.306 50.546 263.306C50.91 263.306 51.25 263.36 51.566 263.468C51.882 263.576 52.156 263.734 52.388 263.942C52.62 264.146 52.802 264.396 52.934 264.692C53.066 264.988 53.132 265.324 53.132 265.7C53.132 266.02 53.084 266.318 52.988 266.594C52.892 266.866 52.762 267.126 52.598 267.374C52.434 267.622 52.244 267.864 52.028 268.1C51.816 268.336 51.59 268.574 51.35 268.814L49.082 271.13C49.242 271.086 49.404 271.052 49.568 271.028C49.732 271 49.89 270.986 50.042 270.986H52.922ZM60.5609 267.704C60.5609 268.456 60.4789 269.108 60.3149 269.66C60.1549 270.208 59.9349 270.662 59.6549 271.022C59.3749 271.382 59.0429 271.65 58.6589 271.826C58.2789 272.002 57.8709 272.09 57.4349 272.09C56.9949 272.09 56.5849 272.002 56.2049 271.826C55.8289 271.65 55.5009 271.382 55.2209 271.022C54.9409 270.662 54.7209 270.208 54.5609 269.66C54.4009 269.108 54.3209 268.456 54.3209 267.704C54.3209 266.952 54.4009 266.3 54.5609 265.748C54.7209 265.196 54.9409 264.74 55.2209 264.38C55.5009 264.016 55.8289 263.746 56.2049 263.57C56.5849 263.394 56.9949 263.306 57.4349 263.306C57.8709 263.306 58.2789 263.394 58.6589 263.57C59.0429 263.746 59.3749 264.016 59.6549 264.38C59.9349 264.74 60.1549 265.196 60.3149 265.748C60.4789 266.3 60.5609 266.952 60.5609 267.704ZM59.4509 267.704C59.4509 267.048 59.3949 266.498 59.2829 266.054C59.1749 265.606 59.0269 265.246 58.8389 264.974C58.6549 264.702 58.4409 264.508 58.1969 264.392C57.9529 264.272 57.6989 264.212 57.4349 264.212C57.1709 264.212 56.9169 264.272 56.6729 264.392C56.4289 264.508 56.2149 264.702 56.0309 264.974C55.8469 265.246 55.6989 265.606 55.5869 266.054C55.4789 266.498 55.4249 267.048 55.4249 267.704C55.4249 268.36 55.4789 268.91 55.5869 269.354C55.6989 269.798 55.8469 270.156 56.0309 270.428C56.2149 270.7 56.4289 270.896 56.6729 271.016C56.9169 271.132 57.1709 271.19 57.4349 271.19C57.6989 271.19 57.9529 271.132 58.1969 271.016C58.4409 270.896 58.6549 270.7 58.8389 270.428C59.0269 270.156 59.1749 269.798 59.2829 269.354C59.3949 268.91 59.4509 268.36 59.4509 267.704ZM53.108 320.184V321H48.5V320.184H50.342V314.322C50.342 314.146 50.348 313.968 50.36 313.788L48.83 315.102C48.778 315.146 48.726 315.174 48.674 315.186C48.622 315.194 48.574 315.194 48.53 315.186C48.486 315.178 48.444 315.162 48.404 315.138C48.368 315.114 48.34 315.088 48.32 315.06L47.984 314.598L50.546 312.384H51.416V320.184H53.108ZM60.5609 316.704C60.5609 317.456 60.4789 318.108 60.3149 318.66C60.1549 319.208 59.9349 319.662 59.6549 320.022C59.3749 320.382 59.0429 320.65 58.6589 320.826C58.2789 321.002 57.8709 321.09 57.4349 321.09C56.9949 321.09 56.5849 321.002 56.2049 320.826C55.8289 320.65 55.5009 320.382 55.2209 320.022C54.9409 319.662 54.7209 319.208 54.5609 318.66C54.4009 318.108 54.3209 317.456 54.3209 316.704C54.3209 315.952 54.4009 315.3 54.5609 314.748C54.7209 314.196 54.9409 313.74 55.2209 313.38C55.5009 313.016 55.8289 312.746 56.2049 312.57C56.5849 312.394 56.9949 312.306 57.4349 312.306C57.8709 312.306 58.2789 312.394 58.6589 312.57C59.0429 312.746 59.3749 313.016 59.6549 313.38C59.9349 313.74 60.1549 314.196 60.3149 314.748C60.4789 315.3 60.5609 315.952 60.5609 316.704ZM59.4509 316.704C59.4509 316.048 59.3949 315.498 59.2829 315.054C59.1749 314.606 59.0269 314.246 58.8389 313.974C58.6549 313.702 58.4409 313.508 58.1969 313.392C57.9529 313.272 57.6989 313.212 57.4349 313.212C57.1709 313.212 56.9169 313.272 56.6729 313.392C56.4289 313.508 56.2149 313.702 56.0309 313.974C55.8469 314.246 55.6989 314.606 55.5869 315.054C55.4789 315.498 55.4249 316.048 55.4249 316.704C55.4249 317.36 55.4789 317.91 55.5869 318.354C55.6989 318.798 55.8469 319.156 56.0309 319.428C56.2149 319.7 56.4289 319.896 56.6729 320.016C56.9169 320.132 57.1709 320.19 57.4349 320.19C57.6989 320.19 57.9529 320.132 58.1969 320.016C58.4409 319.896 58.6549 319.7 58.8389 319.428C59.0269 319.156 59.1749 318.798 59.2829 318.354C59.3949 317.91 59.4509 317.36 59.4509 316.704ZM53.6 365.704C53.6 366.456 53.518 367.108 53.354 367.66C53.194 368.208 52.974 368.662 52.694 369.022C52.414 369.382 52.082 369.65 51.698 369.826C51.318 370.002 50.91 370.09 50.474 370.09C50.034 370.09 49.624 370.002 49.244 369.826C48.868 369.65 48.54 369.382 48.26 369.022C47.98 368.662 47.76 368.208 47.6 367.66C47.44 367.108 47.36 366.456 47.36 365.704C47.36 364.952 47.44 364.3 47.6 363.748C47.76 363.196 47.98 362.74 48.26 362.38C48.54 362.016 48.868 361.746 49.244 361.57C49.624 361.394 50.034 361.306 50.474 361.306C50.91 361.306 51.318 361.394 51.698 361.57C52.082 361.746 52.414 362.016 52.694 362.38C52.974 362.74 53.194 363.196 53.354 363.748C53.518 364.3 53.6 364.952 53.6 365.704ZM52.49 365.704C52.49 365.048 52.434 364.498 52.322 364.054C52.214 363.606 52.066 363.246 51.878 362.974C51.694 362.702 51.48 362.508 51.236 362.392C50.992 362.272 50.738 362.212 50.474 362.212C50.21 362.212 49.956 362.272 49.712 362.392C49.468 362.508 49.254 362.702 49.07 362.974C48.886 363.246 48.738 363.606 48.626 364.054C48.518 364.498 48.464 365.048 48.464 365.704C48.464 366.36 48.518 366.91 48.626 367.354C48.738 367.798 48.886 368.156 49.07 368.428C49.254 368.7 49.468 368.896 49.712 369.016C49.956 369.132 50.21 369.19 50.474 369.19C50.738 369.19 50.992 369.132 51.236 369.016C51.48 368.896 51.694 368.7 51.878 368.428C52.066 368.156 52.214 367.798 52.322 367.354C52.434 366.91 52.49 366.36 52.49 365.704Z" fill="white"/>
<path fill-rule="evenodd" clip-rule="evenodd" d="M93 97H149V367H93V97Z" fill="#1E75FF"/>
<path fill-rule="evenodd" clip-rule="evenodd" d="M209 252H265V367H209V252Z" fill="#3DD598"/>
<path fill-rule="evenodd" clip-rule="evenodd" d="M325 318H381V367H325V318Z" fill="#FC5A5A"/>
<path fill-rule="evenodd" clip-rule="evenodd" d="M441 345H497V367H441V345Z" fill="#FFC542"/>
<path fill-rule="evenodd" clip-rule="evenodd" d="M556 364H612V367H556V364Z" fill="#525268"/>
<path d="M27.3813 292.868L19.7578 290.227V288.894L29 292.322V293.401L19.7578 296.822V295.496L27.3813 292.868ZM29 283.886C28.8646 283.953 28.6234 284.008 28.2764 284.051C28.8434 284.597 29.127 285.248 29.127 286.006C29.127 286.683 28.9365 287.239 28.5557 287.675C28.1706 288.107 27.6839 288.323 27.0957 288.323C26.3805 288.323 25.8262 288.052 25.4326 287.51C25.0348 286.964 24.8359 286.198 24.8359 285.212V284.07H24.2964C23.8859 284.07 23.5601 284.193 23.3188 284.438C23.0734 284.683 22.9507 285.045 22.9507 285.523C22.9507 285.942 23.0565 286.294 23.2681 286.577C23.4797 286.861 23.7357 287.002 24.0361 287.002V288.183C23.6934 288.183 23.3633 288.062 23.0459 287.821C22.7243 287.576 22.4704 287.246 22.2842 286.831C22.098 286.412 22.0049 285.953 22.0049 285.454C22.0049 284.662 22.2038 284.042 22.6016 283.594C22.9951 283.145 23.5389 282.912 24.2329 282.896H27.394C28.0246 282.896 28.526 282.815 28.8984 282.654H29V283.886ZM28.105 285.834C28.105 285.466 28.0098 285.117 27.8193 284.787C27.6289 284.457 27.3813 284.218 27.0767 284.07H25.6675V284.99C25.6675 286.429 26.0885 287.148 26.9307 287.148C27.2988 287.148 27.5866 287.026 27.7939 286.78C28.0013 286.535 28.105 286.22 28.105 285.834ZM29 279.779V280.953H19.25V279.779H29ZM28.3208 273.653C28.8582 274.11 29.127 274.781 29.127 275.666C29.127 276.398 28.9154 276.956 28.4922 277.341C28.0648 277.722 27.4342 277.915 26.6006 277.919H22.1318V276.745H26.5688C27.6099 276.745 28.1304 276.321 28.1304 275.475C28.1304 274.578 27.7961 273.981 27.1274 273.685H22.1318V272.511H29V273.628L28.3208 273.653ZM29.127 267.871C29.127 268.802 28.8223 269.559 28.2129 270.143C27.5993 270.727 26.7804 271.019 25.7563 271.019H25.5405C24.8592 271.019 24.252 270.89 23.7188 270.632C23.1813 270.369 22.7624 270.006 22.4619 269.54C22.1572 269.07 22.0049 268.562 22.0049 268.017C22.0049 267.124 22.299 266.43 22.8872 265.935C23.4754 265.439 24.3175 265.192 25.4136 265.192H25.9023V269.845C26.5794 269.828 27.1274 269.631 27.5464 269.254C27.9611 268.874 28.1685 268.391 28.1685 267.807C28.1685 267.392 28.0838 267.041 27.9146 266.753C27.7453 266.466 27.521 266.214 27.2417 265.998L27.8003 265.281C28.6847 265.856 29.127 266.72 29.127 267.871ZM22.9697 268.017C22.9697 268.491 23.1432 268.888 23.4902 269.21C23.833 269.532 24.3154 269.73 24.9375 269.807V266.366H24.8486C24.252 266.4 23.7907 266.561 23.4648 266.849C23.1348 267.136 22.9697 267.526 22.9697 268.017ZM25.5024 260.914C24.8296 260.914 24.2244 260.782 23.687 260.52C23.1496 260.253 22.7349 259.885 22.4429 259.416C22.1509 258.942 22.0049 258.402 22.0049 257.797C22.0049 256.862 22.3286 256.106 22.9761 255.531C23.6235 254.951 24.4847 254.661 25.5596 254.661H25.6421C26.3107 254.661 26.9116 254.79 27.4448 255.048C27.9738 255.302 28.3864 255.668 28.6826 256.146C28.9788 256.62 29.127 257.166 29.127 257.784C29.127 258.715 28.8032 259.471 28.1558 260.05C27.5083 260.626 26.6514 260.914 25.585 260.914H25.5024ZM25.6421 259.733C26.4038 259.733 27.0153 259.557 27.4766 259.206C27.9378 258.851 28.1685 258.377 28.1685 257.784C28.1685 257.188 27.9357 256.714 27.4702 256.362C27.0005 256.011 26.3446 255.835 25.5024 255.835C24.7492 255.835 24.1398 256.015 23.6743 256.375C23.2046 256.73 22.9697 257.204 22.9697 257.797C22.9697 258.377 23.2004 258.844 23.6616 259.2C24.1229 259.555 24.783 259.733 25.6421 259.733ZM29 252.611H23.0396V253.696H22.1318V252.611H21.4272C20.6909 252.611 20.1217 252.414 19.7197 252.021C19.3177 251.627 19.1167 251.07 19.1167 250.351C19.1167 250.08 19.1527 249.812 19.2246 249.545L20.1768 249.608C20.1387 249.807 20.1196 250.019 20.1196 250.243C20.1196 250.624 20.2318 250.918 20.4561 251.125C20.6761 251.333 20.9935 251.437 21.4082 251.437H22.1318V249.97H23.0396V251.437H29V252.611ZM27.4067 243.178L22.1318 241.477V240.277L29 242.74V243.635L22.1318 246.124V244.924L27.4067 243.178ZM29.127 236.386C29.127 237.317 28.8223 238.075 28.2129 238.659C27.5993 239.243 26.7804 239.535 25.7563 239.535H25.5405C24.8592 239.535 24.252 239.406 23.7188 239.147C23.1813 238.885 22.7624 238.521 22.4619 238.056C22.1572 237.586 22.0049 237.078 22.0049 236.532C22.0049 235.639 22.299 234.945 22.8872 234.45C23.4754 233.955 24.3175 233.708 25.4136 233.708H25.9023V238.36C26.5794 238.343 27.1274 238.147 27.5464 237.77C27.9611 237.389 28.1685 236.907 28.1685 236.323C28.1685 235.908 28.0838 235.557 27.9146 235.269C27.7453 234.981 27.521 234.729 27.2417 234.514L27.8003 233.796C28.6847 234.372 29.127 235.235 29.127 236.386ZM22.9697 236.532C22.9697 237.006 23.1432 237.404 23.4902 237.726C23.833 238.047 24.3154 238.246 24.9375 238.322V234.882H24.8486C24.252 234.916 23.7907 235.076 23.4648 235.364C23.1348 235.652 22.9697 236.041 22.9697 236.532ZM23.1855 229.023C23.1559 229.201 23.1411 229.393 23.1411 229.601C23.1411 230.371 23.4691 230.893 24.125 231.168H29V232.343H22.1318V231.2L22.9253 231.181C22.3117 230.796 22.0049 230.25 22.0049 229.543C22.0049 229.315 22.0345 229.141 22.0938 229.023H23.1855ZM20.4688 226.027H22.1318V224.745H23.0396V226.027H27.2988C27.5739 226.027 27.7813 225.97 27.9209 225.855C28.0563 225.741 28.124 225.547 28.124 225.271C28.124 225.136 28.0986 224.95 28.0479 224.713H29C29.0846 225.022 29.127 225.322 29.127 225.614C29.127 226.139 28.9683 226.535 28.6509 226.801C28.3335 227.068 27.8828 227.201 27.2988 227.201H23.0396V228.452H22.1318V227.201H20.4688V226.027ZM29 222.091V223.266H22.1318V222.091H29ZM20.3101 223.361C20.1196 223.361 19.9588 223.304 19.8276 223.189C19.6965 223.071 19.6309 222.897 19.6309 222.669C19.6309 222.44 19.6965 222.267 19.8276 222.148C19.9588 222.03 20.1196 221.971 20.3101 221.971C20.5005 221.971 20.6592 222.03 20.7861 222.148C20.9131 222.267 20.9766 222.44 20.9766 222.669C20.9766 222.897 20.9131 223.071 20.7861 223.189C20.6592 223.304 20.5005 223.361 20.3101 223.361ZM28.1685 217.451C28.1685 217.032 28.0415 216.666 27.7876 216.353C27.5337 216.04 27.2163 215.866 26.8354 215.833V214.722C27.229 214.743 27.6035 214.878 27.959 215.128C28.3145 215.378 28.598 215.712 28.8096 216.131C29.0212 216.546 29.127 216.986 29.127 217.451C29.127 218.386 28.8159 219.131 28.1938 219.686C27.5675 220.236 26.7127 220.511 25.6294 220.511H25.4326C24.764 220.511 24.1694 220.388 23.6489 220.143C23.1284 219.897 22.7243 219.546 22.4365 219.089C22.1488 218.628 22.0049 218.084 22.0049 217.458C22.0049 216.687 22.2355 216.048 22.6968 215.541C23.158 215.028 23.7568 214.756 24.4932 214.722V215.833C24.0488 215.866 23.6849 216.036 23.4014 216.34C23.1136 216.641 22.9697 217.013 22.9697 217.458C22.9697 218.054 23.1855 218.518 23.6172 218.848C24.0446 219.174 24.6646 219.336 25.4771 219.336H25.6992C26.4906 219.336 27.0999 219.174 27.5273 218.848C27.9548 218.522 28.1685 218.056 28.1685 217.451ZM29 209.161C28.8646 209.229 28.6234 209.284 28.2764 209.326C28.8434 209.872 29.127 210.524 29.127 211.281C29.127 211.958 28.9365 212.515 28.5557 212.951C28.1706 213.382 27.6839 213.598 27.0957 213.598C26.3805 213.598 25.8262 213.327 25.4326 212.786C25.0348 212.24 24.8359 211.474 24.8359 210.488V209.345H24.2964C23.8859 209.345 23.5601 209.468 23.3188 209.713C23.0734 209.959 22.9507 210.321 22.9507 210.799C22.9507 211.218 23.0565 211.569 23.2681 211.853C23.4797 212.136 23.7357 212.278 24.0361 212.278V213.458C23.6934 213.458 23.3633 213.338 23.0459 213.097C22.7243 212.851 22.4704 212.521 22.2842 212.106C22.098 211.688 22.0049 211.228 22.0049 210.729C22.0049 209.938 22.2038 209.318 22.6016 208.869C22.9951 208.421 23.5389 208.188 24.2329 208.171H27.394C28.0246 208.171 28.526 208.09 28.8984 207.93H29V209.161ZM28.105 211.11C28.105 210.742 28.0098 210.393 27.8193 210.062C27.6289 209.732 27.3813 209.493 27.0767 209.345H25.6675V210.266C25.6675 211.704 26.0885 212.424 26.9307 212.424C27.2988 212.424 27.5866 212.301 27.7939 212.056C28.0013 211.81 28.105 211.495 28.105 211.11ZM29 205.054V206.229H19.25V205.054H29Z" fill="#BDBDBD"/>
<path d="M34.1094 36.3086L35.832 27.2031H38.46L35.6211 40H32.9668L30.8838 31.4395L28.8008 40H26.1465L23.3076 27.2031H25.9355L27.667 36.291L29.7764 27.2031H32.0088L34.1094 36.3086ZM42.4062 40H39.8574V30.4902H42.4062V40ZM39.708 28.0293C39.708 27.6484 39.834 27.335 40.0859 27.0889C40.3438 26.8428 40.6924 26.7197 41.1318 26.7197C41.5654 26.7197 41.9111 26.8428 42.1689 27.0889C42.4268 27.335 42.5557 27.6484 42.5557 28.0293C42.5557 28.416 42.4238 28.7324 42.1602 28.9785C41.9023 29.2246 41.5596 29.3477 41.1318 29.3477C40.7041 29.3477 40.3584 29.2246 40.0947 28.9785C39.8369 28.7324 39.708 28.416 39.708 28.0293ZM44.1113 35.1748C44.1113 33.6924 44.4424 32.5117 45.1045 31.6328C45.7725 30.7539 46.6836 30.3145 47.8379 30.3145C48.7637 30.3145 49.5283 30.6602 50.1318 31.3516V26.5H52.6807V40H50.3867L50.2637 38.9893C49.6309 39.7803 48.8164 40.1758 47.8203 40.1758C46.7012 40.1758 45.8018 39.7363 45.1221 38.8574C44.4482 37.9727 44.1113 36.7451 44.1113 35.1748ZM46.6514 35.3594C46.6514 36.25 46.8066 36.9326 47.1172 37.4072C47.4277 37.8818 47.8789 38.1191 48.4707 38.1191C49.2559 38.1191 49.8096 37.7881 50.1318 37.126V33.373C49.8154 32.7109 49.2676 32.3799 48.4883 32.3799C47.2637 32.3799 46.6514 33.373 46.6514 35.3594ZM54.2803 35.1748C54.2803 33.7158 54.626 32.541 55.3174 31.6504C56.0146 30.7598 56.9521 30.3145 58.1299 30.3145C59.1729 30.3145 59.9844 30.6719 60.5645 31.3867L60.6699 30.4902H62.9727V39.6836C62.9727 40.5156 62.7822 41.2393 62.4014 41.8545C62.0264 42.4697 61.4961 42.9385 60.8105 43.2607C60.125 43.583 59.3223 43.7441 58.4023 43.7441C57.7051 43.7441 57.0254 43.6035 56.3633 43.3223C55.7012 43.0469 55.2002 42.6895 54.8604 42.25L55.9854 40.7031C56.6182 41.4121 57.3857 41.7666 58.2881 41.7666C58.9619 41.7666 59.4863 41.585 59.8613 41.2217C60.2363 40.8643 60.4238 40.3545 60.4238 39.6924V39.1826C59.8379 39.8447 59.0674 40.1758 58.1123 40.1758C56.9697 40.1758 56.0439 39.7305 55.335 38.8398C54.6318 37.9434 54.2803 36.7568 54.2803 35.2803V35.1748ZM56.8203 35.3594C56.8203 36.2207 56.9932 36.8975 57.3389 37.3896C57.6846 37.876 58.1592 38.1191 58.7627 38.1191C59.5361 38.1191 60.0898 37.8291 60.4238 37.249V33.25C60.084 32.6699 59.5361 32.3799 58.7803 32.3799C58.1709 32.3799 57.6904 32.6289 57.3389 33.127C56.9932 33.625 56.8203 34.3691 56.8203 35.3594ZM69.3096 40.1758C67.915 40.1758 66.7783 39.748 65.8994 38.8926C65.0264 38.0371 64.5898 36.8975 64.5898 35.4736V35.2275C64.5898 34.2725 64.7744 33.4199 65.1436 32.6699C65.5127 31.9141 66.0342 31.334 66.708 30.9297C67.3877 30.5195 68.1611 30.3145 69.0283 30.3145C70.3291 30.3145 71.3516 30.7246 72.0957 31.5449C72.8457 32.3652 73.2207 33.5283 73.2207 35.0342V36.0713H67.165C67.2471 36.6924 67.4932 37.1904 67.9033 37.5654C68.3193 37.9404 68.8438 38.1279 69.4766 38.1279C70.4551 38.1279 71.2197 37.7734 71.7705 37.0645L73.0186 38.4619C72.6377 39.001 72.1221 39.4229 71.4717 39.7275C70.8213 40.0264 70.1006 40.1758 69.3096 40.1758ZM69.0195 32.3711C68.5156 32.3711 68.1055 32.541 67.7891 32.8809C67.4785 33.2207 67.2793 33.707 67.1914 34.3398H70.7246V34.1377C70.7129 33.5752 70.5605 33.1416 70.2676 32.8369C69.9746 32.5264 69.5586 32.3711 69.0195 32.3711ZM77.7119 28.1523V30.4902H79.3379V32.3535H77.7119V37.0996C77.7119 37.4512 77.7793 37.7031 77.9141 37.8555C78.0488 38.0078 78.3066 38.084 78.6875 38.084C78.9688 38.084 79.2178 38.0635 79.4346 38.0225V39.9473C78.9365 40.0996 78.4238 40.1758 77.8965 40.1758C76.1152 40.1758 75.207 39.2764 75.1719 37.4775V32.3535H73.7832V30.4902H75.1719V28.1523H77.7119ZM87.5732 30.4902L87.6523 31.5889C88.332 30.7393 89.2432 30.3145 90.3857 30.3145C91.3936 30.3145 92.1436 30.6104 92.6357 31.2021C93.1279 31.7939 93.3799 32.6787 93.3916 33.8564V40H90.8516V33.918C90.8516 33.3789 90.7344 32.9893 90.5 32.749C90.2656 32.5029 89.876 32.3799 89.3311 32.3799C88.6162 32.3799 88.0801 32.6846 87.7227 33.2939V40H85.1826V30.4902H87.5732ZM100.836 40C100.719 39.7715 100.634 39.4873 100.581 39.1475C99.9658 39.833 99.166 40.1758 98.1816 40.1758C97.25 40.1758 96.4766 39.9062 95.8613 39.3672C95.252 38.8281 94.9473 38.1484 94.9473 37.3281C94.9473 36.3203 95.3193 35.5469 96.0635 35.0078C96.8135 34.4688 97.8945 34.1963 99.3066 34.1904H100.476V33.6455C100.476 33.2061 100.361 32.8545 100.133 32.5908C99.9102 32.3271 99.5557 32.1953 99.0693 32.1953C98.6416 32.1953 98.3047 32.2979 98.0586 32.5029C97.8184 32.708 97.6982 32.9893 97.6982 33.3467H95.1582C95.1582 32.7959 95.3281 32.2861 95.668 31.8174C96.0078 31.3486 96.4883 30.9824 97.1094 30.7188C97.7305 30.4492 98.4277 30.3145 99.2012 30.3145C100.373 30.3145 101.302 30.6104 101.987 31.2021C102.679 31.7881 103.024 32.6143 103.024 33.6807V37.8027C103.03 38.7051 103.156 39.3877 103.402 39.8506V40H100.836ZM98.7354 38.2334C99.1104 38.2334 99.4561 38.1514 99.7725 37.9873C100.089 37.8174 100.323 37.5918 100.476 37.3105V35.6758H99.5264C98.2549 35.6758 97.5781 36.1152 97.4961 36.9941L97.4873 37.1436C97.4873 37.46 97.5986 37.7207 97.8213 37.9258C98.0439 38.1309 98.3486 38.2334 98.7354 38.2334ZM107.357 30.4902L107.437 31.5537C108.11 30.7275 109.021 30.3145 110.17 30.3145C111.395 30.3145 112.235 30.7979 112.692 31.7646C113.36 30.7979 114.312 30.3145 115.549 30.3145C116.58 30.3145 117.348 30.6162 117.852 31.2197C118.355 31.8174 118.607 32.7197 118.607 33.9268V40H116.059V33.9355C116.059 33.3965 115.953 33.0039 115.742 32.7578C115.531 32.5059 115.159 32.3799 114.626 32.3799C113.864 32.3799 113.337 32.7432 113.044 33.4697L113.053 40H110.513V33.9443C110.513 33.3936 110.404 32.9951 110.188 32.749C109.971 32.5029 109.602 32.3799 109.08 32.3799C108.359 32.3799 107.838 32.6787 107.516 33.2764V40H104.976V30.4902H107.357ZM124.944 40.1758C123.55 40.1758 122.413 39.748 121.534 38.8926C120.661 38.0371 120.225 36.8975 120.225 35.4736V35.2275C120.225 34.2725 120.409 33.4199 120.778 32.6699C121.147 31.9141 121.669 31.334 122.343 30.9297C123.022 30.5195 123.796 30.3145 124.663 30.3145C125.964 30.3145 126.986 30.7246 127.73 31.5449C128.48 32.3652 128.855 33.5283 128.855 35.0342V36.0713H122.8C122.882 36.6924 123.128 37.1904 123.538 37.5654C123.954 37.9404 124.479 38.1279 125.111 38.1279C126.09 38.1279 126.854 37.7734 127.405 37.0645L128.653 38.4619C128.272 39.001 127.757 39.4229 127.106 39.7275C126.456 40.0264 125.735 40.1758 124.944 40.1758ZM124.654 32.3711C124.15 32.3711 123.74 32.541 123.424 32.8809C123.113 33.2207 122.914 33.707 122.826 34.3398H126.359V34.1377C126.348 33.5752 126.195 33.1416 125.902 32.8369C125.609 32.5264 125.193 32.3711 124.654 32.3711Z" fill="white"/>
<defs>
<filter id="filter0_d" x="0" y="0" width="776" height="434" filterUnits="userSpaceOnUse" color-interpolation-filters="sRGB">
<feFlood flood-opacity="0" result="BackgroundImageFix"/>
<feColorMatrix in="SourceAlpha" type="matrix" values="0 0 0 0 0 0 0 0 0 0 0 0 0 0 0 0 0 0 127 0"/>
<feOffset/>
<feGaussianBlur stdDeviation="1.5"/>
<feColorMatrix type="matrix" values="0 0 0 0 0 0 0 0 0 0 0 0 0 0 0 0 0 0 0.03 0"/>
<feBlend mode="normal" in2="BackgroundImageFix" result="effect1_dropShadow"/>
<feBlend mode="normal" in="SourceGraphic" in2="effect1_dropShadow" result="shape"/>
</filter>
</defs>
</svg>
