<svg width="515" height="580" viewBox="0 0 515 580" fill="none" xmlns="http://www.w3.org/2000/svg">
<rect width="515" height="355" fill="#F9FAFC"/>
<rect width="515" height="580" rx="10" fill="#1C1C24"/>
<path d="M28.3672 34.3633H23.7441L22.8652 37H20.0615L24.8252 24.2031H27.2686L32.0586 37H29.2549L28.3672 34.3633ZM24.4561 32.2275H27.6553L26.0469 27.4375L24.4561 32.2275ZM36.207 33.8975L37.9736 27.4902H40.6279L37.4199 37H34.9941L31.7861 27.4902H34.4404L36.207 33.8975ZM46.0068 37.1758C44.6123 37.1758 43.4756 36.748 42.5967 35.8926C41.7236 35.0371 41.2871 33.8975 41.2871 32.4736V32.2275C41.2871 31.2725 41.4717 30.4199 41.8408 29.6699C42.21 28.9141 42.7314 28.334 43.4053 27.9297C44.085 27.5195 44.8584 27.3145 45.7256 27.3145C47.0264 27.3145 48.0488 27.7246 48.793 28.5449C49.543 29.3652 49.918 30.5283 49.918 32.0342V33.0713H43.8623C43.9443 33.6924 44.1904 34.1904 44.6006 34.5654C45.0166 34.9404 45.541 35.1279 46.1738 35.1279C47.1523 35.1279 47.917 34.7734 48.4678 34.0645L49.7158 35.4619C49.335 36.001 48.8193 36.4229 48.1689 36.7275C47.5186 37.0264 46.7979 37.1758 46.0068 37.1758ZM45.7168 29.3711C45.2129 29.3711 44.8027 29.541 44.4863 29.8809C44.1758 30.2207 43.9766 30.707 43.8887 31.3398H47.4219V31.1377C47.4102 30.5752 47.2578 30.1416 46.9648 29.8369C46.6719 29.5264 46.2559 29.3711 45.7168 29.3711ZM56.7119 29.8721C56.3662 29.8252 56.0615 29.8018 55.7979 29.8018C54.8369 29.8018 54.207 30.127 53.9082 30.7773V37H51.3682V27.4902H53.7676L53.8379 28.624C54.3477 27.751 55.0537 27.3145 55.9561 27.3145C56.2373 27.3145 56.501 27.3525 56.7471 27.4287L56.7119 29.8721ZM63.1895 37C63.0723 36.7715 62.9873 36.4873 62.9346 36.1475C62.3193 36.833 61.5195 37.1758 60.5352 37.1758C59.6035 37.1758 58.8301 36.9062 58.2148 36.3672C57.6055 35.8281 57.3008 35.1484 57.3008 34.3281C57.3008 33.3203 57.6729 32.5469 58.417 32.0078C59.167 31.4688 60.248 31.1963 61.6602 31.1904H62.8291V30.6455C62.8291 30.2061 62.7148 29.8545 62.4863 29.5908C62.2637 29.3271 61.9092 29.1953 61.4229 29.1953C60.9951 29.1953 60.6582 29.2979 60.4121 29.5029C60.1719 29.708 60.0518 29.9893 60.0518 30.3467H57.5117C57.5117 29.7959 57.6816 29.2861 58.0215 28.8174C58.3613 28.3486 58.8418 27.9824 59.4629 27.7188C60.084 27.4492 60.7812 27.3145 61.5547 27.3145C62.7266 27.3145 63.6553 27.6104 64.3408 28.2021C65.0322 28.7881 65.3779 29.6143 65.3779 30.6807V34.8027C65.3838 35.7051 65.5098 36.3877 65.7559 36.8506V37H63.1895ZM61.0889 35.2334C61.4639 35.2334 61.8096 35.1514 62.126 34.9873C62.4424 34.8174 62.6768 34.5918 62.8291 34.3105V32.6758H61.8799C60.6084 32.6758 59.9316 33.1152 59.8496 33.9941L59.8408 34.1436C59.8408 34.46 59.9521 34.7207 60.1748 34.9258C60.3975 35.1309 60.7021 35.2334 61.0889 35.2334ZM66.96 32.1748C66.96 30.7158 67.3057 29.541 67.9971 28.6504C68.6943 27.7598 69.6318 27.3145 70.8096 27.3145C71.8525 27.3145 72.6641 27.6719 73.2441 28.3867L73.3496 27.4902H75.6523V36.6836C75.6523 37.5156 75.4619 38.2393 75.0811 38.8545C74.7061 39.4697 74.1758 39.9385 73.4902 40.2607C72.8047 40.583 72.002 40.7441 71.082 40.7441C70.3848 40.7441 69.7051 40.6035 69.043 40.3223C68.3809 40.0469 67.8799 39.6895 67.54 39.25L68.665 37.7031C69.2979 38.4121 70.0654 38.7666 70.9678 38.7666C71.6416 38.7666 72.166 38.585 72.541 38.2217C72.916 37.8643 73.1035 37.3545 73.1035 36.6924V36.1826C72.5176 36.8447 71.7471 37.1758 70.792 37.1758C69.6494 37.1758 68.7236 36.7305 68.0146 35.8398C67.3115 34.9434 66.96 33.7568 66.96 32.2803V32.1748ZM69.5 32.3594C69.5 33.2207 69.6729 33.8975 70.0186 34.3896C70.3643 34.876 70.8389 35.1191 71.4424 35.1191C72.2158 35.1191 72.7695 34.8291 73.1035 34.249V30.25C72.7637 29.6699 72.2158 29.3799 71.46 29.3799C70.8506 29.3799 70.3701 29.6289 70.0186 30.127C69.6729 30.625 69.5 31.3691 69.5 32.3594ZM81.9893 37.1758C80.5947 37.1758 79.458 36.748 78.5791 35.8926C77.7061 35.0371 77.2695 33.8975 77.2695 32.4736V32.2275C77.2695 31.2725 77.4541 30.4199 77.8232 29.6699C78.1924 28.9141 78.7139 28.334 79.3877 27.9297C80.0674 27.5195 80.8408 27.3145 81.708 27.3145C83.0088 27.3145 84.0312 27.7246 84.7754 28.5449C85.5254 29.3652 85.9004 30.5283 85.9004 32.0342V33.0713H79.8447C79.9268 33.6924 80.1729 34.1904 80.583 34.5654C80.999 34.9404 81.5234 35.1279 82.1562 35.1279C83.1348 35.1279 83.8994 34.7734 84.4502 34.0645L85.6982 35.4619C85.3174 36.001 84.8018 36.4229 84.1514 36.7275C83.501 37.0264 82.7803 37.1758 81.9893 37.1758ZM81.6992 29.3711C81.1953 29.3711 80.7852 29.541 80.4688 29.8809C80.1582 30.2207 79.959 30.707 79.8711 31.3398H83.4043V31.1377C83.3926 30.5752 83.2402 30.1416 82.9473 29.8369C82.6543 29.5264 82.2383 29.3711 81.6992 29.3711ZM98.6357 33.6426C98.6357 33.1445 98.46 32.7637 98.1084 32.5C97.7568 32.2305 97.124 31.9492 96.21 31.6562C95.2959 31.3574 94.5723 31.0645 94.0391 30.7773C92.5859 29.9922 91.8594 28.9346 91.8594 27.6045C91.8594 26.9131 92.0527 26.2979 92.4395 25.7588C92.832 25.2139 93.3916 24.7891 94.1182 24.4844C94.8506 24.1797 95.6709 24.0273 96.5791 24.0273C97.4932 24.0273 98.3076 24.1943 99.0225 24.5283C99.7373 24.8564 100.291 25.3223 100.684 25.9258C101.082 26.5293 101.281 27.2148 101.281 27.9824H98.6445C98.6445 27.3965 98.46 26.9424 98.0908 26.6201C97.7217 26.292 97.2031 26.1279 96.5352 26.1279C95.8906 26.1279 95.3896 26.2656 95.0322 26.541C94.6748 26.8105 94.4961 27.168 94.4961 27.6133C94.4961 28.0293 94.7041 28.3779 95.1201 28.6592C95.542 28.9404 96.1602 29.2041 96.9746 29.4502C98.4746 29.9014 99.5674 30.4609 100.253 31.1289C100.938 31.7969 101.281 32.6289 101.281 33.625C101.281 34.7324 100.862 35.6025 100.024 36.2354C99.1865 36.8623 98.0586 37.1758 96.6406 37.1758C95.6562 37.1758 94.7598 36.9971 93.9512 36.6396C93.1426 36.2764 92.5244 35.7812 92.0967 35.1543C91.6748 34.5273 91.4639 33.8008 91.4639 32.9746H94.1094C94.1094 34.3867 94.9531 35.0928 96.6406 35.0928C97.2676 35.0928 97.7568 34.9668 98.1084 34.7148C98.46 34.457 98.6357 34.0996 98.6357 33.6426ZM106.361 33.1855L105.447 34.0996V37H102.907V23.5H105.447V30.9795L105.939 30.3467L108.374 27.4902H111.424L107.987 31.4541L111.723 37H108.805L106.361 33.1855ZM115.203 37H112.654V27.4902H115.203V37ZM112.505 25.0293C112.505 24.6484 112.631 24.335 112.883 24.0889C113.141 23.8428 113.489 23.7197 113.929 23.7197C114.362 23.7197 114.708 23.8428 114.966 24.0889C115.224 24.335 115.353 24.6484 115.353 25.0293C115.353 25.416 115.221 25.7324 114.957 25.9785C114.699 26.2246 114.356 26.3477 113.929 26.3477C113.501 26.3477 113.155 26.2246 112.892 25.9785C112.634 25.7324 112.505 25.416 112.505 25.0293ZM119.984 37H117.436V23.5H119.984V37ZM124.766 37H122.217V23.5H124.766V37ZM132.017 34.3721C132.017 34.0615 131.861 33.8184 131.551 33.6426C131.246 33.4609 130.754 33.2998 130.074 33.1592C127.812 32.6846 126.682 31.7236 126.682 30.2764C126.682 29.4326 127.03 28.7295 127.728 28.167C128.431 27.5986 129.348 27.3145 130.479 27.3145C131.686 27.3145 132.649 27.5986 133.37 28.167C134.097 28.7354 134.46 29.4736 134.46 30.3818H131.92C131.92 30.0186 131.803 29.7197 131.568 29.4854C131.334 29.2451 130.968 29.125 130.47 29.125C130.042 29.125 129.711 29.2217 129.477 29.415C129.242 29.6084 129.125 29.8545 129.125 30.1533C129.125 30.4346 129.257 30.6631 129.521 30.8389C129.79 31.0088 130.241 31.1582 130.874 31.2871C131.507 31.4102 132.04 31.5508 132.474 31.709C133.815 32.2012 134.486 33.0537 134.486 34.2666C134.486 35.1338 134.114 35.8369 133.37 36.376C132.626 36.9092 131.665 37.1758 130.487 37.1758C129.69 37.1758 128.981 37.0352 128.36 36.7539C127.745 36.4668 127.262 36.0771 126.91 35.585C126.559 35.0869 126.383 34.5508 126.383 33.9766H128.791C128.814 34.4277 128.981 34.7734 129.292 35.0137C129.603 35.2539 130.019 35.374 130.54 35.374C131.026 35.374 131.393 35.2832 131.639 35.1016C131.891 34.9141 132.017 34.6709 132.017 34.3721Z" fill="white"/>
<rect x="111" y="60" width="213" height="236" fill="#1C1E24"/>
<path fill-rule="evenodd" clip-rule="evenodd" d="M371.481 326.418C335.331 362.008 282.638 375.915 233.251 362.889C208.987 356.485 186.855 343.903 169.095 326.418L270.288 226.789L371.481 326.418Z" fill="#FFC542"/>
<path fill-rule="evenodd" clip-rule="evenodd" d="M169.872 327.39C134.006 291.837 119.924 239.946 132.942 191.264C139.342 167.347 151.961 145.519 169.52 127.99L269.92 227.513L169.872 327.39Z" fill="#FC5A5A"/>
<path fill-rule="evenodd" clip-rule="evenodd" d="M168.798 128.627C204.125 92.3866 256.007 77.8411 304.899 90.4802C328.921 96.694 350.899 109.158 368.612 126.608L269.72 228.057L168.798 128.627Z" fill="#1E75FF"/>
<path fill-rule="evenodd" clip-rule="evenodd" d="M270.288 85.8867C320.623 85.8867 367.14 112.917 392.312 156.795C417.483 200.673 417.483 254.733 392.312 298.611C386.154 309.347 378.623 319.217 369.916 327.982L270.288 227.703V85.8867Z" fill="#33C758"/>
<g clip-path="url(#clip0)">
<g filter="url(#filter0_d)">
<path fill-rule="evenodd" clip-rule="evenodd" d="M341 167C338.791 167 337 168.791 337 171V199C337 201.209 338.791 203 341 203H358.875L363.495 208.28C364.292 209.19 365.708 209.19 366.505 208.28L371.125 203H391C393.209 203 395 201.209 395 199V171C395 168.791 393.209 167 391 167H341Z" fill="#20242B"/>
</g>
<path d="M359.792 186.521H360.839V188H359.792V190H357.958V188H354.168L354.085 186.845L357.938 180.758H359.792V186.521ZM355.914 186.521H357.958V183.259L357.837 183.468L355.914 186.521ZM368.114 181.786L364.54 190H362.604L366.184 182.243H361.588V180.758H368.114V181.786ZM369.269 182.535C369.269 181.968 369.453 181.509 369.821 181.158C370.189 180.802 370.672 180.625 371.269 180.625C371.874 180.625 372.36 180.8 372.729 181.151C373.097 181.498 373.281 181.97 373.281 182.567V183.024C373.281 183.595 373.097 184.054 372.729 184.401C372.36 184.748 371.878 184.922 371.281 184.922C370.68 184.922 370.194 184.748 369.821 184.401C369.453 184.05 369.269 183.578 369.269 182.986V182.535ZM370.488 183.024C370.488 183.278 370.56 183.483 370.704 183.64C370.852 183.792 371.044 183.868 371.281 183.868C371.518 183.868 371.707 183.79 371.846 183.633C371.986 183.477 372.056 183.267 372.056 183.005V182.535C372.056 182.281 371.986 182.076 371.846 181.919C371.707 181.763 371.514 181.685 371.269 181.685C371.036 181.685 370.847 181.763 370.704 181.919C370.56 182.072 370.488 182.285 370.488 182.561V183.024ZM373.687 187.734C373.687 187.163 373.873 186.703 374.246 186.356C374.618 186.005 375.1 185.83 375.693 185.83C376.294 185.83 376.778 186.003 377.146 186.35C377.519 186.693 377.705 187.167 377.705 187.772V188.229C377.705 188.796 377.523 189.255 377.159 189.606C376.795 189.953 376.311 190.127 375.706 190.127C375.096 190.127 374.607 189.951 374.239 189.6C373.871 189.249 373.687 188.783 373.687 188.204V187.734ZM374.906 188.229C374.906 188.462 374.982 188.661 375.134 188.826C375.287 188.991 375.477 189.073 375.706 189.073C376.222 189.073 376.48 188.788 376.48 188.216V187.734C376.48 187.48 376.408 187.277 376.264 187.125C376.12 186.968 375.93 186.89 375.693 186.89C375.456 186.89 375.265 186.968 375.122 187.125C374.978 187.277 374.906 187.486 374.906 187.753V188.229ZM371.643 189.308L370.748 188.826L375.261 181.602L376.156 182.084L371.643 189.308Z" fill="white"/>
</g>
<defs>
<filter id="filter0_d" x="313" y="153" width="106" height="90" filterUnits="userSpaceOnUse" color-interpolation-filters="sRGB">
<feFlood flood-opacity="0" result="BackgroundImageFix"/>
<feColorMatrix in="SourceAlpha" type="matrix" values="0 0 0 0 0 0 0 0 0 0 0 0 0 0 0 0 0 0 127 0"/>
<feOffset dy="10"/>
<feGaussianBlur stdDeviation="12"/>
<feColorMatrix type="matrix" values="0 0 0 0 0.0682517 0 0 0 0 0.0725245 0 0 0 0 0.0853431 0 0 0 0.5 0"/>
<feBlend mode="normal" in2="BackgroundImageFix" result="effect1_dropShadow"/>
<feBlend mode="normal" in="SourceGraphic" in2="effect1_dropShadow" result="shape"/>
</filter>
<clipPath id="clip0">
<rect width="58" height="36" fill="white" transform="translate(337 167)"/>
</clipPath>
</defs>
</svg>
