<svg width="1270" height="852" viewBox="0 0 1270 852" fill="none" xmlns="http://www.w3.org/2000/svg">
<circle cx="1" cy="1" r="1" fill="#6A6A6A"/>
<circle cx="1" cy="69" r="1" fill="#6A6A6A"/>
<circle cx="1" cy="137" r="1" fill="#6A6A6A"/>
<circle cx="1" cy="205" r="1" fill="#6A6A6A"/>
<circle cx="1" cy="273" r="1" fill="#6A6A6A"/>
<circle cx="1" cy="341" r="1" fill="#6A6A6A"/>
<circle cx="1" cy="409" r="1" fill="#6A6A6A"/>
<circle cx="1" cy="477" r="1" fill="#6A6A6A"/>
<circle cx="1" cy="545" r="1" fill="#6A6A6A"/>
<circle cx="1" cy="613" r="1" fill="#6A6A6A"/>
<circle cx="1" cy="681" r="1" fill="#6A6A6A"/>
<circle cx="1" cy="749" r="1" fill="#6A6A6A"/>
<circle cx="1" cy="817" r="1" fill="#6A6A6A"/>
<circle cx="1" cy="35" r="1" fill="#6A6A6A"/>
<circle cx="1" cy="103" r="1" fill="#6A6A6A"/>
<circle cx="1" cy="171" r="1" fill="#6A6A6A"/>
<circle cx="1" cy="239" r="1" fill="#6A6A6A"/>
<circle cx="1" cy="307" r="1" fill="#6A6A6A"/>
<circle cx="1" cy="375" r="1" fill="#6A6A6A"/>
<circle cx="1" cy="443" r="1" fill="#6A6A6A"/>
<circle cx="1" cy="511" r="1" fill="#6A6A6A"/>
<circle cx="1" cy="579" r="1" fill="#6A6A6A"/>
<circle cx="1" cy="647" r="1" fill="#6A6A6A"/>
<circle cx="1" cy="715" r="1" fill="#6A6A6A"/>
<circle cx="1" cy="783" r="1" fill="#6A6A6A"/>
<circle cx="1" cy="851" r="1" fill="#6A6A6A"/>
<circle cx="34" cy="1" r="1" fill="#6A6A6A"/>
<circle cx="34" cy="69" r="1" fill="#6A6A6A"/>
<circle cx="34" cy="137" r="1" fill="#6A6A6A"/>
<circle cx="34" cy="205" r="1" fill="#6A6A6A"/>
<circle cx="34" cy="273" r="1" fill="#6A6A6A"/>
<circle cx="34" cy="341" r="1" fill="#6A6A6A"/>
<circle cx="34" cy="409" r="1" fill="#6A6A6A"/>
<circle cx="34" cy="477" r="1" fill="#6A6A6A"/>
<circle cx="34" cy="545" r="1" fill="#6A6A6A"/>
<circle cx="34" cy="613" r="1" fill="#6A6A6A"/>
<circle cx="34" cy="681" r="1" fill="#6A6A6A"/>
<circle cx="34" cy="749" r="1" fill="#6A6A6A"/>
<circle cx="34" cy="817" r="1" fill="#6A6A6A"/>
<circle cx="34" cy="35" r="1" fill="#6A6A6A"/>
<circle cx="34" cy="103" r="1" fill="#6A6A6A"/>
<circle cx="34" cy="171" r="1" fill="#6A6A6A"/>
<circle cx="34" cy="239" r="1" fill="#6A6A6A"/>
<circle cx="34" cy="307" r="1" fill="#6A6A6A"/>
<circle cx="34" cy="375" r="1" fill="#6A6A6A"/>
<circle cx="34" cy="443" r="1" fill="#6A6A6A"/>
<circle cx="34" cy="511" r="1" fill="#6A6A6A"/>
<circle cx="34" cy="579" r="1" fill="#6A6A6A"/>
<circle cx="34" cy="647" r="1" fill="#6A6A6A"/>
<circle cx="34" cy="715" r="1" fill="#6A6A6A"/>
<circle cx="34" cy="783" r="1" fill="#6A6A6A"/>
<circle cx="34" cy="851" r="1" fill="#6A6A6A"/>
<circle cx="68" cy="1" r="1" fill="#6A6A6A"/>
<circle cx="68" cy="69" r="1" fill="#6A6A6A"/>
<circle cx="68" cy="137" r="1" fill="#6A6A6A"/>
<circle cx="68" cy="205" r="1" fill="#6A6A6A"/>
<circle cx="68" cy="273" r="1" fill="#6A6A6A"/>
<circle cx="68" cy="341" r="1" fill="#6A6A6A"/>
<circle cx="68" cy="409" r="1" fill="#6A6A6A"/>
<circle cx="68" cy="477" r="1" fill="#6A6A6A"/>
<circle cx="68" cy="545" r="1" fill="#6A6A6A"/>
<circle cx="68" cy="613" r="1" fill="#6A6A6A"/>
<circle cx="68" cy="681" r="1" fill="#6A6A6A"/>
<circle cx="68" cy="749" r="1" fill="#6A6A6A"/>
<circle cx="68" cy="817" r="1" fill="#6A6A6A"/>
<circle cx="68" cy="35" r="1" fill="#6A6A6A"/>
<circle cx="68" cy="103" r="1" fill="#6A6A6A"/>
<circle cx="68" cy="171" r="1" fill="#6A6A6A"/>
<circle cx="68" cy="239" r="1" fill="#6A6A6A"/>
<circle cx="68" cy="307" r="1" fill="#6A6A6A"/>
<circle cx="68" cy="375" r="1" fill="#6A6A6A"/>
<circle cx="68" cy="443" r="1" fill="#6A6A6A"/>
<circle cx="68" cy="511" r="1" fill="#6A6A6A"/>
<circle cx="68" cy="579" r="1" fill="#6A6A6A"/>
<circle cx="68" cy="647" r="1" fill="#6A6A6A"/>
<circle cx="68" cy="715" r="1" fill="#6A6A6A"/>
<circle cx="68" cy="783" r="1" fill="#6A6A6A"/>
<circle cx="68" cy="851" r="1" fill="#6A6A6A"/>
<circle cx="101" cy="1" r="1" fill="#6A6A6A"/>
<circle cx="101" cy="69" r="1" fill="#6A6A6A"/>
<circle cx="101" cy="137" r="1" fill="#6A6A6A"/>
<circle cx="101" cy="205" r="1" fill="#6A6A6A"/>
<circle cx="101" cy="273" r="1" fill="#6A6A6A"/>
<circle cx="101" cy="341" r="1" fill="#6A6A6A"/>
<circle cx="101" cy="409" r="1" fill="#6A6A6A"/>
<circle cx="101" cy="477" r="1" fill="#6A6A6A"/>
<circle cx="101" cy="545" r="1" fill="#6A6A6A"/>
<circle cx="101" cy="613" r="1" fill="#6A6A6A"/>
<circle cx="101" cy="681" r="1" fill="#6A6A6A"/>
<circle cx="101" cy="749" r="1" fill="#6A6A6A"/>
<circle cx="101" cy="817" r="1" fill="#6A6A6A"/>
<circle cx="101" cy="35" r="1" fill="#6A6A6A"/>
<circle cx="101" cy="103" r="1" fill="#6A6A6A"/>
<circle cx="101" cy="171" r="1" fill="#6A6A6A"/>
<circle cx="101" cy="239" r="1" fill="#6A6A6A"/>
<circle cx="101" cy="307" r="1" fill="#6A6A6A"/>
<circle cx="101" cy="375" r="1" fill="#6A6A6A"/>
<circle cx="101" cy="443" r="1" fill="#6A6A6A"/>
<circle cx="101" cy="511" r="1" fill="#6A6A6A"/>
<circle cx="101" cy="579" r="1" fill="#6A6A6A"/>
<circle cx="101" cy="647" r="1" fill="#6A6A6A"/>
<circle cx="101" cy="715" r="1" fill="#6A6A6A"/>
<circle cx="101" cy="783" r="1" fill="#6A6A6A"/>
<circle cx="101" cy="851" r="1" fill="#6A6A6A"/>
<circle cx="134" cy="1" r="1" fill="#6A6A6A"/>
<circle cx="134" cy="69" r="1" fill="#6A6A6A"/>
<circle cx="134" cy="137" r="1" fill="#6A6A6A"/>
<circle cx="134" cy="205" r="1" fill="#6A6A6A"/>
<circle cx="134" cy="273" r="1" fill="#6A6A6A"/>
<circle cx="134" cy="341" r="1" fill="#6A6A6A"/>
<circle cx="134" cy="409" r="1" fill="#6A6A6A"/>
<circle cx="134" cy="477" r="1" fill="#6A6A6A"/>
<circle cx="134" cy="545" r="1" fill="#6A6A6A"/>
<circle cx="134" cy="613" r="1" fill="#6A6A6A"/>
<circle cx="134" cy="681" r="1" fill="#6A6A6A"/>
<circle cx="134" cy="749" r="1" fill="#6A6A6A"/>
<circle cx="134" cy="817" r="1" fill="#6A6A6A"/>
<circle cx="134" cy="35" r="1" fill="#6A6A6A"/>
<circle cx="134" cy="103" r="1" fill="#6A6A6A"/>
<circle cx="134" cy="171" r="1" fill="#6A6A6A"/>
<circle cx="134" cy="239" r="1" fill="#6A6A6A"/>
<circle cx="134" cy="307" r="1" fill="#6A6A6A"/>
<circle cx="134" cy="375" r="1" fill="#6A6A6A"/>
<circle cx="134" cy="443" r="1" fill="#6A6A6A"/>
<circle cx="134" cy="511" r="1" fill="#6A6A6A"/>
<circle cx="134" cy="579" r="1" fill="#6A6A6A"/>
<circle cx="134" cy="647" r="1" fill="#6A6A6A"/>
<circle cx="134" cy="715" r="1" fill="#6A6A6A"/>
<circle cx="134" cy="783" r="1" fill="#6A6A6A"/>
<circle cx="134" cy="851" r="1" fill="#6A6A6A"/>
<circle cx="168" cy="1" r="1" fill="#6A6A6A"/>
<circle cx="168" cy="69" r="1" fill="#6A6A6A"/>
<circle cx="168" cy="137" r="1" fill="#6A6A6A"/>
<circle cx="168" cy="205" r="1" fill="#6A6A6A"/>
<circle cx="168" cy="273" r="1" fill="#6A6A6A"/>
<circle cx="168" cy="341" r="1" fill="#6A6A6A"/>
<circle cx="168" cy="409" r="1" fill="#6A6A6A"/>
<circle cx="168" cy="477" r="1" fill="#6A6A6A"/>
<circle cx="168" cy="545" r="1" fill="#6A6A6A"/>
<circle cx="168" cy="613" r="1" fill="#6A6A6A"/>
<circle cx="168" cy="681" r="1" fill="#6A6A6A"/>
<circle cx="168" cy="749" r="1" fill="#6A6A6A"/>
<circle cx="168" cy="817" r="1" fill="#6A6A6A"/>
<circle cx="168" cy="35" r="1" fill="#6A6A6A"/>
<circle cx="168" cy="103" r="1" fill="#6A6A6A"/>
<circle cx="168" cy="171" r="1" fill="#6A6A6A"/>
<circle cx="168" cy="239" r="1" fill="#6A6A6A"/>
<circle cx="168" cy="307" r="1" fill="#6A6A6A"/>
<circle cx="168" cy="375" r="1" fill="#6A6A6A"/>
<circle cx="168" cy="443" r="1" fill="#6A6A6A"/>
<circle cx="168" cy="511" r="1" fill="#6A6A6A"/>
<circle cx="168" cy="579" r="1" fill="#6A6A6A"/>
<circle cx="168" cy="647" r="1" fill="#6A6A6A"/>
<circle cx="168" cy="715" r="1" fill="#6A6A6A"/>
<circle cx="168" cy="783" r="1" fill="#6A6A6A"/>
<circle cx="168" cy="851" r="1" fill="#6A6A6A"/>
<circle cx="201" cy="1" r="1" fill="#6A6A6A"/>
<circle cx="201" cy="69" r="1" fill="#6A6A6A"/>
<circle cx="201" cy="137" r="1" fill="#6A6A6A"/>
<circle cx="201" cy="205" r="1" fill="#6A6A6A"/>
<circle cx="201" cy="273" r="1" fill="#6A6A6A"/>
<circle cx="201" cy="341" r="1" fill="#6A6A6A"/>
<circle cx="201" cy="409" r="1" fill="#6A6A6A"/>
<circle cx="201" cy="477" r="1" fill="#6A6A6A"/>
<circle cx="201" cy="545" r="1" fill="#6A6A6A"/>
<circle cx="201" cy="613" r="1" fill="#6A6A6A"/>
<circle cx="201" cy="681" r="1" fill="#6A6A6A"/>
<circle cx="201" cy="749" r="1" fill="#6A6A6A"/>
<circle cx="201" cy="817" r="1" fill="#6A6A6A"/>
<circle cx="201" cy="35" r="1" fill="#6A6A6A"/>
<circle cx="201" cy="103" r="1" fill="#6A6A6A"/>
<circle cx="201" cy="171" r="1" fill="#6A6A6A"/>
<circle cx="201" cy="239" r="1" fill="#6A6A6A"/>
<circle cx="201" cy="307" r="1" fill="#6A6A6A"/>
<circle cx="201" cy="375" r="1" fill="#6A6A6A"/>
<circle cx="201" cy="443" r="1" fill="#6A6A6A"/>
<circle cx="201" cy="511" r="1" fill="#6A6A6A"/>
<circle cx="201" cy="579" r="1" fill="#6A6A6A"/>
<circle cx="201" cy="647" r="1" fill="#6A6A6A"/>
<circle cx="201" cy="715" r="1" fill="#6A6A6A"/>
<circle cx="201" cy="783" r="1" fill="#6A6A6A"/>
<circle cx="201" cy="851" r="1" fill="#6A6A6A"/>
<circle cx="235" cy="1" r="1" fill="#6A6A6A"/>
<circle cx="235" cy="69" r="1" fill="#6A6A6A"/>
<circle cx="235" cy="137" r="1" fill="#6A6A6A"/>
<circle cx="235" cy="205" r="1" fill="#6A6A6A"/>
<circle cx="235" cy="273" r="1" fill="#6A6A6A"/>
<circle cx="235" cy="341" r="1" fill="#6A6A6A"/>
<circle cx="235" cy="409" r="1" fill="#6A6A6A"/>
<circle cx="235" cy="477" r="1" fill="#6A6A6A"/>
<circle cx="235" cy="545" r="1" fill="#6A6A6A"/>
<circle cx="235" cy="613" r="1" fill="#6A6A6A"/>
<circle cx="235" cy="681" r="1" fill="#6A6A6A"/>
<circle cx="235" cy="749" r="1" fill="#6A6A6A"/>
<circle cx="235" cy="817" r="1" fill="#6A6A6A"/>
<circle cx="235" cy="35" r="1" fill="#6A6A6A"/>
<circle cx="235" cy="103" r="1" fill="#6A6A6A"/>
<circle cx="235" cy="171" r="1" fill="#6A6A6A"/>
<circle cx="235" cy="239" r="1" fill="#6A6A6A"/>
<circle cx="235" cy="307" r="1" fill="#6A6A6A"/>
<circle cx="235" cy="375" r="1" fill="#6A6A6A"/>
<circle cx="235" cy="443" r="1" fill="#6A6A6A"/>
<circle cx="235" cy="511" r="1" fill="#6A6A6A"/>
<circle cx="235" cy="579" r="1" fill="#6A6A6A"/>
<circle cx="235" cy="647" r="1" fill="#6A6A6A"/>
<circle cx="235" cy="715" r="1" fill="#6A6A6A"/>
<circle cx="235" cy="783" r="1" fill="#6A6A6A"/>
<circle cx="235" cy="851" r="1" fill="#6A6A6A"/>
<circle cx="268" cy="1" r="1" fill="#6A6A6A"/>
<circle cx="268" cy="69" r="1" fill="#6A6A6A"/>
<circle cx="268" cy="137" r="1" fill="#6A6A6A"/>
<circle cx="268" cy="205" r="1" fill="#6A6A6A"/>
<circle cx="268" cy="273" r="1" fill="#6A6A6A"/>
<circle cx="268" cy="341" r="1" fill="#6A6A6A"/>
<circle cx="268" cy="409" r="1" fill="#6A6A6A"/>
<circle cx="268" cy="477" r="1" fill="#6A6A6A"/>
<circle cx="268" cy="545" r="1" fill="#6A6A6A"/>
<circle cx="268" cy="613" r="1" fill="#6A6A6A"/>
<circle cx="268" cy="681" r="1" fill="#6A6A6A"/>
<circle cx="268" cy="749" r="1" fill="#6A6A6A"/>
<circle cx="268" cy="817" r="1" fill="#6A6A6A"/>
<circle cx="268" cy="35" r="1" fill="#6A6A6A"/>
<circle cx="268" cy="103" r="1" fill="#6A6A6A"/>
<circle cx="268" cy="171" r="1" fill="#6A6A6A"/>
<circle cx="268" cy="239" r="1" fill="#6A6A6A"/>
<circle cx="268" cy="307" r="1" fill="#6A6A6A"/>
<circle cx="268" cy="375" r="1" fill="#6A6A6A"/>
<circle cx="268" cy="443" r="1" fill="#6A6A6A"/>
<circle cx="268" cy="511" r="1" fill="#6A6A6A"/>
<circle cx="268" cy="579" r="1" fill="#6A6A6A"/>
<circle cx="268" cy="647" r="1" fill="#6A6A6A"/>
<circle cx="268" cy="715" r="1" fill="#6A6A6A"/>
<circle cx="268" cy="783" r="1" fill="#6A6A6A"/>
<circle cx="268" cy="851" r="1" fill="#6A6A6A"/>
<circle cx="301" cy="1" r="1" fill="#6A6A6A"/>
<circle cx="301" cy="69" r="1" fill="#6A6A6A"/>
<circle cx="301" cy="137" r="1" fill="#6A6A6A"/>
<circle cx="301" cy="205" r="1" fill="#6A6A6A"/>
<circle cx="301" cy="273" r="1" fill="#6A6A6A"/>
<circle cx="301" cy="341" r="1" fill="#6A6A6A"/>
<circle cx="301" cy="409" r="1" fill="#6A6A6A"/>
<circle cx="301" cy="477" r="1" fill="#6A6A6A"/>
<circle cx="301" cy="545" r="1" fill="#6A6A6A"/>
<circle cx="301" cy="613" r="1" fill="#6A6A6A"/>
<circle cx="301" cy="681" r="1" fill="#6A6A6A"/>
<circle cx="301" cy="749" r="1" fill="#6A6A6A"/>
<circle cx="301" cy="817" r="1" fill="#6A6A6A"/>
<circle cx="301" cy="35" r="1" fill="#6A6A6A"/>
<circle cx="301" cy="103" r="1" fill="#6A6A6A"/>
<circle cx="301" cy="171" r="1" fill="#6A6A6A"/>
<circle cx="301" cy="239" r="1" fill="#6A6A6A"/>
<circle cx="301" cy="307" r="1" fill="#6A6A6A"/>
<circle cx="301" cy="375" r="1" fill="#6A6A6A"/>
<circle cx="301" cy="443" r="1" fill="#6A6A6A"/>
<circle cx="301" cy="511" r="1" fill="#6A6A6A"/>
<circle cx="301" cy="579" r="1" fill="#6A6A6A"/>
<circle cx="301" cy="647" r="1" fill="#6A6A6A"/>
<circle cx="301" cy="715" r="1" fill="#6A6A6A"/>
<circle cx="301" cy="783" r="1" fill="#6A6A6A"/>
<circle cx="301" cy="851" r="1" fill="#6A6A6A"/>
<circle cx="335" cy="1" r="1" fill="#6A6A6A"/>
<circle cx="335" cy="69" r="1" fill="#6A6A6A"/>
<circle cx="335" cy="137" r="1" fill="#6A6A6A"/>
<circle cx="335" cy="205" r="1" fill="#6A6A6A"/>
<circle cx="335" cy="273" r="1" fill="#6A6A6A"/>
<circle cx="335" cy="341" r="1" fill="#6A6A6A"/>
<circle cx="335" cy="409" r="1" fill="#6A6A6A"/>
<circle cx="335" cy="477" r="1" fill="#6A6A6A"/>
<circle cx="335" cy="545" r="1" fill="#6A6A6A"/>
<circle cx="335" cy="613" r="1" fill="#6A6A6A"/>
<circle cx="335" cy="681" r="1" fill="#6A6A6A"/>
<circle cx="335" cy="749" r="1" fill="#6A6A6A"/>
<circle cx="335" cy="817" r="1" fill="#6A6A6A"/>
<circle cx="335" cy="35" r="1" fill="#6A6A6A"/>
<circle cx="335" cy="103" r="1" fill="#6A6A6A"/>
<circle cx="335" cy="171" r="1" fill="#6A6A6A"/>
<circle cx="335" cy="239" r="1" fill="#6A6A6A"/>
<circle cx="335" cy="307" r="1" fill="#6A6A6A"/>
<circle cx="335" cy="375" r="1" fill="#6A6A6A"/>
<circle cx="335" cy="443" r="1" fill="#6A6A6A"/>
<circle cx="335" cy="511" r="1" fill="#6A6A6A"/>
<circle cx="335" cy="579" r="1" fill="#6A6A6A"/>
<circle cx="335" cy="647" r="1" fill="#6A6A6A"/>
<circle cx="335" cy="715" r="1" fill="#6A6A6A"/>
<circle cx="335" cy="783" r="1" fill="#6A6A6A"/>
<circle cx="335" cy="851" r="1" fill="#6A6A6A"/>
<circle cx="368" cy="1" r="1" fill="#6A6A6A"/>
<circle cx="368" cy="69" r="1" fill="#6A6A6A"/>
<circle cx="368" cy="137" r="1" fill="#6A6A6A"/>
<circle cx="368" cy="205" r="1" fill="#6A6A6A"/>
<circle cx="368" cy="273" r="1" fill="#6A6A6A"/>
<circle cx="368" cy="341" r="1" fill="#6A6A6A"/>
<circle cx="368" cy="409" r="1" fill="#6A6A6A"/>
<circle cx="368" cy="477" r="1" fill="#6A6A6A"/>
<circle cx="368" cy="545" r="1" fill="#6A6A6A"/>
<circle cx="368" cy="613" r="1" fill="#6A6A6A"/>
<circle cx="368" cy="681" r="1" fill="#6A6A6A"/>
<circle cx="368" cy="749" r="1" fill="#6A6A6A"/>
<circle cx="368" cy="817" r="1" fill="#6A6A6A"/>
<circle cx="368" cy="35" r="1" fill="#6A6A6A"/>
<circle cx="368" cy="103" r="1" fill="#6A6A6A"/>
<circle cx="368" cy="171" r="1" fill="#6A6A6A"/>
<circle cx="368" cy="239" r="1" fill="#6A6A6A"/>
<circle cx="368" cy="307" r="1" fill="#6A6A6A"/>
<circle cx="368" cy="375" r="1" fill="#6A6A6A"/>
<circle cx="368" cy="443" r="1" fill="#6A6A6A"/>
<circle cx="368" cy="511" r="1" fill="#6A6A6A"/>
<circle cx="368" cy="579" r="1" fill="#6A6A6A"/>
<circle cx="368" cy="647" r="1" fill="#6A6A6A"/>
<circle cx="368" cy="715" r="1" fill="#6A6A6A"/>
<circle cx="368" cy="783" r="1" fill="#6A6A6A"/>
<circle cx="368" cy="851" r="1" fill="#6A6A6A"/>
<circle cx="401" cy="1" r="1" fill="#6A6A6A"/>
<circle cx="401" cy="69" r="1" fill="#6A6A6A"/>
<circle cx="401" cy="137" r="1" fill="#6A6A6A"/>
<circle cx="401" cy="205" r="1" fill="#6A6A6A"/>
<circle cx="401" cy="273" r="1" fill="#6A6A6A"/>
<circle cx="401" cy="341" r="1" fill="#6A6A6A"/>
<circle cx="401" cy="409" r="1" fill="#6A6A6A"/>
<circle cx="401" cy="477" r="1" fill="#6A6A6A"/>
<circle cx="401" cy="545" r="1" fill="#6A6A6A"/>
<circle cx="401" cy="613" r="1" fill="#6A6A6A"/>
<circle cx="401" cy="681" r="1" fill="#6A6A6A"/>
<circle cx="401" cy="749" r="1" fill="#6A6A6A"/>
<circle cx="401" cy="817" r="1" fill="#6A6A6A"/>
<circle cx="401" cy="35" r="1" fill="#6A6A6A"/>
<circle cx="401" cy="103" r="1" fill="#6A6A6A"/>
<circle cx="401" cy="171" r="1" fill="#6A6A6A"/>
<circle cx="401" cy="239" r="1" fill="#6A6A6A"/>
<circle cx="401" cy="307" r="1" fill="#6A6A6A"/>
<circle cx="401" cy="375" r="1" fill="#6A6A6A"/>
<circle cx="401" cy="443" r="1" fill="#6A6A6A"/>
<circle cx="401" cy="511" r="1" fill="#6A6A6A"/>
<circle cx="401" cy="579" r="1" fill="#6A6A6A"/>
<circle cx="401" cy="647" r="1" fill="#6A6A6A"/>
<circle cx="401" cy="715" r="1" fill="#6A6A6A"/>
<circle cx="401" cy="783" r="1" fill="#6A6A6A"/>
<circle cx="401" cy="851" r="1" fill="#6A6A6A"/>
<circle cx="435" cy="1" r="1" fill="#6A6A6A"/>
<circle cx="435" cy="69" r="1" fill="#6A6A6A"/>
<circle cx="435" cy="137" r="1" fill="#6A6A6A"/>
<circle cx="435" cy="205" r="1" fill="#6A6A6A"/>
<circle cx="435" cy="273" r="1" fill="#6A6A6A"/>
<circle cx="435" cy="341" r="1" fill="#6A6A6A"/>
<circle cx="435" cy="409" r="1" fill="#6A6A6A"/>
<circle cx="435" cy="477" r="1" fill="#6A6A6A"/>
<circle cx="435" cy="545" r="1" fill="#6A6A6A"/>
<circle cx="435" cy="613" r="1" fill="#6A6A6A"/>
<circle cx="435" cy="681" r="1" fill="#6A6A6A"/>
<circle cx="435" cy="749" r="1" fill="#6A6A6A"/>
<circle cx="435" cy="817" r="1" fill="#6A6A6A"/>
<circle cx="435" cy="35" r="1" fill="#6A6A6A"/>
<circle cx="435" cy="103" r="1" fill="#6A6A6A"/>
<circle cx="435" cy="171" r="1" fill="#6A6A6A"/>
<circle cx="435" cy="239" r="1" fill="#6A6A6A"/>
<circle cx="435" cy="307" r="1" fill="#6A6A6A"/>
<circle cx="435" cy="375" r="1" fill="#6A6A6A"/>
<circle cx="435" cy="443" r="1" fill="#6A6A6A"/>
<circle cx="435" cy="511" r="1" fill="#6A6A6A"/>
<circle cx="435" cy="579" r="1" fill="#6A6A6A"/>
<circle cx="435" cy="647" r="1" fill="#6A6A6A"/>
<circle cx="435" cy="715" r="1" fill="#6A6A6A"/>
<circle cx="435" cy="783" r="1" fill="#6A6A6A"/>
<circle cx="435" cy="851" r="1" fill="#6A6A6A"/>
<circle cx="468" cy="1" r="1" fill="#6A6A6A"/>
<circle cx="468" cy="69" r="1" fill="#6A6A6A"/>
<circle cx="468" cy="137" r="1" fill="#6A6A6A"/>
<circle cx="468" cy="205" r="1" fill="#6A6A6A"/>
<circle cx="468" cy="273" r="1" fill="#6A6A6A"/>
<circle cx="468" cy="341" r="1" fill="#6A6A6A"/>
<circle cx="468" cy="409" r="1" fill="#6A6A6A"/>
<circle cx="468" cy="477" r="1" fill="#6A6A6A"/>
<circle cx="468" cy="545" r="1" fill="#6A6A6A"/>
<circle cx="468" cy="613" r="1" fill="#6A6A6A"/>
<circle cx="468" cy="681" r="1" fill="#6A6A6A"/>
<circle cx="468" cy="749" r="1" fill="#6A6A6A"/>
<circle cx="468" cy="817" r="1" fill="#6A6A6A"/>
<circle cx="468" cy="35" r="1" fill="#6A6A6A"/>
<circle cx="468" cy="103" r="1" fill="#6A6A6A"/>
<circle cx="468" cy="171" r="1" fill="#6A6A6A"/>
<circle cx="468" cy="239" r="1" fill="#6A6A6A"/>
<circle cx="468" cy="307" r="1" fill="#6A6A6A"/>
<circle cx="468" cy="375" r="1" fill="#6A6A6A"/>
<circle cx="468" cy="443" r="1" fill="#6A6A6A"/>
<circle cx="468" cy="511" r="1" fill="#6A6A6A"/>
<circle cx="468" cy="579" r="1" fill="#6A6A6A"/>
<circle cx="468" cy="647" r="1" fill="#6A6A6A"/>
<circle cx="468" cy="715" r="1" fill="#6A6A6A"/>
<circle cx="468" cy="783" r="1" fill="#6A6A6A"/>
<circle cx="468" cy="851" r="1" fill="#6A6A6A"/>
<circle cx="502" cy="1" r="1" fill="#6A6A6A"/>
<circle cx="502" cy="69" r="1" fill="#6A6A6A"/>
<circle cx="502" cy="137" r="1" fill="#6A6A6A"/>
<circle cx="502" cy="205" r="1" fill="#6A6A6A"/>
<circle cx="502" cy="273" r="1" fill="#6A6A6A"/>
<circle cx="502" cy="341" r="1" fill="#6A6A6A"/>
<circle cx="502" cy="409" r="1" fill="#6A6A6A"/>
<circle cx="502" cy="477" r="1" fill="#6A6A6A"/>
<circle cx="502" cy="545" r="1" fill="#6A6A6A"/>
<circle cx="502" cy="613" r="1" fill="#6A6A6A"/>
<circle cx="502" cy="681" r="1" fill="#6A6A6A"/>
<circle cx="502" cy="749" r="1" fill="#6A6A6A"/>
<circle cx="502" cy="817" r="1" fill="#6A6A6A"/>
<circle cx="502" cy="35" r="1" fill="#6A6A6A"/>
<circle cx="502" cy="103" r="1" fill="#6A6A6A"/>
<circle cx="502" cy="171" r="1" fill="#6A6A6A"/>
<circle cx="502" cy="239" r="1" fill="#6A6A6A"/>
<circle cx="502" cy="307" r="1" fill="#6A6A6A"/>
<circle cx="502" cy="375" r="1" fill="#6A6A6A"/>
<circle cx="502" cy="443" r="1" fill="#6A6A6A"/>
<circle cx="502" cy="511" r="1" fill="#6A6A6A"/>
<circle cx="502" cy="579" r="1" fill="#6A6A6A"/>
<circle cx="502" cy="647" r="1" fill="#6A6A6A"/>
<circle cx="502" cy="715" r="1" fill="#6A6A6A"/>
<circle cx="502" cy="783" r="1" fill="#6A6A6A"/>
<circle cx="502" cy="851" r="1" fill="#6A6A6A"/>
<circle cx="535" cy="1" r="1" fill="#6A6A6A"/>
<circle cx="535" cy="69" r="1" fill="#6A6A6A"/>
<circle cx="535" cy="137" r="1" fill="#6A6A6A"/>
<circle cx="535" cy="205" r="1" fill="#6A6A6A"/>
<circle cx="535" cy="273" r="1" fill="#6A6A6A"/>
<circle cx="535" cy="341" r="1" fill="#6A6A6A"/>
<circle cx="535" cy="409" r="1" fill="#6A6A6A"/>
<circle cx="535" cy="477" r="1" fill="#6A6A6A"/>
<circle cx="535" cy="545" r="1" fill="#6A6A6A"/>
<circle cx="535" cy="613" r="1" fill="#6A6A6A"/>
<circle cx="535" cy="681" r="1" fill="#6A6A6A"/>
<circle cx="535" cy="749" r="1" fill="#6A6A6A"/>
<circle cx="535" cy="817" r="1" fill="#6A6A6A"/>
<circle cx="535" cy="35" r="1" fill="#6A6A6A"/>
<circle cx="535" cy="103" r="1" fill="#6A6A6A"/>
<circle cx="535" cy="171" r="1" fill="#6A6A6A"/>
<circle cx="535" cy="239" r="1" fill="#6A6A6A"/>
<circle cx="535" cy="307" r="1" fill="#6A6A6A"/>
<circle cx="535" cy="375" r="1" fill="#6A6A6A"/>
<circle cx="535" cy="443" r="1" fill="#6A6A6A"/>
<circle cx="535" cy="511" r="1" fill="#6A6A6A"/>
<circle cx="535" cy="579" r="1" fill="#6A6A6A"/>
<circle cx="535" cy="647" r="1" fill="#6A6A6A"/>
<circle cx="535" cy="715" r="1" fill="#6A6A6A"/>
<circle cx="535" cy="783" r="1" fill="#6A6A6A"/>
<circle cx="535" cy="851" r="1" fill="#6A6A6A"/>
<circle cx="568" cy="1" r="1" fill="#6A6A6A"/>
<circle cx="568" cy="69" r="1" fill="#6A6A6A"/>
<circle cx="568" cy="137" r="1" fill="#6A6A6A"/>
<circle cx="568" cy="205" r="1" fill="#6A6A6A"/>
<circle cx="568" cy="273" r="1" fill="#6A6A6A"/>
<circle cx="568" cy="341" r="1" fill="#6A6A6A"/>
<circle cx="568" cy="409" r="1" fill="#6A6A6A"/>
<circle cx="568" cy="477" r="1" fill="#6A6A6A"/>
<circle cx="568" cy="545" r="1" fill="#6A6A6A"/>
<circle cx="568" cy="613" r="1" fill="#6A6A6A"/>
<circle cx="568" cy="681" r="1" fill="#6A6A6A"/>
<circle cx="568" cy="749" r="1" fill="#6A6A6A"/>
<circle cx="568" cy="817" r="1" fill="#6A6A6A"/>
<circle cx="568" cy="35" r="1" fill="#6A6A6A"/>
<circle cx="568" cy="103" r="1" fill="#6A6A6A"/>
<circle cx="568" cy="171" r="1" fill="#6A6A6A"/>
<circle cx="568" cy="239" r="1" fill="#6A6A6A"/>
<circle cx="568" cy="307" r="1" fill="#6A6A6A"/>
<circle cx="568" cy="375" r="1" fill="#6A6A6A"/>
<circle cx="568" cy="443" r="1" fill="#6A6A6A"/>
<circle cx="568" cy="511" r="1" fill="#6A6A6A"/>
<circle cx="568" cy="579" r="1" fill="#6A6A6A"/>
<circle cx="568" cy="647" r="1" fill="#6A6A6A"/>
<circle cx="568" cy="715" r="1" fill="#6A6A6A"/>
<circle cx="568" cy="783" r="1" fill="#6A6A6A"/>
<circle cx="568" cy="851" r="1" fill="#6A6A6A"/>
<circle cx="602" cy="1" r="1" fill="#6A6A6A"/>
<circle cx="602" cy="69" r="1" fill="#6A6A6A"/>
<circle cx="602" cy="137" r="1" fill="#6A6A6A"/>
<circle cx="602" cy="205" r="1" fill="#6A6A6A"/>
<circle cx="602" cy="273" r="1" fill="#6A6A6A"/>
<circle cx="602" cy="341" r="1" fill="#6A6A6A"/>
<circle cx="602" cy="409" r="1" fill="#6A6A6A"/>
<circle cx="602" cy="477" r="1" fill="#6A6A6A"/>
<circle cx="602" cy="545" r="1" fill="#6A6A6A"/>
<circle cx="602" cy="613" r="1" fill="#6A6A6A"/>
<circle cx="602" cy="681" r="1" fill="#6A6A6A"/>
<circle cx="602" cy="749" r="1" fill="#6A6A6A"/>
<circle cx="602" cy="817" r="1" fill="#6A6A6A"/>
<circle cx="602" cy="35" r="1" fill="#6A6A6A"/>
<circle cx="602" cy="103" r="1" fill="#6A6A6A"/>
<circle cx="602" cy="171" r="1" fill="#6A6A6A"/>
<circle cx="602" cy="239" r="1" fill="#6A6A6A"/>
<circle cx="602" cy="307" r="1" fill="#6A6A6A"/>
<circle cx="602" cy="375" r="1" fill="#6A6A6A"/>
<circle cx="602" cy="443" r="1" fill="#6A6A6A"/>
<circle cx="602" cy="511" r="1" fill="#6A6A6A"/>
<circle cx="602" cy="579" r="1" fill="#6A6A6A"/>
<circle cx="602" cy="647" r="1" fill="#6A6A6A"/>
<circle cx="602" cy="715" r="1" fill="#6A6A6A"/>
<circle cx="602" cy="783" r="1" fill="#6A6A6A"/>
<circle cx="602" cy="851" r="1" fill="#6A6A6A"/>
<circle cx="635" cy="1" r="1" fill="#6A6A6A"/>
<circle cx="635" cy="69" r="1" fill="#6A6A6A"/>
<circle cx="635" cy="137" r="1" fill="#6A6A6A"/>
<circle cx="635" cy="205" r="1" fill="#6A6A6A"/>
<circle cx="635" cy="273" r="1" fill="#6A6A6A"/>
<circle cx="635" cy="341" r="1" fill="#6A6A6A"/>
<circle cx="635" cy="409" r="1" fill="#6A6A6A"/>
<circle cx="635" cy="477" r="1" fill="#6A6A6A"/>
<circle cx="635" cy="545" r="1" fill="#6A6A6A"/>
<circle cx="635" cy="613" r="1" fill="#6A6A6A"/>
<circle cx="635" cy="681" r="1" fill="#6A6A6A"/>
<circle cx="635" cy="749" r="1" fill="#6A6A6A"/>
<circle cx="635" cy="817" r="1" fill="#6A6A6A"/>
<circle cx="635" cy="35" r="1" fill="#6A6A6A"/>
<circle cx="635" cy="103" r="1" fill="#6A6A6A"/>
<circle cx="635" cy="171" r="1" fill="#6A6A6A"/>
<circle cx="635" cy="239" r="1" fill="#6A6A6A"/>
<circle cx="635" cy="307" r="1" fill="#6A6A6A"/>
<circle cx="635" cy="375" r="1" fill="#6A6A6A"/>
<circle cx="635" cy="443" r="1" fill="#6A6A6A"/>
<circle cx="635" cy="511" r="1" fill="#6A6A6A"/>
<circle cx="635" cy="579" r="1" fill="#6A6A6A"/>
<circle cx="635" cy="647" r="1" fill="#6A6A6A"/>
<circle cx="635" cy="715" r="1" fill="#6A6A6A"/>
<circle cx="635" cy="783" r="1" fill="#6A6A6A"/>
<circle cx="635" cy="851" r="1" fill="#6A6A6A"/>
<circle cx="668" cy="1" r="1" fill="#6A6A6A"/>
<circle cx="668" cy="69" r="1" fill="#6A6A6A"/>
<circle cx="668" cy="137" r="1" fill="#6A6A6A"/>
<circle cx="668" cy="205" r="1" fill="#6A6A6A"/>
<circle cx="668" cy="273" r="1" fill="#6A6A6A"/>
<circle cx="668" cy="341" r="1" fill="#6A6A6A"/>
<circle cx="668" cy="409" r="1" fill="#6A6A6A"/>
<circle cx="668" cy="477" r="1" fill="#6A6A6A"/>
<circle cx="668" cy="545" r="1" fill="#6A6A6A"/>
<circle cx="668" cy="613" r="1" fill="#6A6A6A"/>
<circle cx="668" cy="681" r="1" fill="#6A6A6A"/>
<circle cx="668" cy="749" r="1" fill="#6A6A6A"/>
<circle cx="668" cy="817" r="1" fill="#6A6A6A"/>
<circle cx="668" cy="35" r="1" fill="#6A6A6A"/>
<circle cx="668" cy="103" r="1" fill="#6A6A6A"/>
<circle cx="668" cy="171" r="1" fill="#6A6A6A"/>
<circle cx="668" cy="239" r="1" fill="#6A6A6A"/>
<circle cx="668" cy="307" r="1" fill="#6A6A6A"/>
<circle cx="668" cy="375" r="1" fill="#6A6A6A"/>
<circle cx="668" cy="443" r="1" fill="#6A6A6A"/>
<circle cx="668" cy="511" r="1" fill="#6A6A6A"/>
<circle cx="668" cy="579" r="1" fill="#6A6A6A"/>
<circle cx="668" cy="647" r="1" fill="#6A6A6A"/>
<circle cx="668" cy="715" r="1" fill="#6A6A6A"/>
<circle cx="668" cy="783" r="1" fill="#6A6A6A"/>
<circle cx="668" cy="851" r="1" fill="#6A6A6A"/>
<circle cx="702" cy="1" r="1" fill="#6A6A6A"/>
<circle cx="702" cy="69" r="1" fill="#6A6A6A"/>
<circle cx="702" cy="137" r="1" fill="#6A6A6A"/>
<circle cx="702" cy="205" r="1" fill="#6A6A6A"/>
<circle cx="702" cy="273" r="1" fill="#6A6A6A"/>
<circle cx="702" cy="341" r="1" fill="#6A6A6A"/>
<circle cx="702" cy="409" r="1" fill="#6A6A6A"/>
<circle cx="702" cy="477" r="1" fill="#6A6A6A"/>
<circle cx="702" cy="545" r="1" fill="#6A6A6A"/>
<circle cx="702" cy="613" r="1" fill="#6A6A6A"/>
<circle cx="702" cy="681" r="1" fill="#6A6A6A"/>
<circle cx="702" cy="749" r="1" fill="#6A6A6A"/>
<circle cx="702" cy="817" r="1" fill="#6A6A6A"/>
<circle cx="702" cy="35" r="1" fill="#6A6A6A"/>
<circle cx="702" cy="103" r="1" fill="#6A6A6A"/>
<circle cx="702" cy="171" r="1" fill="#6A6A6A"/>
<circle cx="702" cy="239" r="1" fill="#6A6A6A"/>
<circle cx="702" cy="307" r="1" fill="#6A6A6A"/>
<circle cx="702" cy="375" r="1" fill="#6A6A6A"/>
<circle cx="702" cy="443" r="1" fill="#6A6A6A"/>
<circle cx="702" cy="511" r="1" fill="#6A6A6A"/>
<circle cx="702" cy="579" r="1" fill="#6A6A6A"/>
<circle cx="702" cy="647" r="1" fill="#6A6A6A"/>
<circle cx="702" cy="715" r="1" fill="#6A6A6A"/>
<circle cx="702" cy="783" r="1" fill="#6A6A6A"/>
<circle cx="702" cy="851" r="1" fill="#6A6A6A"/>
<circle cx="735" cy="1" r="1" fill="#6A6A6A"/>
<circle cx="735" cy="69" r="1" fill="#6A6A6A"/>
<circle cx="735" cy="137" r="1" fill="#6A6A6A"/>
<circle cx="735" cy="205" r="1" fill="#6A6A6A"/>
<circle cx="735" cy="273" r="1" fill="#6A6A6A"/>
<circle cx="735" cy="341" r="1" fill="#6A6A6A"/>
<circle cx="735" cy="409" r="1" fill="#6A6A6A"/>
<circle cx="735" cy="477" r="1" fill="#6A6A6A"/>
<circle cx="735" cy="545" r="1" fill="#6A6A6A"/>
<circle cx="735" cy="613" r="1" fill="#6A6A6A"/>
<circle cx="735" cy="681" r="1" fill="#6A6A6A"/>
<circle cx="735" cy="749" r="1" fill="#6A6A6A"/>
<circle cx="735" cy="817" r="1" fill="#6A6A6A"/>
<circle cx="735" cy="35" r="1" fill="#6A6A6A"/>
<circle cx="735" cy="103" r="1" fill="#6A6A6A"/>
<circle cx="735" cy="171" r="1" fill="#6A6A6A"/>
<circle cx="735" cy="239" r="1" fill="#6A6A6A"/>
<circle cx="735" cy="307" r="1" fill="#6A6A6A"/>
<circle cx="735" cy="375" r="1" fill="#6A6A6A"/>
<circle cx="735" cy="443" r="1" fill="#6A6A6A"/>
<circle cx="735" cy="511" r="1" fill="#6A6A6A"/>
<circle cx="735" cy="579" r="1" fill="#6A6A6A"/>
<circle cx="735" cy="647" r="1" fill="#6A6A6A"/>
<circle cx="735" cy="715" r="1" fill="#6A6A6A"/>
<circle cx="735" cy="783" r="1" fill="#6A6A6A"/>
<circle cx="735" cy="851" r="1" fill="#6A6A6A"/>
<circle cx="768" cy="1" r="1" fill="#6A6A6A"/>
<circle cx="768" cy="69" r="1" fill="#6A6A6A"/>
<circle cx="768" cy="137" r="1" fill="#6A6A6A"/>
<circle cx="768" cy="205" r="1" fill="#6A6A6A"/>
<circle cx="768" cy="273" r="1" fill="#6A6A6A"/>
<circle cx="768" cy="341" r="1" fill="#6A6A6A"/>
<circle cx="768" cy="409" r="1" fill="#6A6A6A"/>
<circle cx="768" cy="477" r="1" fill="#6A6A6A"/>
<circle cx="768" cy="545" r="1" fill="#6A6A6A"/>
<circle cx="768" cy="613" r="1" fill="#6A6A6A"/>
<circle cx="768" cy="681" r="1" fill="#6A6A6A"/>
<circle cx="768" cy="749" r="1" fill="#6A6A6A"/>
<circle cx="768" cy="817" r="1" fill="#6A6A6A"/>
<circle cx="768" cy="35" r="1" fill="#6A6A6A"/>
<circle cx="768" cy="103" r="1" fill="#6A6A6A"/>
<circle cx="768" cy="171" r="1" fill="#6A6A6A"/>
<circle cx="768" cy="239" r="1" fill="#6A6A6A"/>
<circle cx="768" cy="307" r="1" fill="#6A6A6A"/>
<circle cx="768" cy="375" r="1" fill="#6A6A6A"/>
<circle cx="768" cy="443" r="1" fill="#6A6A6A"/>
<circle cx="768" cy="511" r="1" fill="#6A6A6A"/>
<circle cx="768" cy="579" r="1" fill="#6A6A6A"/>
<circle cx="768" cy="647" r="1" fill="#6A6A6A"/>
<circle cx="768" cy="715" r="1" fill="#6A6A6A"/>
<circle cx="768" cy="783" r="1" fill="#6A6A6A"/>
<circle cx="768" cy="851" r="1" fill="#6A6A6A"/>
<circle cx="802" cy="1" r="1" fill="#6A6A6A"/>
<circle cx="802" cy="69" r="1" fill="#6A6A6A"/>
<circle cx="802" cy="137" r="1" fill="#6A6A6A"/>
<circle cx="802" cy="205" r="1" fill="#6A6A6A"/>
<circle cx="802" cy="273" r="1" fill="#6A6A6A"/>
<circle cx="802" cy="341" r="1" fill="#6A6A6A"/>
<circle cx="802" cy="409" r="1" fill="#6A6A6A"/>
<circle cx="802" cy="477" r="1" fill="#6A6A6A"/>
<circle cx="802" cy="545" r="1" fill="#6A6A6A"/>
<circle cx="802" cy="613" r="1" fill="#6A6A6A"/>
<circle cx="802" cy="681" r="1" fill="#6A6A6A"/>
<circle cx="802" cy="749" r="1" fill="#6A6A6A"/>
<circle cx="802" cy="817" r="1" fill="#6A6A6A"/>
<circle cx="802" cy="35" r="1" fill="#6A6A6A"/>
<circle cx="802" cy="103" r="1" fill="#6A6A6A"/>
<circle cx="802" cy="171" r="1" fill="#6A6A6A"/>
<circle cx="802" cy="239" r="1" fill="#6A6A6A"/>
<circle cx="802" cy="307" r="1" fill="#6A6A6A"/>
<circle cx="802" cy="375" r="1" fill="#6A6A6A"/>
<circle cx="802" cy="443" r="1" fill="#6A6A6A"/>
<circle cx="802" cy="511" r="1" fill="#6A6A6A"/>
<circle cx="802" cy="579" r="1" fill="#6A6A6A"/>
<circle cx="802" cy="647" r="1" fill="#6A6A6A"/>
<circle cx="802" cy="715" r="1" fill="#6A6A6A"/>
<circle cx="802" cy="783" r="1" fill="#6A6A6A"/>
<circle cx="802" cy="851" r="1" fill="#6A6A6A"/>
<circle cx="835" cy="1" r="1" fill="#6A6A6A"/>
<circle cx="835" cy="69" r="1" fill="#6A6A6A"/>
<circle cx="835" cy="137" r="1" fill="#6A6A6A"/>
<circle cx="835" cy="205" r="1" fill="#6A6A6A"/>
<circle cx="835" cy="273" r="1" fill="#6A6A6A"/>
<circle cx="835" cy="341" r="1" fill="#6A6A6A"/>
<circle cx="835" cy="409" r="1" fill="#6A6A6A"/>
<circle cx="835" cy="477" r="1" fill="#6A6A6A"/>
<circle cx="835" cy="545" r="1" fill="#6A6A6A"/>
<circle cx="835" cy="613" r="1" fill="#6A6A6A"/>
<circle cx="835" cy="681" r="1" fill="#6A6A6A"/>
<circle cx="835" cy="749" r="1" fill="#6A6A6A"/>
<circle cx="835" cy="817" r="1" fill="#6A6A6A"/>
<circle cx="835" cy="35" r="1" fill="#6A6A6A"/>
<circle cx="835" cy="103" r="1" fill="#6A6A6A"/>
<circle cx="835" cy="171" r="1" fill="#6A6A6A"/>
<circle cx="835" cy="239" r="1" fill="#6A6A6A"/>
<circle cx="835" cy="307" r="1" fill="#6A6A6A"/>
<circle cx="835" cy="375" r="1" fill="#6A6A6A"/>
<circle cx="835" cy="443" r="1" fill="#6A6A6A"/>
<circle cx="835" cy="511" r="1" fill="#6A6A6A"/>
<circle cx="835" cy="579" r="1" fill="#6A6A6A"/>
<circle cx="835" cy="647" r="1" fill="#6A6A6A"/>
<circle cx="835" cy="715" r="1" fill="#6A6A6A"/>
<circle cx="835" cy="783" r="1" fill="#6A6A6A"/>
<circle cx="835" cy="851" r="1" fill="#6A6A6A"/>
<circle cx="869" cy="1" r="1" fill="#6A6A6A"/>
<circle cx="869" cy="69" r="1" fill="#6A6A6A"/>
<circle cx="869" cy="137" r="1" fill="#6A6A6A"/>
<circle cx="869" cy="205" r="1" fill="#6A6A6A"/>
<circle cx="869" cy="273" r="1" fill="#6A6A6A"/>
<circle cx="869" cy="341" r="1" fill="#6A6A6A"/>
<circle cx="869" cy="409" r="1" fill="#6A6A6A"/>
<circle cx="869" cy="477" r="1" fill="#6A6A6A"/>
<circle cx="869" cy="545" r="1" fill="#6A6A6A"/>
<circle cx="869" cy="613" r="1" fill="#6A6A6A"/>
<circle cx="869" cy="681" r="1" fill="#6A6A6A"/>
<circle cx="869" cy="749" r="1" fill="#6A6A6A"/>
<circle cx="869" cy="817" r="1" fill="#6A6A6A"/>
<circle cx="869" cy="35" r="1" fill="#6A6A6A"/>
<circle cx="869" cy="103" r="1" fill="#6A6A6A"/>
<circle cx="869" cy="171" r="1" fill="#6A6A6A"/>
<circle cx="869" cy="239" r="1" fill="#6A6A6A"/>
<circle cx="869" cy="307" r="1" fill="#6A6A6A"/>
<circle cx="869" cy="375" r="1" fill="#6A6A6A"/>
<circle cx="869" cy="443" r="1" fill="#6A6A6A"/>
<circle cx="869" cy="511" r="1" fill="#6A6A6A"/>
<circle cx="869" cy="579" r="1" fill="#6A6A6A"/>
<circle cx="869" cy="647" r="1" fill="#6A6A6A"/>
<circle cx="869" cy="715" r="1" fill="#6A6A6A"/>
<circle cx="869" cy="783" r="1" fill="#6A6A6A"/>
<circle cx="869" cy="851" r="1" fill="#6A6A6A"/>
<circle cx="902" cy="1" r="1" fill="#6A6A6A"/>
<circle cx="902" cy="69" r="1" fill="#6A6A6A"/>
<circle cx="902" cy="137" r="1" fill="#6A6A6A"/>
<circle cx="902" cy="205" r="1" fill="#6A6A6A"/>
<circle cx="902" cy="273" r="1" fill="#6A6A6A"/>
<circle cx="902" cy="341" r="1" fill="#6A6A6A"/>
<circle cx="902" cy="409" r="1" fill="#6A6A6A"/>
<circle cx="902" cy="477" r="1" fill="#6A6A6A"/>
<circle cx="902" cy="545" r="1" fill="#6A6A6A"/>
<circle cx="902" cy="613" r="1" fill="#6A6A6A"/>
<circle cx="902" cy="681" r="1" fill="#6A6A6A"/>
<circle cx="902" cy="749" r="1" fill="#6A6A6A"/>
<circle cx="902" cy="817" r="1" fill="#6A6A6A"/>
<circle cx="902" cy="35" r="1" fill="#6A6A6A"/>
<circle cx="902" cy="103" r="1" fill="#6A6A6A"/>
<circle cx="902" cy="171" r="1" fill="#6A6A6A"/>
<circle cx="902" cy="239" r="1" fill="#6A6A6A"/>
<circle cx="902" cy="307" r="1" fill="#6A6A6A"/>
<circle cx="902" cy="375" r="1" fill="#6A6A6A"/>
<circle cx="902" cy="443" r="1" fill="#6A6A6A"/>
<circle cx="902" cy="511" r="1" fill="#6A6A6A"/>
<circle cx="902" cy="579" r="1" fill="#6A6A6A"/>
<circle cx="902" cy="647" r="1" fill="#6A6A6A"/>
<circle cx="902" cy="715" r="1" fill="#6A6A6A"/>
<circle cx="902" cy="783" r="1" fill="#6A6A6A"/>
<circle cx="902" cy="851" r="1" fill="#6A6A6A"/>
<circle cx="935" cy="1" r="1" fill="#6A6A6A"/>
<circle cx="935" cy="69" r="1" fill="#6A6A6A"/>
<circle cx="935" cy="137" r="1" fill="#6A6A6A"/>
<circle cx="935" cy="205" r="1" fill="#6A6A6A"/>
<circle cx="935" cy="273" r="1" fill="#6A6A6A"/>
<circle cx="935" cy="341" r="1" fill="#6A6A6A"/>
<circle cx="935" cy="409" r="1" fill="#6A6A6A"/>
<circle cx="935" cy="477" r="1" fill="#6A6A6A"/>
<circle cx="935" cy="545" r="1" fill="#6A6A6A"/>
<circle cx="935" cy="613" r="1" fill="#6A6A6A"/>
<circle cx="935" cy="681" r="1" fill="#6A6A6A"/>
<circle cx="935" cy="749" r="1" fill="#6A6A6A"/>
<circle cx="935" cy="817" r="1" fill="#6A6A6A"/>
<circle cx="935" cy="35" r="1" fill="#6A6A6A"/>
<circle cx="935" cy="103" r="1" fill="#6A6A6A"/>
<circle cx="935" cy="171" r="1" fill="#6A6A6A"/>
<circle cx="935" cy="239" r="1" fill="#6A6A6A"/>
<circle cx="935" cy="307" r="1" fill="#6A6A6A"/>
<circle cx="935" cy="375" r="1" fill="#6A6A6A"/>
<circle cx="935" cy="443" r="1" fill="#6A6A6A"/>
<circle cx="935" cy="511" r="1" fill="#6A6A6A"/>
<circle cx="935" cy="579" r="1" fill="#6A6A6A"/>
<circle cx="935" cy="647" r="1" fill="#6A6A6A"/>
<circle cx="935" cy="715" r="1" fill="#6A6A6A"/>
<circle cx="935" cy="783" r="1" fill="#6A6A6A"/>
<circle cx="935" cy="851" r="1" fill="#6A6A6A"/>
<circle cx="969" cy="1" r="1" fill="#6A6A6A"/>
<circle cx="969" cy="69" r="1" fill="#6A6A6A"/>
<circle cx="969" cy="137" r="1" fill="#6A6A6A"/>
<circle cx="969" cy="205" r="1" fill="#6A6A6A"/>
<circle cx="969" cy="273" r="1" fill="#6A6A6A"/>
<circle cx="969" cy="341" r="1" fill="#6A6A6A"/>
<circle cx="969" cy="409" r="1" fill="#6A6A6A"/>
<circle cx="969" cy="477" r="1" fill="#6A6A6A"/>
<circle cx="969" cy="545" r="1" fill="#6A6A6A"/>
<circle cx="969" cy="613" r="1" fill="#6A6A6A"/>
<circle cx="969" cy="681" r="1" fill="#6A6A6A"/>
<circle cx="969" cy="749" r="1" fill="#6A6A6A"/>
<circle cx="969" cy="817" r="1" fill="#6A6A6A"/>
<circle cx="969" cy="35" r="1" fill="#6A6A6A"/>
<circle cx="969" cy="103" r="1" fill="#6A6A6A"/>
<circle cx="969" cy="171" r="1" fill="#6A6A6A"/>
<circle cx="969" cy="239" r="1" fill="#6A6A6A"/>
<circle cx="969" cy="307" r="1" fill="#6A6A6A"/>
<circle cx="969" cy="375" r="1" fill="#6A6A6A"/>
<circle cx="969" cy="443" r="1" fill="#6A6A6A"/>
<circle cx="969" cy="511" r="1" fill="#6A6A6A"/>
<circle cx="969" cy="579" r="1" fill="#6A6A6A"/>
<circle cx="969" cy="647" r="1" fill="#6A6A6A"/>
<circle cx="969" cy="715" r="1" fill="#6A6A6A"/>
<circle cx="969" cy="783" r="1" fill="#6A6A6A"/>
<circle cx="969" cy="851" r="1" fill="#6A6A6A"/>
<circle cx="1002" cy="1" r="1" fill="#6A6A6A"/>
<circle cx="1002" cy="69" r="1" fill="#6A6A6A"/>
<circle cx="1002" cy="137" r="1" fill="#6A6A6A"/>
<circle cx="1002" cy="205" r="1" fill="#6A6A6A"/>
<circle cx="1002" cy="273" r="1" fill="#6A6A6A"/>
<circle cx="1002" cy="341" r="1" fill="#6A6A6A"/>
<circle cx="1002" cy="409" r="1" fill="#6A6A6A"/>
<circle cx="1002" cy="477" r="1" fill="#6A6A6A"/>
<circle cx="1002" cy="545" r="1" fill="#6A6A6A"/>
<circle cx="1002" cy="613" r="1" fill="#6A6A6A"/>
<circle cx="1002" cy="681" r="1" fill="#6A6A6A"/>
<circle cx="1002" cy="749" r="1" fill="#6A6A6A"/>
<circle cx="1002" cy="817" r="1" fill="#6A6A6A"/>
<circle cx="1002" cy="35" r="1" fill="#6A6A6A"/>
<circle cx="1002" cy="103" r="1" fill="#6A6A6A"/>
<circle cx="1002" cy="171" r="1" fill="#6A6A6A"/>
<circle cx="1002" cy="239" r="1" fill="#6A6A6A"/>
<circle cx="1002" cy="307" r="1" fill="#6A6A6A"/>
<circle cx="1002" cy="375" r="1" fill="#6A6A6A"/>
<circle cx="1002" cy="443" r="1" fill="#6A6A6A"/>
<circle cx="1002" cy="511" r="1" fill="#6A6A6A"/>
<circle cx="1002" cy="579" r="1" fill="#6A6A6A"/>
<circle cx="1002" cy="647" r="1" fill="#6A6A6A"/>
<circle cx="1002" cy="715" r="1" fill="#6A6A6A"/>
<circle cx="1002" cy="783" r="1" fill="#6A6A6A"/>
<circle cx="1002" cy="851" r="1" fill="#6A6A6A"/>
<circle cx="1035" cy="1" r="1" fill="#6A6A6A"/>
<circle cx="1035" cy="69" r="1" fill="#6A6A6A"/>
<circle cx="1035" cy="137" r="1" fill="#6A6A6A"/>
<circle cx="1035" cy="205" r="1" fill="#6A6A6A"/>
<circle cx="1035" cy="273" r="1" fill="#6A6A6A"/>
<circle cx="1035" cy="341" r="1" fill="#6A6A6A"/>
<circle cx="1035" cy="409" r="1" fill="#6A6A6A"/>
<circle cx="1035" cy="477" r="1" fill="#6A6A6A"/>
<circle cx="1035" cy="545" r="1" fill="#6A6A6A"/>
<circle cx="1035" cy="613" r="1" fill="#6A6A6A"/>
<circle cx="1035" cy="681" r="1" fill="#6A6A6A"/>
<circle cx="1035" cy="749" r="1" fill="#6A6A6A"/>
<circle cx="1035" cy="817" r="1" fill="#6A6A6A"/>
<circle cx="1035" cy="35" r="1" fill="#6A6A6A"/>
<circle cx="1035" cy="103" r="1" fill="#6A6A6A"/>
<circle cx="1035" cy="171" r="1" fill="#6A6A6A"/>
<circle cx="1035" cy="239" r="1" fill="#6A6A6A"/>
<circle cx="1035" cy="307" r="1" fill="#6A6A6A"/>
<circle cx="1035" cy="375" r="1" fill="#6A6A6A"/>
<circle cx="1035" cy="443" r="1" fill="#6A6A6A"/>
<circle cx="1035" cy="511" r="1" fill="#6A6A6A"/>
<circle cx="1035" cy="579" r="1" fill="#6A6A6A"/>
<circle cx="1035" cy="647" r="1" fill="#6A6A6A"/>
<circle cx="1035" cy="715" r="1" fill="#6A6A6A"/>
<circle cx="1035" cy="783" r="1" fill="#6A6A6A"/>
<circle cx="1035" cy="851" r="1" fill="#6A6A6A"/>
<circle cx="1069" cy="1" r="1" fill="#6A6A6A"/>
<circle cx="1069" cy="69" r="1" fill="#6A6A6A"/>
<circle cx="1069" cy="137" r="1" fill="#6A6A6A"/>
<circle cx="1069" cy="205" r="1" fill="#6A6A6A"/>
<circle cx="1069" cy="273" r="1" fill="#6A6A6A"/>
<circle cx="1069" cy="341" r="1" fill="#6A6A6A"/>
<circle cx="1069" cy="409" r="1" fill="#6A6A6A"/>
<circle cx="1069" cy="477" r="1" fill="#6A6A6A"/>
<circle cx="1069" cy="545" r="1" fill="#6A6A6A"/>
<circle cx="1069" cy="613" r="1" fill="#6A6A6A"/>
<circle cx="1069" cy="681" r="1" fill="#6A6A6A"/>
<circle cx="1069" cy="749" r="1" fill="#6A6A6A"/>
<circle cx="1069" cy="817" r="1" fill="#6A6A6A"/>
<circle cx="1069" cy="35" r="1" fill="#6A6A6A"/>
<circle cx="1069" cy="103" r="1" fill="#6A6A6A"/>
<circle cx="1069" cy="171" r="1" fill="#6A6A6A"/>
<circle cx="1069" cy="239" r="1" fill="#6A6A6A"/>
<circle cx="1069" cy="307" r="1" fill="#6A6A6A"/>
<circle cx="1069" cy="375" r="1" fill="#6A6A6A"/>
<circle cx="1069" cy="443" r="1" fill="#6A6A6A"/>
<circle cx="1069" cy="511" r="1" fill="#6A6A6A"/>
<circle cx="1069" cy="579" r="1" fill="#6A6A6A"/>
<circle cx="1069" cy="647" r="1" fill="#6A6A6A"/>
<circle cx="1069" cy="715" r="1" fill="#6A6A6A"/>
<circle cx="1069" cy="783" r="1" fill="#6A6A6A"/>
<circle cx="1069" cy="851" r="1" fill="#6A6A6A"/>
<circle cx="1102" cy="1" r="1" fill="#6A6A6A"/>
<circle cx="1102" cy="69" r="1" fill="#6A6A6A"/>
<circle cx="1102" cy="137" r="1" fill="#6A6A6A"/>
<circle cx="1102" cy="205" r="1" fill="#6A6A6A"/>
<circle cx="1102" cy="273" r="1" fill="#6A6A6A"/>
<circle cx="1102" cy="341" r="1" fill="#6A6A6A"/>
<circle cx="1102" cy="409" r="1" fill="#6A6A6A"/>
<circle cx="1102" cy="477" r="1" fill="#6A6A6A"/>
<circle cx="1102" cy="545" r="1" fill="#6A6A6A"/>
<circle cx="1102" cy="613" r="1" fill="#6A6A6A"/>
<circle cx="1102" cy="681" r="1" fill="#6A6A6A"/>
<circle cx="1102" cy="749" r="1" fill="#6A6A6A"/>
<circle cx="1102" cy="817" r="1" fill="#6A6A6A"/>
<circle cx="1102" cy="35" r="1" fill="#6A6A6A"/>
<circle cx="1102" cy="103" r="1" fill="#6A6A6A"/>
<circle cx="1102" cy="171" r="1" fill="#6A6A6A"/>
<circle cx="1102" cy="239" r="1" fill="#6A6A6A"/>
<circle cx="1102" cy="307" r="1" fill="#6A6A6A"/>
<circle cx="1102" cy="375" r="1" fill="#6A6A6A"/>
<circle cx="1102" cy="443" r="1" fill="#6A6A6A"/>
<circle cx="1102" cy="511" r="1" fill="#6A6A6A"/>
<circle cx="1102" cy="579" r="1" fill="#6A6A6A"/>
<circle cx="1102" cy="647" r="1" fill="#6A6A6A"/>
<circle cx="1102" cy="715" r="1" fill="#6A6A6A"/>
<circle cx="1102" cy="783" r="1" fill="#6A6A6A"/>
<circle cx="1102" cy="851" r="1" fill="#6A6A6A"/>
<circle cx="1136" cy="1" r="1" fill="#6A6A6A"/>
<circle cx="1136" cy="69" r="1" fill="#6A6A6A"/>
<circle cx="1136" cy="137" r="1" fill="#6A6A6A"/>
<circle cx="1136" cy="205" r="1" fill="#6A6A6A"/>
<circle cx="1136" cy="273" r="1" fill="#6A6A6A"/>
<circle cx="1136" cy="341" r="1" fill="#6A6A6A"/>
<circle cx="1136" cy="409" r="1" fill="#6A6A6A"/>
<circle cx="1136" cy="477" r="1" fill="#6A6A6A"/>
<circle cx="1136" cy="545" r="1" fill="#6A6A6A"/>
<circle cx="1136" cy="613" r="1" fill="#6A6A6A"/>
<circle cx="1136" cy="681" r="1" fill="#6A6A6A"/>
<circle cx="1136" cy="749" r="1" fill="#6A6A6A"/>
<circle cx="1136" cy="817" r="1" fill="#6A6A6A"/>
<circle cx="1136" cy="35" r="1" fill="#6A6A6A"/>
<circle cx="1136" cy="103" r="1" fill="#6A6A6A"/>
<circle cx="1136" cy="171" r="1" fill="#6A6A6A"/>
<circle cx="1136" cy="239" r="1" fill="#6A6A6A"/>
<circle cx="1136" cy="307" r="1" fill="#6A6A6A"/>
<circle cx="1136" cy="375" r="1" fill="#6A6A6A"/>
<circle cx="1136" cy="443" r="1" fill="#6A6A6A"/>
<circle cx="1136" cy="511" r="1" fill="#6A6A6A"/>
<circle cx="1136" cy="579" r="1" fill="#6A6A6A"/>
<circle cx="1136" cy="647" r="1" fill="#6A6A6A"/>
<circle cx="1136" cy="715" r="1" fill="#6A6A6A"/>
<circle cx="1136" cy="783" r="1" fill="#6A6A6A"/>
<circle cx="1136" cy="851" r="1" fill="#6A6A6A"/>
<circle cx="1169" cy="1" r="1" fill="#6A6A6A"/>
<circle cx="1169" cy="69" r="1" fill="#6A6A6A"/>
<circle cx="1169" cy="137" r="1" fill="#6A6A6A"/>
<circle cx="1169" cy="205" r="1" fill="#6A6A6A"/>
<circle cx="1169" cy="273" r="1" fill="#6A6A6A"/>
<circle cx="1169" cy="341" r="1" fill="#6A6A6A"/>
<circle cx="1169" cy="409" r="1" fill="#6A6A6A"/>
<circle cx="1169" cy="477" r="1" fill="#6A6A6A"/>
<circle cx="1169" cy="545" r="1" fill="#6A6A6A"/>
<circle cx="1169" cy="613" r="1" fill="#6A6A6A"/>
<circle cx="1169" cy="681" r="1" fill="#6A6A6A"/>
<circle cx="1169" cy="749" r="1" fill="#6A6A6A"/>
<circle cx="1169" cy="817" r="1" fill="#6A6A6A"/>
<circle cx="1169" cy="35" r="1" fill="#6A6A6A"/>
<circle cx="1169" cy="103" r="1" fill="#6A6A6A"/>
<circle cx="1169" cy="171" r="1" fill="#6A6A6A"/>
<circle cx="1169" cy="239" r="1" fill="#6A6A6A"/>
<circle cx="1169" cy="307" r="1" fill="#6A6A6A"/>
<circle cx="1169" cy="375" r="1" fill="#6A6A6A"/>
<circle cx="1169" cy="443" r="1" fill="#6A6A6A"/>
<circle cx="1169" cy="511" r="1" fill="#6A6A6A"/>
<circle cx="1169" cy="579" r="1" fill="#6A6A6A"/>
<circle cx="1169" cy="647" r="1" fill="#6A6A6A"/>
<circle cx="1169" cy="715" r="1" fill="#6A6A6A"/>
<circle cx="1169" cy="783" r="1" fill="#6A6A6A"/>
<circle cx="1169" cy="851" r="1" fill="#6A6A6A"/>
<circle cx="1202" cy="1" r="1" fill="#6A6A6A"/>
<circle cx="1202" cy="69" r="1" fill="#6A6A6A"/>
<circle cx="1202" cy="137" r="1" fill="#6A6A6A"/>
<circle cx="1202" cy="205" r="1" fill="#6A6A6A"/>
<circle cx="1202" cy="273" r="1" fill="#6A6A6A"/>
<circle cx="1202" cy="341" r="1" fill="#6A6A6A"/>
<circle cx="1202" cy="409" r="1" fill="#6A6A6A"/>
<circle cx="1202" cy="477" r="1" fill="#6A6A6A"/>
<circle cx="1202" cy="545" r="1" fill="#6A6A6A"/>
<circle cx="1202" cy="613" r="1" fill="#6A6A6A"/>
<circle cx="1202" cy="681" r="1" fill="#6A6A6A"/>
<circle cx="1202" cy="749" r="1" fill="#6A6A6A"/>
<circle cx="1202" cy="817" r="1" fill="#6A6A6A"/>
<circle cx="1202" cy="35" r="1" fill="#6A6A6A"/>
<circle cx="1202" cy="103" r="1" fill="#6A6A6A"/>
<circle cx="1202" cy="171" r="1" fill="#6A6A6A"/>
<circle cx="1202" cy="239" r="1" fill="#6A6A6A"/>
<circle cx="1202" cy="307" r="1" fill="#6A6A6A"/>
<circle cx="1202" cy="375" r="1" fill="#6A6A6A"/>
<circle cx="1202" cy="443" r="1" fill="#6A6A6A"/>
<circle cx="1202" cy="511" r="1" fill="#6A6A6A"/>
<circle cx="1202" cy="579" r="1" fill="#6A6A6A"/>
<circle cx="1202" cy="647" r="1" fill="#6A6A6A"/>
<circle cx="1202" cy="715" r="1" fill="#6A6A6A"/>
<circle cx="1202" cy="783" r="1" fill="#6A6A6A"/>
<circle cx="1202" cy="851" r="1" fill="#6A6A6A"/>
<circle cx="1236" cy="1" r="1" fill="#6A6A6A"/>
<circle cx="1236" cy="69" r="1" fill="#6A6A6A"/>
<circle cx="1236" cy="137" r="1" fill="#6A6A6A"/>
<circle cx="1236" cy="205" r="1" fill="#6A6A6A"/>
<circle cx="1236" cy="273" r="1" fill="#6A6A6A"/>
<circle cx="1236" cy="341" r="1" fill="#6A6A6A"/>
<circle cx="1236" cy="409" r="1" fill="#6A6A6A"/>
<circle cx="1236" cy="477" r="1" fill="#6A6A6A"/>
<circle cx="1236" cy="545" r="1" fill="#6A6A6A"/>
<circle cx="1236" cy="613" r="1" fill="#6A6A6A"/>
<circle cx="1236" cy="681" r="1" fill="#6A6A6A"/>
<circle cx="1236" cy="749" r="1" fill="#6A6A6A"/>
<circle cx="1236" cy="817" r="1" fill="#6A6A6A"/>
<circle cx="1236" cy="35" r="1" fill="#6A6A6A"/>
<circle cx="1236" cy="103" r="1" fill="#6A6A6A"/>
<circle cx="1236" cy="171" r="1" fill="#6A6A6A"/>
<circle cx="1236" cy="239" r="1" fill="#6A6A6A"/>
<circle cx="1236" cy="307" r="1" fill="#6A6A6A"/>
<circle cx="1236" cy="375" r="1" fill="#6A6A6A"/>
<circle cx="1236" cy="443" r="1" fill="#6A6A6A"/>
<circle cx="1236" cy="511" r="1" fill="#6A6A6A"/>
<circle cx="1236" cy="579" r="1" fill="#6A6A6A"/>
<circle cx="1236" cy="647" r="1" fill="#6A6A6A"/>
<circle cx="1236" cy="715" r="1" fill="#6A6A6A"/>
<circle cx="1236" cy="783" r="1" fill="#6A6A6A"/>
<circle cx="1236" cy="851" r="1" fill="#6A6A6A"/>
<circle cx="1269" cy="1" r="1" fill="#6A6A6A"/>
<circle cx="1269" cy="69" r="1" fill="#6A6A6A"/>
<circle cx="1269" cy="137" r="1" fill="#6A6A6A"/>
<circle cx="1269" cy="205" r="1" fill="#6A6A6A"/>
<circle cx="1269" cy="273" r="1" fill="#6A6A6A"/>
<circle cx="1269" cy="341" r="1" fill="#6A6A6A"/>
<circle cx="1269" cy="409" r="1" fill="#6A6A6A"/>
<circle cx="1269" cy="477" r="1" fill="#6A6A6A"/>
<circle cx="1269" cy="545" r="1" fill="#6A6A6A"/>
<circle cx="1269" cy="613" r="1" fill="#6A6A6A"/>
<circle cx="1269" cy="681" r="1" fill="#6A6A6A"/>
<circle cx="1269" cy="749" r="1" fill="#6A6A6A"/>
<circle cx="1269" cy="817" r="1" fill="#6A6A6A"/>
<circle cx="1269" cy="35" r="1" fill="#6A6A6A"/>
<circle cx="1269" cy="103" r="1" fill="#6A6A6A"/>
<circle cx="1269" cy="171" r="1" fill="#6A6A6A"/>
<circle cx="1269" cy="239" r="1" fill="#6A6A6A"/>
<circle cx="1269" cy="307" r="1" fill="#6A6A6A"/>
<circle cx="1269" cy="375" r="1" fill="#6A6A6A"/>
<circle cx="1269" cy="443" r="1" fill="#6A6A6A"/>
<circle cx="1269" cy="511" r="1" fill="#6A6A6A"/>
<circle cx="1269" cy="579" r="1" fill="#6A6A6A"/>
<circle cx="1269" cy="647" r="1" fill="#6A6A6A"/>
<circle cx="1269" cy="715" r="1" fill="#6A6A6A"/>
<circle cx="1269" cy="783" r="1" fill="#6A6A6A"/>
<circle cx="1269" cy="851" r="1" fill="#6A6A6A"/>
</svg>
