<svg width="1703" height="656" viewBox="0 0 1703 656" fill="none" xmlns="http://www.w3.org/2000/svg">
<g filter="url(#filter0_d)">
<path fill-rule="evenodd" clip-rule="evenodd" d="M3 13C3 7.47715 7.47715 3 13 3H1690C1695.52 3 1700 7.47715 1700 13V643C1700 648.523 1695.52 653 1690 653H13C7.47716 653 3 648.523 3 643V13Z" fill="#1C1C24"/>
</g>
<path fill-rule="evenodd" clip-rule="evenodd" d="M28 449C28 449 76.6251 439.828 144.527 434.429C179.738 431.629 220.133 428.299 261.619 424.947C300.665 421.792 340.678 418.618 378.245 415.851C400.146 414.238 481.719 408.918 496.441 408.068C554.492 404.714 562.826 400.753 614.072 401.69C639.189 402.149 673.508 401.69 731.287 401.69C775.643 401.69 811.061 400.225 847.231 398.153C889.301 395.742 925.94 393.21 963.966 389.31C1002.87 385.319 1042.54 385.98 1086.36 381.66C1122.82 378.064 1162.53 374.584 1208.05 371.601C1221.42 370.726 1296.73 366.837 1325.09 365.838C1359.46 364.628 1399.45 361.509 1443.32 360.57C1479.46 359.797 1492.15 356.837 1558.79 354.38C1625.42 351.923 1676 350.401 1676 350.401L1676 342C1676 342 1597.72 345.924 1558.79 345.537C1552.09 345.471 1509.8 348.19 1439.82 349.959C1413.4 350.626 1375.99 354.231 1324.36 356.591C1298.72 357.763 1257.88 358.802 1207.14 360.57C1180.18 361.51 1138.91 362.979 1086.43 365.632C1060.31 366.953 1018.2 368.087 963.966 367.645C935.808 367.415 896.896 366.27 847.231 364.208C819.444 363.055 780.272 364.107 731.287 362.781C701.176 361.966 663.057 365.472 614.072 366.318C582.874 366.857 540.594 369.413 495.108 371.601C466.327 372.986 425.13 375.161 378.245 380.909C355.343 383.717 313.164 384.401 260.679 391.475C238.695 394.439 208.811 396.811 143.465 401.69C66.4883 407.438 28 410.533 28 410.533L28 449Z" fill="#FC5A5A"/>
<path fill-rule="evenodd" clip-rule="evenodd" d="M28 410C28 410 110.344 404.052 143.7 401.553C195.563 397.667 234.83 394.546 261.501 392.19C306.567 388.209 345.947 384.289 379.643 380.43C415.191 376.359 452.033 374.099 496.858 371.603C537.236 369.355 577.219 367.747 613.51 366.514C677.776 364.33 727.002 363.543 730.617 363.458C769.251 362.553 806.7 363.493 847.169 364.693C883.043 365.758 921.29 367.028 964.841 367.4C1001.13 367.71 1041.09 367.398 1086.44 365.825C1098.68 365.4 1111.32 364.883 1124.39 364.261C1145.97 363.235 1173.89 362.035 1208.37 360.703C1241.07 359.44 1279.67 358.06 1324.36 356.598C1359.89 355.435 1398.58 352.614 1441.57 351.302C1478.08 350.187 1506.07 346.899 1558.79 346.006C1611.5 345.112 1676 343.357 1676 343.357L1676 331L1558.79 332.765C1558.79 332.765 1482.16 334.898 1443.32 333.648C1433.06 333.318 1393.81 334.401 1324.36 336.737C1298.11 337.62 1263.13 338.061 1208.37 339.827C1179.03 340.773 1140.18 346.366 1086.43 342.916C1060.33 341.242 1018.89 349.42 963.966 343.358C940.508 340.768 909.732 343.799 848.501 342.034C802.336 340.703 729.537 338.061 729.537 338.061C729.537 338.061 651.198 336.367 612.323 335.413C601.734 335.154 565.087 334.972 495.108 342.034C480.258 343.532 439.125 346.006 377.894 349.536C355.996 350.799 311.414 349.536 260.679 352.626C239.346 353.925 192.45 357.922 143.465 363.458C100.113 368.358 28 377.782 28 377.782L28 410Z" fill="#FFC542"/>
<path fill-rule="evenodd" clip-rule="evenodd" d="M28 335.274C28 335.274 79.7699 331.885 143.465 326.441C157.184 325.268 224.206 314.949 260.679 321.141C294.374 326.861 335.96 318.402 379.643 322.466C417.208 325.961 455.819 318.459 495.108 320.699C536.079 323.036 577.527 318.415 614.072 318.933C662.432 319.618 701.432 314.808 729.537 316.283C752.782 317.502 820.164 314.324 847.451 318.933C884.868 325.252 924.894 319.74 964.199 324.674C1007.37 330.093 1049.97 328.793 1086.43 328.208C1116.54 327.724 1125.96 326.314 1208.4 324.233C1225.89 323.791 1211.04 319.269 1324.36 320.699C1359.35 321.141 1404.4 319.374 1442.23 320.258C1480.06 321.141 1508.47 322.759 1560.54 323.349C1612.6 323.939 1676 322.466 1676 322.466L1676 333.066C1676 333.066 1621.64 335.767 1560.54 335.274C1499.43 334.782 1478.72 336.528 1442.23 336.483C1402.64 336.435 1357.03 337.172 1324.36 338.366C1278.29 340.05 1240.57 341.389 1208.4 342.453C1157.63 344.131 1120.66 345.124 1086.47 345.706C1047.55 346.368 1012.22 346.497 964.199 346.497C928.819 346.497 888.756 345.349 847.451 343.865C808.575 342.468 768.597 340.773 730.388 339.459C687.799 337.994 647.407 337.001 613.184 337.418C602.903 337.544 593.178 337.796 584.118 338.202C553.429 339.575 524.592 341.528 496.199 343.554C457.402 346.321 419.434 349.225 378.706 350.971C356.955 351.904 334.416 352.507 310.543 352.582C295.508 352.63 279.153 353.103 261.476 354.003C236.188 355.289 197.043 358.933 144.043 364.933C110.81 368.695 28 379 28 379L28 335.274Z" fill="#1E75FF"/>
<path fill-rule="evenodd" clip-rule="evenodd" d="M28 253C63.8201 261.403 103.084 268.037 144.497 273.231C181.909 277.924 221.074 281.442 261.039 284.029C299.877 286.544 339.47 288.179 378.943 289.159C418.367 290.138 457.671 290.463 495.981 290.358C536.192 290.247 575.309 289.661 612.323 288.858C652.508 287.987 688.997 288.202 730.17 288.858C769.272 289.481 808.661 290.604 848.039 291.865C887.024 293.114 925.997 294.5 964.668 295.672C1005.63 296.913 1046.25 297.915 1086.18 298.263C1114.12 298.506 1141.74 298.51 1168.89 297.965C1179.95 297.742 1192.99 297.655 1208.01 297.704C1238.84 297.804 1277.98 298.476 1325.46 299.719C1360.1 300.626 1398.72 303.537 1442.23 305.053C1478.44 306.314 1508.12 308.282 1560.54 309.579C1612.95 310.876 1676 313.2 1676 313.2L1676 324.33C1676 324.33 1622 324.8 1560.54 324.33C1499.07 323.859 1476.18 321.874 1442.23 321.369C1400.14 320.742 1349.59 321.121 1324.36 321.8C1281.5 322.954 1243.82 324.474 1208.38 325.858C1166.13 327.508 1127.06 328.965 1086.18 329.377C1048.62 329.756 1009.53 329.252 965.04 327.205C949.159 326.475 932.59 325.548 915.157 324.394C893.337 322.949 870.891 321.839 848.097 321.006C809.419 319.591 769.738 318.974 730.408 318.874C690.576 318.773 651.104 319.204 613.401 319.875C571.358 320.624 531.514 321.672 495.82 322.618C473.78 323.202 397.925 324.968 377.894 324.968C343.341 324.968 335.803 324.242 261.334 324.33C252.851 324.34 173.786 325.478 143.864 327.36C105.511 329.772 28 339 28 339C28 339 28 291.474 28 253Z" fill="#33C758"/>
<line x1="253.5" y1="201" x2="253.5" y2="495" stroke="#BDBDBD"/>
<line x1="658.5" y1="201" x2="658.5" y2="495" stroke="#BDBDBD"/>
<line x1="998.5" y1="201" x2="998.5" y2="495" stroke="#BDBDBD"/>
<line x1="1407.5" y1="201" x2="1407.5" y2="495" stroke="#BDBDBD"/>
<g clip-path="url(#clip0)" filter="url(#filter1_d)">
<path fill-rule="evenodd" clip-rule="evenodd" d="M541.001 280C538.792 280 537.001 281.791 537.001 284V338.013L531.878 342.495C530.968 343.292 530.968 344.708 531.878 345.505L537.001 349.987V404C537.001 406.209 538.792 408 541.001 408H684.001C686.21 408 688.001 406.209 688.001 404V284C688.001 281.791 686.21 280 684.001 280H541.001Z" fill="#373747"/>
</g>
<path d="M574.726 303.896H576.008V304.854H574.726V307H573.545V304.854H569.336V304.163L573.475 297.758H574.726V303.896ZM570.669 303.896H573.545V299.364L573.405 299.618L570.669 303.896ZM583.035 298.418L579.207 307H577.976L581.791 298.723H576.789V297.758H583.035V298.418ZM586.075 301.808H586.958C587.512 301.799 587.948 301.653 588.265 301.37C588.583 301.086 588.741 300.703 588.741 300.221C588.741 299.137 588.202 298.596 587.123 298.596C586.615 298.596 586.208 298.742 585.904 299.034C585.603 299.321 585.453 299.704 585.453 300.183H584.279C584.279 299.451 584.545 298.843 585.079 298.361C585.616 297.874 586.297 297.631 587.123 297.631C587.994 297.631 588.678 297.861 589.173 298.323C589.668 298.784 589.916 299.425 589.916 300.246C589.916 300.648 589.784 301.037 589.522 301.414C589.264 301.791 588.91 302.072 588.462 302.258C588.97 302.419 589.361 302.686 589.636 303.058C589.916 303.431 590.055 303.885 590.055 304.423C590.055 305.252 589.784 305.91 589.243 306.397C588.701 306.884 587.996 307.127 587.129 307.127C586.261 307.127 585.555 306.892 585.009 306.422C584.467 305.953 584.196 305.333 584.196 304.562H585.377C585.377 305.049 585.536 305.438 585.853 305.73C586.17 306.022 586.596 306.168 587.129 306.168C587.696 306.168 588.13 306.02 588.43 305.724C588.731 305.428 588.881 305.003 588.881 304.448C588.881 303.911 588.716 303.498 588.386 303.21C588.056 302.923 587.58 302.775 586.958 302.766H586.075V301.808ZM591.813 306.384C591.813 306.181 591.873 306.012 591.991 305.876C592.114 305.741 592.296 305.673 592.537 305.673C592.778 305.673 592.96 305.741 593.083 305.876C593.21 306.012 593.273 306.181 593.273 306.384C593.273 306.579 593.21 306.742 593.083 306.873C592.96 307.004 592.778 307.07 592.537 307.07C592.296 307.07 592.114 307.004 591.991 306.873C591.873 306.742 591.813 306.579 591.813 306.384ZM600.7 300.17C600.7 300.631 600.577 301.042 600.332 301.401C600.091 301.761 599.763 302.042 599.348 302.246C599.831 302.453 600.211 302.756 600.491 303.153C600.774 303.551 600.916 304.002 600.916 304.505C600.916 305.305 600.645 305.942 600.104 306.416C599.566 306.89 598.857 307.127 597.977 307.127C597.088 307.127 596.375 306.89 595.838 306.416C595.305 305.938 595.038 305.301 595.038 304.505C595.038 304.006 595.174 303.555 595.444 303.153C595.719 302.751 596.098 302.447 596.581 302.239C596.17 302.036 595.846 301.755 595.609 301.395C595.372 301.035 595.254 300.627 595.254 300.17C595.254 299.391 595.504 298.773 596.003 298.316C596.502 297.859 597.16 297.631 597.977 297.631C598.79 297.631 599.445 297.859 599.945 298.316C600.448 298.773 600.7 299.391 600.7 300.17ZM599.742 304.48C599.742 303.964 599.577 303.543 599.247 303.217C598.921 302.891 598.493 302.728 597.964 302.728C597.435 302.728 597.01 302.889 596.688 303.21C596.371 303.532 596.212 303.955 596.212 304.48C596.212 305.005 596.367 305.417 596.676 305.718C596.989 306.018 597.423 306.168 597.977 306.168C598.527 306.168 598.959 306.018 599.272 305.718C599.585 305.413 599.742 305 599.742 304.48ZM597.977 298.596C597.516 298.596 597.141 298.74 596.854 299.027C596.57 299.311 596.428 299.698 596.428 300.189C596.428 300.659 596.568 301.04 596.847 301.332C597.131 301.619 597.507 301.763 597.977 301.763C598.447 301.763 598.821 301.619 599.101 301.332C599.384 301.04 599.526 300.659 599.526 300.189C599.526 299.719 599.38 299.336 599.088 299.04C598.796 298.744 598.426 298.596 597.977 298.596ZM607.353 303.896H608.635V304.854H607.353V307H606.172V304.854H601.963V304.163L606.102 297.758H607.353V303.896ZM603.296 303.896H606.172V299.364L606.032 299.618L603.296 303.896ZM611.402 301.808H612.285C612.839 301.799 613.275 301.653 613.592 301.37C613.91 301.086 614.068 300.703 614.068 300.221C614.068 299.137 613.529 298.596 612.45 298.596C611.942 298.596 611.536 298.742 611.231 299.034C610.931 299.321 610.78 299.704 610.78 300.183H609.606C609.606 299.451 609.873 298.843 610.406 298.361C610.943 297.874 611.625 297.631 612.45 297.631C613.321 297.631 614.005 297.861 614.5 298.323C614.995 298.784 615.243 299.425 615.243 300.246C615.243 300.648 615.111 301.037 614.849 301.414C614.591 301.791 614.238 302.072 613.789 302.258C614.297 302.419 614.688 302.686 614.963 303.058C615.243 303.431 615.382 303.885 615.382 304.423C615.382 305.252 615.111 305.91 614.57 306.397C614.028 306.884 613.324 307.127 612.456 307.127C611.589 307.127 610.882 306.892 610.336 306.422C609.794 305.953 609.523 305.333 609.523 304.562H610.704C610.704 305.049 610.863 305.438 611.18 305.73C611.498 306.022 611.923 306.168 612.456 306.168C613.023 306.168 613.457 306.02 613.757 305.724C614.058 305.428 614.208 305.003 614.208 304.448C614.208 303.911 614.043 303.498 613.713 303.21C613.383 302.923 612.907 302.775 612.285 302.766H611.402V301.808Z" fill="white"/>
<path fill-rule="evenodd" clip-rule="evenodd" d="M557 306C559.209 306 561 304.209 561 302C561 299.791 559.209 298 557 298C554.791 298 553 299.791 553 302C553 304.209 554.791 306 557 306Z" fill="#33C758"/>
<path d="M575.373 327.17C575.373 327.631 575.25 328.042 575.005 328.401C574.764 328.761 574.436 329.042 574.021 329.246C574.503 329.453 574.884 329.756 575.164 330.153C575.447 330.551 575.589 331.002 575.589 331.505C575.589 332.305 575.318 332.942 574.776 333.416C574.239 333.89 573.53 334.127 572.65 334.127C571.761 334.127 571.048 333.89 570.511 333.416C569.978 332.938 569.711 332.301 569.711 331.505C569.711 331.006 569.846 330.555 570.117 330.153C570.392 329.751 570.771 329.447 571.253 329.239C570.843 329.036 570.519 328.755 570.282 328.395C570.045 328.035 569.927 327.627 569.927 327.17C569.927 326.391 570.176 325.773 570.676 325.316C571.175 324.859 571.833 324.631 572.65 324.631C573.462 324.631 574.118 324.859 574.618 325.316C575.121 325.773 575.373 326.391 575.373 327.17ZM574.415 331.48C574.415 330.964 574.25 330.543 573.919 330.217C573.594 329.891 573.166 329.728 572.637 329.728C572.108 329.728 571.683 329.889 571.361 330.21C571.044 330.532 570.885 330.955 570.885 331.48C570.885 332.005 571.04 332.417 571.349 332.718C571.662 333.018 572.096 333.168 572.65 333.168C573.2 333.168 573.632 333.018 573.945 332.718C574.258 332.413 574.415 332 574.415 331.48ZM572.65 325.596C572.189 325.596 571.814 325.74 571.526 326.027C571.243 326.311 571.101 326.698 571.101 327.189C571.101 327.659 571.241 328.04 571.52 328.332C571.804 328.619 572.18 328.763 572.65 328.763C573.12 328.763 573.494 328.619 573.773 328.332C574.057 328.04 574.199 327.659 574.199 327.189C574.199 326.719 574.053 326.336 573.761 326.04C573.469 325.744 573.098 325.596 572.65 325.596ZM578.775 328.808H579.658C580.212 328.799 580.648 328.653 580.965 328.37C581.283 328.086 581.441 327.703 581.441 327.221C581.441 326.137 580.902 325.596 579.823 325.596C579.315 325.596 578.909 325.742 578.604 326.034C578.304 326.321 578.153 326.704 578.153 327.183H576.979C576.979 326.451 577.246 325.843 577.779 325.361C578.316 324.874 578.998 324.631 579.823 324.631C580.694 324.631 581.378 324.861 581.873 325.323C582.368 325.784 582.616 326.425 582.616 327.246C582.616 327.648 582.485 328.037 582.222 328.414C581.964 328.791 581.611 329.072 581.162 329.258C581.67 329.419 582.061 329.686 582.336 330.058C582.616 330.431 582.755 330.885 582.755 331.423C582.755 332.252 582.485 332.91 581.943 333.397C581.401 333.884 580.697 334.127 579.829 334.127C578.962 334.127 578.255 333.892 577.709 333.422C577.167 332.953 576.896 332.333 576.896 331.562H578.077C578.077 332.049 578.236 332.438 578.553 332.73C578.871 333.022 579.296 333.168 579.829 333.168C580.396 333.168 580.83 333.02 581.13 332.724C581.431 332.428 581.581 332.003 581.581 331.448C581.581 330.911 581.416 330.498 581.086 330.21C580.756 329.923 580.28 329.775 579.658 329.766H578.775V328.808ZM584.514 333.384C584.514 333.181 584.573 333.012 584.691 332.876C584.814 332.741 584.996 332.673 585.237 332.673C585.479 332.673 585.66 332.741 585.783 332.876C585.91 333.012 585.974 333.181 585.974 333.384C585.974 333.579 585.91 333.742 585.783 333.873C585.66 334.004 585.479 334.07 585.237 334.07C584.996 334.07 584.814 334.004 584.691 333.873C584.573 333.742 584.514 333.579 584.514 333.384ZM592.296 329.938C592.05 330.229 591.756 330.464 591.414 330.642C591.075 330.82 590.703 330.909 590.296 330.909C589.763 330.909 589.298 330.778 588.9 330.515C588.506 330.253 588.202 329.885 587.986 329.411C587.77 328.932 587.662 328.406 587.662 327.83C587.662 327.212 587.778 326.656 588.011 326.161C588.248 325.666 588.583 325.287 589.014 325.024C589.446 324.762 589.949 324.631 590.525 324.631C591.439 324.631 592.158 324.974 592.683 325.659C593.212 326.34 593.477 327.271 593.477 328.452V328.795C593.477 330.593 593.121 331.907 592.41 332.737C591.699 333.562 590.626 333.985 589.192 334.006H588.963V333.016H589.211C590.18 332.999 590.925 332.747 591.445 332.261C591.966 331.77 592.249 330.995 592.296 329.938ZM590.487 329.938C590.88 329.938 591.242 329.817 591.572 329.576C591.907 329.334 592.15 329.036 592.302 328.681V328.211C592.302 327.441 592.135 326.814 591.801 326.332C591.466 325.85 591.043 325.608 590.531 325.608C590.015 325.608 589.6 325.807 589.287 326.205C588.974 326.599 588.817 327.119 588.817 327.767C588.817 328.397 588.968 328.918 589.268 329.328C589.573 329.734 589.979 329.938 590.487 329.938ZM600.053 330.896H601.335V331.854H600.053V334H598.872V331.854H594.664V331.163L598.802 324.758H600.053V330.896ZM595.997 330.896H598.872V326.364L598.732 326.618L595.997 330.896ZM606.896 329.938C606.65 330.229 606.356 330.464 606.013 330.642C605.675 330.82 605.302 330.909 604.896 330.909C604.363 330.909 603.897 330.778 603.5 330.515C603.106 330.253 602.801 329.885 602.585 329.411C602.37 328.932 602.262 328.406 602.262 327.83C602.262 327.212 602.378 326.656 602.611 326.161C602.848 325.666 603.182 325.287 603.614 325.024C604.045 324.762 604.549 324.631 605.125 324.631C606.039 324.631 606.758 324.974 607.283 325.659C607.812 326.34 608.076 327.271 608.076 328.452V328.795C608.076 330.593 607.721 331.907 607.01 332.737C606.299 333.562 605.226 333.985 603.792 334.006H603.563V333.016H603.811C604.78 332.999 605.524 332.747 606.045 332.261C606.565 331.77 606.849 330.995 606.896 329.938ZM605.086 329.938C605.48 329.938 605.842 329.817 606.172 329.576C606.506 329.334 606.75 329.036 606.902 328.681V328.211C606.902 327.441 606.735 326.814 606.4 326.332C606.066 325.85 605.643 325.608 605.131 325.608C604.615 325.608 604.2 325.807 603.887 326.205C603.574 326.599 603.417 327.119 603.417 327.767C603.417 328.397 603.567 328.918 603.868 329.328C604.172 329.734 604.579 329.938 605.086 329.938Z" fill="white"/>
<path fill-rule="evenodd" clip-rule="evenodd" d="M557 333C559.209 333 561 331.209 561 329C561 326.791 559.209 325 557 325C554.791 325 553 326.791 553 329C553 331.209 554.791 333 557 333Z" fill="#1E75FF"/>
<path d="M575.373 354.17C575.373 354.631 575.25 355.042 575.005 355.401C574.764 355.761 574.436 356.042 574.021 356.246C574.503 356.453 574.884 356.756 575.164 357.153C575.447 357.551 575.589 358.002 575.589 358.505C575.589 359.305 575.318 359.942 574.776 360.416C574.239 360.89 573.53 361.127 572.65 361.127C571.761 361.127 571.048 360.89 570.511 360.416C569.978 359.938 569.711 359.301 569.711 358.505C569.711 358.006 569.846 357.555 570.117 357.153C570.392 356.751 570.771 356.447 571.253 356.239C570.843 356.036 570.519 355.755 570.282 355.395C570.045 355.035 569.927 354.627 569.927 354.17C569.927 353.391 570.176 352.773 570.676 352.316C571.175 351.859 571.833 351.631 572.65 351.631C573.462 351.631 574.118 351.859 574.618 352.316C575.121 352.773 575.373 353.391 575.373 354.17ZM574.415 358.48C574.415 357.964 574.25 357.543 573.919 357.217C573.594 356.891 573.166 356.728 572.637 356.728C572.108 356.728 571.683 356.889 571.361 357.21C571.044 357.532 570.885 357.955 570.885 358.48C570.885 359.005 571.04 359.417 571.349 359.718C571.662 360.018 572.096 360.168 572.65 360.168C573.2 360.168 573.632 360.018 573.945 359.718C574.258 359.413 574.415 359 574.415 358.48ZM572.65 352.596C572.189 352.596 571.814 352.74 571.526 353.027C571.243 353.311 571.101 353.698 571.101 354.189C571.101 354.659 571.241 355.04 571.52 355.332C571.804 355.619 572.18 355.763 572.65 355.763C573.12 355.763 573.494 355.619 573.773 355.332C574.057 355.04 574.199 354.659 574.199 354.189C574.199 353.719 574.053 353.336 573.761 353.04C573.469 352.744 573.098 352.596 572.65 352.596ZM578.775 355.808H579.658C580.212 355.799 580.648 355.653 580.965 355.37C581.283 355.086 581.441 354.703 581.441 354.221C581.441 353.137 580.902 352.596 579.823 352.596C579.315 352.596 578.909 352.742 578.604 353.034C578.304 353.321 578.153 353.704 578.153 354.183H576.979C576.979 353.451 577.246 352.843 577.779 352.361C578.316 351.874 578.998 351.631 579.823 351.631C580.694 351.631 581.378 351.861 581.873 352.323C582.368 352.784 582.616 353.425 582.616 354.246C582.616 354.648 582.485 355.037 582.222 355.414C581.964 355.791 581.611 356.072 581.162 356.258C581.67 356.419 582.061 356.686 582.336 357.058C582.616 357.431 582.755 357.885 582.755 358.423C582.755 359.252 582.485 359.91 581.943 360.397C581.401 360.884 580.697 361.127 579.829 361.127C578.962 361.127 578.255 360.892 577.709 360.422C577.167 359.953 576.896 359.333 576.896 358.562H578.077C578.077 359.049 578.236 359.438 578.553 359.73C578.871 360.022 579.296 360.168 579.829 360.168C580.396 360.168 580.83 360.02 581.13 359.724C581.431 359.428 581.581 359.003 581.581 358.448C581.581 357.911 581.416 357.498 581.086 357.21C580.756 356.923 580.28 356.775 579.658 356.766H578.775V355.808ZM584.514 360.384C584.514 360.181 584.573 360.012 584.691 359.876C584.814 359.741 584.996 359.673 585.237 359.673C585.479 359.673 585.66 359.741 585.783 359.876C585.91 360.012 585.974 360.181 585.974 360.384C585.974 360.579 585.91 360.742 585.783 360.873C585.66 361.004 585.479 361.07 585.237 361.07C584.996 361.07 584.814 361.004 584.691 360.873C584.573 360.742 584.514 360.579 584.514 360.384ZM592.296 356.938C592.05 357.229 591.756 357.464 591.414 357.642C591.075 357.82 590.703 357.909 590.296 357.909C589.763 357.909 589.298 357.778 588.9 357.515C588.506 357.253 588.202 356.885 587.986 356.411C587.77 355.932 587.662 355.406 587.662 354.83C587.662 354.212 587.778 353.656 588.011 353.161C588.248 352.666 588.583 352.287 589.014 352.024C589.446 351.762 589.949 351.631 590.525 351.631C591.439 351.631 592.158 351.974 592.683 352.659C593.212 353.34 593.477 354.271 593.477 355.452V355.795C593.477 357.593 593.121 358.907 592.41 359.737C591.699 360.562 590.626 360.985 589.192 361.006H588.963V360.016H589.211C590.18 359.999 590.925 359.747 591.445 359.261C591.966 358.77 592.249 357.995 592.296 356.938ZM590.487 356.938C590.88 356.938 591.242 356.817 591.572 356.576C591.907 356.334 592.15 356.036 592.302 355.681V355.211C592.302 354.441 592.135 353.814 591.801 353.332C591.466 352.85 591.043 352.608 590.531 352.608C590.015 352.608 589.6 352.807 589.287 353.205C588.974 353.599 588.817 354.119 588.817 354.767C588.817 355.397 588.968 355.918 589.268 356.328C589.573 356.734 589.979 356.938 590.487 356.938ZM600.053 357.896H601.335V358.854H600.053V361H598.872V358.854H594.664V358.163L598.802 351.758H600.053V357.896ZM595.997 357.896H598.872V353.364L598.732 353.618L595.997 357.896ZM606.896 356.938C606.65 357.229 606.356 357.464 606.013 357.642C605.675 357.82 605.302 357.909 604.896 357.909C604.363 357.909 603.897 357.778 603.5 357.515C603.106 357.253 602.801 356.885 602.585 356.411C602.37 355.932 602.262 355.406 602.262 354.83C602.262 354.212 602.378 353.656 602.611 353.161C602.848 352.666 603.182 352.287 603.614 352.024C604.045 351.762 604.549 351.631 605.125 351.631C606.039 351.631 606.758 351.974 607.283 352.659C607.812 353.34 608.076 354.271 608.076 355.452V355.795C608.076 357.593 607.721 358.907 607.01 359.737C606.299 360.562 605.226 360.985 603.792 361.006H603.563V360.016H603.811C604.78 359.999 605.524 359.747 606.045 359.261C606.565 358.77 606.849 357.995 606.896 356.938ZM605.086 356.938C605.48 356.938 605.842 356.817 606.172 356.576C606.506 356.334 606.75 356.036 606.902 355.681V355.211C606.902 354.441 606.735 353.814 606.4 353.332C606.066 352.85 605.643 352.608 605.131 352.608C604.615 352.608 604.2 352.807 603.887 353.205C603.574 353.599 603.417 354.119 603.417 354.767C603.417 355.397 603.567 355.918 603.868 356.328C604.172 356.734 604.579 356.938 605.086 356.938Z" fill="white"/>
<path fill-rule="evenodd" clip-rule="evenodd" d="M557 360C559.209 360 561 358.209 561 356C561 353.791 559.209 352 557 352C554.791 352 553 353.791 553 356C553 358.209 554.791 360 557 360Z" fill="#FFC542"/>
<path d="M575.373 381.17C575.373 381.631 575.25 382.042 575.005 382.401C574.764 382.761 574.436 383.042 574.021 383.246C574.503 383.453 574.884 383.756 575.164 384.153C575.447 384.551 575.589 385.002 575.589 385.505C575.589 386.305 575.318 386.942 574.776 387.416C574.239 387.89 573.53 388.127 572.65 388.127C571.761 388.127 571.048 387.89 570.511 387.416C569.978 386.938 569.711 386.301 569.711 385.505C569.711 385.006 569.846 384.555 570.117 384.153C570.392 383.751 570.771 383.447 571.253 383.239C570.843 383.036 570.519 382.755 570.282 382.395C570.045 382.035 569.927 381.627 569.927 381.17C569.927 380.391 570.176 379.773 570.676 379.316C571.175 378.859 571.833 378.631 572.65 378.631C573.462 378.631 574.118 378.859 574.618 379.316C575.121 379.773 575.373 380.391 575.373 381.17ZM574.415 385.48C574.415 384.964 574.25 384.543 573.919 384.217C573.594 383.891 573.166 383.728 572.637 383.728C572.108 383.728 571.683 383.889 571.361 384.21C571.044 384.532 570.885 384.955 570.885 385.48C570.885 386.005 571.04 386.417 571.349 386.718C571.662 387.018 572.096 387.168 572.65 387.168C573.2 387.168 573.632 387.018 573.945 386.718C574.258 386.413 574.415 386 574.415 385.48ZM572.65 379.596C572.189 379.596 571.814 379.74 571.526 380.027C571.243 380.311 571.101 380.698 571.101 381.189C571.101 381.659 571.241 382.04 571.52 382.332C571.804 382.619 572.18 382.763 572.65 382.763C573.12 382.763 573.494 382.619 573.773 382.332C574.057 382.04 574.199 381.659 574.199 381.189C574.199 380.719 574.053 380.336 573.761 380.04C573.469 379.744 573.098 379.596 572.65 379.596ZM578.775 382.808H579.658C580.212 382.799 580.648 382.653 580.965 382.37C581.283 382.086 581.441 381.703 581.441 381.221C581.441 380.137 580.902 379.596 579.823 379.596C579.315 379.596 578.909 379.742 578.604 380.034C578.304 380.321 578.153 380.704 578.153 381.183H576.979C576.979 380.451 577.246 379.843 577.779 379.361C578.316 378.874 578.998 378.631 579.823 378.631C580.694 378.631 581.378 378.861 581.873 379.323C582.368 379.784 582.616 380.425 582.616 381.246C582.616 381.648 582.485 382.037 582.222 382.414C581.964 382.791 581.611 383.072 581.162 383.258C581.67 383.419 582.061 383.686 582.336 384.058C582.616 384.431 582.755 384.885 582.755 385.423C582.755 386.252 582.485 386.91 581.943 387.397C581.401 387.884 580.697 388.127 579.829 388.127C578.962 388.127 578.255 387.892 577.709 387.422C577.167 386.953 576.896 386.333 576.896 385.562H578.077C578.077 386.049 578.236 386.438 578.553 386.73C578.871 387.022 579.296 387.168 579.829 387.168C580.396 387.168 580.83 387.02 581.13 386.724C581.431 386.428 581.581 386.003 581.581 385.448C581.581 384.911 581.416 384.498 581.086 384.21C580.756 383.923 580.28 383.775 579.658 383.766H578.775V382.808ZM584.514 387.384C584.514 387.181 584.573 387.012 584.691 386.876C584.814 386.741 584.996 386.673 585.237 386.673C585.479 386.673 585.66 386.741 585.783 386.876C585.91 387.012 585.974 387.181 585.974 387.384C585.974 387.579 585.91 387.742 585.783 387.873C585.66 388.004 585.479 388.07 585.237 388.07C584.996 388.07 584.814 388.004 584.691 387.873C584.573 387.742 584.514 387.579 584.514 387.384ZM592.296 383.938C592.05 384.229 591.756 384.464 591.414 384.642C591.075 384.82 590.703 384.909 590.296 384.909C589.763 384.909 589.298 384.778 588.9 384.515C588.506 384.253 588.202 383.885 587.986 383.411C587.77 382.932 587.662 382.406 587.662 381.83C587.662 381.212 587.778 380.656 588.011 380.161C588.248 379.666 588.583 379.287 589.014 379.024C589.446 378.762 589.949 378.631 590.525 378.631C591.439 378.631 592.158 378.974 592.683 379.659C593.212 380.34 593.477 381.271 593.477 382.452V382.795C593.477 384.593 593.121 385.907 592.41 386.737C591.699 387.562 590.626 387.985 589.192 388.006H588.963V387.016H589.211C590.18 386.999 590.925 386.747 591.445 386.261C591.966 385.77 592.249 384.995 592.296 383.938ZM590.487 383.938C590.88 383.938 591.242 383.817 591.572 383.576C591.907 383.334 592.15 383.036 592.302 382.681V382.211C592.302 381.441 592.135 380.814 591.801 380.332C591.466 379.85 591.043 379.608 590.531 379.608C590.015 379.608 589.6 379.807 589.287 380.205C588.974 380.599 588.817 381.119 588.817 381.767C588.817 382.397 588.968 382.918 589.268 383.328C589.573 383.734 589.979 383.938 590.487 383.938ZM600.053 384.896H601.335V385.854H600.053V388H598.872V385.854H594.664V385.163L598.802 378.758H600.053V384.896ZM595.997 384.896H598.872V380.364L598.732 380.618L595.997 384.896ZM606.896 383.938C606.65 384.229 606.356 384.464 606.013 384.642C605.675 384.82 605.302 384.909 604.896 384.909C604.363 384.909 603.897 384.778 603.5 384.515C603.106 384.253 602.801 383.885 602.585 383.411C602.37 382.932 602.262 382.406 602.262 381.83C602.262 381.212 602.378 380.656 602.611 380.161C602.848 379.666 603.182 379.287 603.614 379.024C604.045 378.762 604.549 378.631 605.125 378.631C606.039 378.631 606.758 378.974 607.283 379.659C607.812 380.34 608.076 381.271 608.076 382.452V382.795C608.076 384.593 607.721 385.907 607.01 386.737C606.299 387.562 605.226 387.985 603.792 388.006H603.563V387.016H603.811C604.78 386.999 605.524 386.747 606.045 386.261C606.565 385.77 606.849 384.995 606.896 383.938ZM605.086 383.938C605.48 383.938 605.842 383.817 606.172 383.576C606.506 383.334 606.75 383.036 606.902 382.681V382.211C606.902 381.441 606.735 380.814 606.4 380.332C606.066 379.85 605.643 379.608 605.131 379.608C604.615 379.608 604.2 379.807 603.887 380.205C603.574 380.599 603.417 381.119 603.417 381.767C603.417 382.397 603.567 382.918 603.868 383.328C604.172 383.734 604.579 383.938 605.086 383.938Z" fill="white"/>
<path fill-rule="evenodd" clip-rule="evenodd" d="M557 387C559.209 387 561 385.209 561 383C561 380.791 559.209 379 557 379C554.791 379 553 380.791 553 383C553 385.209 554.791 387 557 387Z" fill="#FC5A5A"/>
<g filter="url(#filter2_d)">
<path fill-rule="evenodd" clip-rule="evenodd" d="M525 350C527.761 350 530 347.761 530 345C530 342.239 527.761 340 525 340C522.239 340 520 342.239 520 345C520 347.761 522.239 350 525 350Z" fill="#2C2C38"/>
<mask id="mask0" mask-type="alpha" maskUnits="userSpaceOnUse" x="520" y="340" width="10" height="10">
<path fill-rule="evenodd" clip-rule="evenodd" d="M525 350C527.761 350 530 347.761 530 345C530 342.239 527.761 340 525 340C522.239 340 520 342.239 520 345C520 347.761 522.239 350 525 350Z" fill="white"/>
</mask>
<g mask="url(#mask0)">
</g>
</g>
<path fill-rule="evenodd" clip-rule="evenodd" d="M914 566C914 563.791 915.791 562 918 562C920.209 562 922 563.791 922 566C922 568.209 920.209 570 918 570C915.791 570 914 568.209 914 566Z" fill="#FFC542"/>
<path fill-rule="evenodd" clip-rule="evenodd" d="M1064 566C1064 563.791 1065.79 562 1068 562C1070.21 562 1072 563.791 1072 566C1072 568.209 1070.21 570 1068 570C1065.79 570 1064 568.209 1064 566Z" fill="#FC5A5A"/>
<path fill-rule="evenodd" clip-rule="evenodd" d="M743 566C743 563.791 744.791 562 747 562C749.209 562 751 563.791 751 566C751 568.209 749.209 570 747 570C744.791 570 743 568.209 743 566Z" fill="#1E75FF"/>
<path fill-rule="evenodd" clip-rule="evenodd" d="M573 566C573 563.791 574.791 562 577 562C579.209 562 581 563.791 581 566C581 568.209 579.209 570 577 570C574.791 570 573 568.209 573 566Z" fill="#33C758"/>
<path d="M1093.32 572H1091.62L1085.18 562.139V572H1083.49V559.203H1085.18L1091.64 569.108V559.203H1093.32V572ZM1101.93 572C1101.84 571.812 1101.76 571.479 1101.71 570.998C1100.95 571.783 1100.05 572.176 1099 572.176C1098.06 572.176 1097.29 571.912 1096.69 571.385C1096.09 570.852 1095.79 570.178 1095.79 569.363C1095.79 568.373 1096.17 567.605 1096.92 567.061C1097.67 566.51 1098.73 566.234 1100.1 566.234H1101.68V565.487C1101.68 564.919 1101.51 564.468 1101.17 564.134C1100.83 563.794 1100.33 563.624 1099.67 563.624C1099.09 563.624 1098.6 563.771 1098.21 564.063C1097.81 564.356 1097.62 564.711 1097.62 565.127H1095.98C1095.98 564.652 1096.15 564.195 1096.48 563.756C1096.82 563.311 1097.28 562.959 1097.86 562.701C1098.44 562.443 1099.07 562.314 1099.76 562.314C1100.86 562.314 1101.72 562.59 1102.34 563.141C1102.96 563.686 1103.28 564.438 1103.3 565.399V569.776C1103.3 570.649 1103.42 571.344 1103.64 571.859V572H1101.93ZM1099.24 570.761C1099.75 570.761 1100.23 570.629 1100.69 570.365C1101.14 570.102 1101.47 569.759 1101.68 569.337V567.386H1100.4C1098.41 567.386 1097.42 567.969 1097.42 569.135C1097.42 569.645 1097.59 570.043 1097.93 570.33C1098.27 570.617 1098.7 570.761 1099.24 570.761ZM1107.38 562.49L1107.43 563.545C1108.12 562.725 1109.06 562.314 1110.25 562.314C1111.58 562.314 1112.48 562.824 1112.96 563.844C1113.28 563.387 1113.69 563.018 1114.19 562.736C1114.7 562.455 1115.3 562.314 1116 562.314C1118.08 562.314 1119.14 563.419 1119.18 565.628V572H1117.55V565.725C1117.55 565.045 1117.4 564.538 1117.09 564.204C1116.78 563.864 1116.25 563.694 1115.52 563.694C1114.92 563.694 1114.42 563.876 1114.02 564.239C1113.62 564.597 1113.39 565.08 1113.32 565.689V572H1111.69V565.769C1111.69 564.386 1111.01 563.694 1109.66 563.694C1108.59 563.694 1107.86 564.148 1107.47 565.057V572H1105.84V562.49H1107.38ZM1125.58 572.176C1124.3 572.176 1123.25 571.754 1122.44 570.91C1121.63 570.061 1121.23 568.927 1121.23 567.509V567.21C1121.23 566.267 1121.4 565.426 1121.76 564.688C1122.12 563.943 1122.63 563.363 1123.27 562.947C1123.92 562.525 1124.63 562.314 1125.38 562.314C1126.62 562.314 1127.58 562.722 1128.27 563.536C1128.95 564.351 1129.29 565.517 1129.29 567.034V567.711H1122.85C1122.88 568.648 1123.15 569.407 1123.67 569.987C1124.2 570.562 1124.86 570.849 1125.67 570.849C1126.25 570.849 1126.73 570.731 1127.13 570.497C1127.53 570.263 1127.88 569.952 1128.18 569.565L1129.17 570.339C1128.37 571.563 1127.18 572.176 1125.58 572.176ZM1125.38 563.65C1124.73 563.65 1124.18 563.891 1123.73 564.371C1123.29 564.846 1123.01 565.514 1122.9 566.375H1127.67V566.252C1127.62 565.426 1127.4 564.787 1127 564.336C1126.6 563.879 1126.06 563.65 1125.38 563.65Z" fill="#BDBDBD"/>
<path d="M943.32 572H941.624L935.182 562.139V572H933.485V559.203H935.182L941.642 569.108V559.203H943.32V572ZM951.934 572C951.84 571.812 951.764 571.479 951.705 570.998C950.949 571.783 950.047 572.176 948.998 572.176C948.061 572.176 947.29 571.912 946.687 571.385C946.089 570.852 945.79 570.178 945.79 569.363C945.79 568.373 946.165 567.605 946.915 567.061C947.671 566.51 948.731 566.234 950.097 566.234H951.679V565.487C951.679 564.919 951.509 564.468 951.169 564.134C950.829 563.794 950.328 563.624 949.666 563.624C949.086 563.624 948.6 563.771 948.207 564.063C947.814 564.356 947.618 564.711 947.618 565.127H945.983C945.983 564.652 946.15 564.195 946.484 563.756C946.824 563.311 947.281 562.959 947.855 562.701C948.436 562.443 949.071 562.314 949.763 562.314C950.858 562.314 951.717 562.59 952.338 563.141C952.959 563.686 953.281 564.438 953.305 565.399V569.776C953.305 570.649 953.416 571.344 953.639 571.859V572H951.934ZM949.235 570.761C949.745 570.761 950.229 570.629 950.686 570.365C951.143 570.102 951.474 569.759 951.679 569.337V567.386H950.404C948.412 567.386 947.416 567.969 947.416 569.135C947.416 569.645 947.586 570.043 947.926 570.33C948.266 570.617 948.702 570.761 949.235 570.761ZM957.383 562.49L957.427 563.545C958.124 562.725 959.064 562.314 960.248 562.314C961.578 562.314 962.483 562.824 962.964 563.844C963.28 563.387 963.69 563.018 964.194 562.736C964.704 562.455 965.305 562.314 965.996 562.314C968.082 562.314 969.143 563.419 969.178 565.628V572H967.552V565.725C967.552 565.045 967.396 564.538 967.086 564.204C966.775 563.864 966.254 563.694 965.521 563.694C964.918 563.694 964.417 563.876 964.019 564.239C963.62 564.597 963.389 565.08 963.324 565.689V572H961.689V565.769C961.689 564.386 961.013 563.694 959.659 563.694C958.593 563.694 957.863 564.148 957.471 565.057V572H955.845V562.49H957.383ZM975.585 572.176C974.296 572.176 973.247 571.754 972.438 570.91C971.63 570.061 971.226 568.927 971.226 567.509V567.21C971.226 566.267 971.404 565.426 971.762 564.688C972.125 563.943 972.629 563.363 973.273 562.947C973.924 562.525 974.627 562.314 975.383 562.314C976.619 562.314 977.58 562.722 978.266 563.536C978.951 564.351 979.294 565.517 979.294 567.034V567.711H972.852C972.875 568.648 973.147 569.407 973.669 569.987C974.196 570.562 974.864 570.849 975.673 570.849C976.247 570.849 976.733 570.731 977.132 570.497C977.53 570.263 977.879 569.952 978.178 569.565L979.171 570.339C978.374 571.563 977.179 572.176 975.585 572.176ZM975.383 563.65C974.727 563.65 974.176 563.891 973.73 564.371C973.285 564.846 973.01 565.514 972.904 566.375H977.668V566.252C977.621 565.426 977.398 564.787 977 564.336C976.602 563.879 976.062 563.65 975.383 563.65Z" fill="#BDBDBD"/>
<path d="M772.32 572H770.624L764.182 562.139V572H762.485V559.203H764.182L770.642 569.108V559.203H772.32V572ZM780.934 572C780.84 571.812 780.764 571.479 780.705 570.998C779.949 571.783 779.047 572.176 777.998 572.176C777.061 572.176 776.29 571.912 775.687 571.385C775.089 570.852 774.79 570.178 774.79 569.363C774.79 568.373 775.165 567.605 775.915 567.061C776.671 566.51 777.731 566.234 779.097 566.234H780.679V565.487C780.679 564.919 780.509 564.468 780.169 564.134C779.829 563.794 779.328 563.624 778.666 563.624C778.086 563.624 777.6 563.771 777.207 564.063C776.814 564.356 776.618 564.711 776.618 565.127H774.983C774.983 564.652 775.15 564.195 775.484 563.756C775.824 563.311 776.281 562.959 776.855 562.701C777.436 562.443 778.071 562.314 778.763 562.314C779.858 562.314 780.717 562.59 781.338 563.141C781.959 563.686 782.281 564.438 782.305 565.399V569.776C782.305 570.649 782.416 571.344 782.639 571.859V572H780.934ZM778.235 570.761C778.745 570.761 779.229 570.629 779.686 570.365C780.143 570.102 780.474 569.759 780.679 569.337V567.386H779.404C777.412 567.386 776.416 567.969 776.416 569.135C776.416 569.645 776.586 570.043 776.926 570.33C777.266 570.617 777.702 570.761 778.235 570.761ZM786.383 562.49L786.427 563.545C787.124 562.725 788.064 562.314 789.248 562.314C790.578 562.314 791.483 562.824 791.964 563.844C792.28 563.387 792.69 563.018 793.194 562.736C793.704 562.455 794.305 562.314 794.996 562.314C797.082 562.314 798.143 563.419 798.178 565.628V572H796.552V565.725C796.552 565.045 796.396 564.538 796.086 564.204C795.775 563.864 795.254 563.694 794.521 563.694C793.918 563.694 793.417 563.876 793.019 564.239C792.62 564.597 792.389 565.08 792.324 565.689V572H790.689V565.769C790.689 564.386 790.013 563.694 788.659 563.694C787.593 563.694 786.863 564.148 786.471 565.057V572H784.845V562.49H786.383ZM804.585 572.176C803.296 572.176 802.247 571.754 801.438 570.91C800.63 570.061 800.226 568.927 800.226 567.509V567.21C800.226 566.267 800.404 565.426 800.762 564.688C801.125 563.943 801.629 563.363 802.273 562.947C802.924 562.525 803.627 562.314 804.383 562.314C805.619 562.314 806.58 562.722 807.266 563.536C807.951 564.351 808.294 565.517 808.294 567.034V567.711H801.852C801.875 568.648 802.147 569.407 802.669 569.987C803.196 570.562 803.864 570.849 804.673 570.849C805.247 570.849 805.733 570.731 806.132 570.497C806.53 570.263 806.879 569.952 807.178 569.565L808.171 570.339C807.374 571.563 806.179 572.176 804.585 572.176ZM804.383 563.65C803.727 563.65 803.176 563.891 802.73 564.371C802.285 564.846 802.01 565.514 801.904 566.375H806.668V566.252C806.621 565.426 806.398 564.787 806 564.336C805.602 563.879 805.062 563.65 804.383 563.65Z" fill="#BDBDBD"/>
<path d="M602.32 572H600.624L594.182 562.139V572H592.485V559.203H594.182L600.642 569.108V559.203H602.32V572ZM610.934 572C610.84 571.812 610.764 571.479 610.705 570.998C609.949 571.783 609.047 572.176 607.998 572.176C607.061 572.176 606.29 571.912 605.687 571.385C605.089 570.852 604.79 570.178 604.79 569.363C604.79 568.373 605.165 567.605 605.915 567.061C606.671 566.51 607.731 566.234 609.097 566.234H610.679V565.487C610.679 564.919 610.509 564.468 610.169 564.134C609.829 563.794 609.328 563.624 608.666 563.624C608.086 563.624 607.6 563.771 607.207 564.063C606.814 564.356 606.618 564.711 606.618 565.127H604.983C604.983 564.652 605.15 564.195 605.484 563.756C605.824 563.311 606.281 562.959 606.855 562.701C607.436 562.443 608.071 562.314 608.763 562.314C609.858 562.314 610.717 562.59 611.338 563.141C611.959 563.686 612.281 564.438 612.305 565.399V569.776C612.305 570.649 612.416 571.344 612.639 571.859V572H610.934ZM608.235 570.761C608.745 570.761 609.229 570.629 609.686 570.365C610.143 570.102 610.474 569.759 610.679 569.337V567.386H609.404C607.412 567.386 606.416 567.969 606.416 569.135C606.416 569.645 606.586 570.043 606.926 570.33C607.266 570.617 607.702 570.761 608.235 570.761ZM616.383 562.49L616.427 563.545C617.124 562.725 618.064 562.314 619.248 562.314C620.578 562.314 621.483 562.824 621.964 563.844C622.28 563.387 622.69 563.018 623.194 562.736C623.704 562.455 624.305 562.314 624.996 562.314C627.082 562.314 628.143 563.419 628.178 565.628V572H626.552V565.725C626.552 565.045 626.396 564.538 626.086 564.204C625.775 563.864 625.254 563.694 624.521 563.694C623.918 563.694 623.417 563.876 623.019 564.239C622.62 564.597 622.389 565.08 622.324 565.689V572H620.689V565.769C620.689 564.386 620.013 563.694 618.659 563.694C617.593 563.694 616.863 564.148 616.471 565.057V572H614.845V562.49H616.383ZM634.585 572.176C633.296 572.176 632.247 571.754 631.438 570.91C630.63 570.061 630.226 568.927 630.226 567.509V567.21C630.226 566.267 630.404 565.426 630.762 564.688C631.125 563.943 631.629 563.363 632.273 562.947C632.924 562.525 633.627 562.314 634.383 562.314C635.619 562.314 636.58 562.722 637.266 563.536C637.951 564.351 638.294 565.517 638.294 567.034V567.711H631.852C631.875 568.648 632.147 569.407 632.669 569.987C633.196 570.562 633.864 570.849 634.673 570.849C635.247 570.849 635.733 570.731 636.132 570.497C636.53 570.263 636.879 569.952 637.178 569.565L638.171 570.339C637.374 571.563 636.179 572.176 634.585 572.176ZM634.383 563.65C633.727 563.65 633.176 563.891 632.73 564.371C632.285 564.846 632.01 565.514 631.904 566.375H636.668V566.252C636.621 565.426 636.398 564.787 636 564.336C635.602 563.879 635.062 563.65 634.383 563.65Z" fill="#BDBDBD"/>
<path d="M39.1094 41.3086L40.832 32.2031H43.46L40.6211 45H37.9668L35.8838 36.4395L33.8008 45H31.1465L28.3076 32.2031H30.9355L32.667 41.291L34.7764 32.2031H37.0088L39.1094 41.3086ZM47.4062 45H44.8574V35.4902H47.4062V45ZM44.708 33.0293C44.708 32.6484 44.834 32.335 45.0859 32.0889C45.3438 31.8428 45.6924 31.7197 46.1318 31.7197C46.5654 31.7197 46.9111 31.8428 47.1689 32.0889C47.4268 32.335 47.5557 32.6484 47.5557 33.0293C47.5557 33.416 47.4238 33.7324 47.1602 33.9785C46.9023 34.2246 46.5596 34.3477 46.1318 34.3477C45.7041 34.3477 45.3584 34.2246 45.0947 33.9785C44.8369 33.7324 44.708 33.416 44.708 33.0293ZM49.1113 40.1748C49.1113 38.6924 49.4424 37.5117 50.1045 36.6328C50.7725 35.7539 51.6836 35.3145 52.8379 35.3145C53.7637 35.3145 54.5283 35.6602 55.1318 36.3516V31.5H57.6807V45H55.3867L55.2637 43.9893C54.6309 44.7803 53.8164 45.1758 52.8203 45.1758C51.7012 45.1758 50.8018 44.7363 50.1221 43.8574C49.4482 42.9727 49.1113 41.7451 49.1113 40.1748ZM51.6514 40.3594C51.6514 41.25 51.8066 41.9326 52.1172 42.4072C52.4277 42.8818 52.8789 43.1191 53.4707 43.1191C54.2559 43.1191 54.8096 42.7881 55.1318 42.126V38.373C54.8154 37.7109 54.2676 37.3799 53.4883 37.3799C52.2637 37.3799 51.6514 38.373 51.6514 40.3594ZM59.2803 40.1748C59.2803 38.7158 59.626 37.541 60.3174 36.6504C61.0146 35.7598 61.9521 35.3145 63.1299 35.3145C64.1729 35.3145 64.9844 35.6719 65.5645 36.3867L65.6699 35.4902H67.9727V44.6836C67.9727 45.5156 67.7822 46.2393 67.4014 46.8545C67.0264 47.4697 66.4961 47.9385 65.8105 48.2607C65.125 48.583 64.3223 48.7441 63.4023 48.7441C62.7051 48.7441 62.0254 48.6035 61.3633 48.3223C60.7012 48.0469 60.2002 47.6895 59.8604 47.25L60.9854 45.7031C61.6182 46.4121 62.3857 46.7666 63.2881 46.7666C63.9619 46.7666 64.4863 46.585 64.8613 46.2217C65.2363 45.8643 65.4238 45.3545 65.4238 44.6924V44.1826C64.8379 44.8447 64.0674 45.1758 63.1123 45.1758C61.9697 45.1758 61.0439 44.7305 60.335 43.8398C59.6318 42.9434 59.2803 41.7568 59.2803 40.2803V40.1748ZM61.8203 40.3594C61.8203 41.2207 61.9932 41.8975 62.3389 42.3896C62.6846 42.876 63.1592 43.1191 63.7627 43.1191C64.5361 43.1191 65.0898 42.8291 65.4238 42.249V38.25C65.084 37.6699 64.5361 37.3799 63.7803 37.3799C63.1709 37.3799 62.6904 37.6289 62.3389 38.127C61.9932 38.625 61.8203 39.3691 61.8203 40.3594ZM74.3096 45.1758C72.915 45.1758 71.7783 44.748 70.8994 43.8926C70.0264 43.0371 69.5898 41.8975 69.5898 40.4736V40.2275C69.5898 39.2725 69.7744 38.4199 70.1436 37.6699C70.5127 36.9141 71.0342 36.334 71.708 35.9297C72.3877 35.5195 73.1611 35.3145 74.0283 35.3145C75.3291 35.3145 76.3516 35.7246 77.0957 36.5449C77.8457 37.3652 78.2207 38.5283 78.2207 40.0342V41.0713H72.165C72.2471 41.6924 72.4932 42.1904 72.9033 42.5654C73.3193 42.9404 73.8438 43.1279 74.4766 43.1279C75.4551 43.1279 76.2197 42.7734 76.7705 42.0645L78.0186 43.4619C77.6377 44.001 77.1221 44.4229 76.4717 44.7275C75.8213 45.0264 75.1006 45.1758 74.3096 45.1758ZM74.0195 37.3711C73.5156 37.3711 73.1055 37.541 72.7891 37.8809C72.4785 38.2207 72.2793 38.707 72.1914 39.3398H75.7246V39.1377C75.7129 38.5752 75.5605 38.1416 75.2676 37.8369C74.9746 37.5264 74.5586 37.3711 74.0195 37.3711ZM82.7119 33.1523V35.4902H84.3379V37.3535H82.7119V42.0996C82.7119 42.4512 82.7793 42.7031 82.9141 42.8555C83.0488 43.0078 83.3066 43.084 83.6875 43.084C83.9688 43.084 84.2178 43.0635 84.4346 43.0225V44.9473C83.9365 45.0996 83.4238 45.1758 82.8965 45.1758C81.1152 45.1758 80.207 44.2764 80.1719 42.4775V37.3535H78.7832V35.4902H80.1719V33.1523H82.7119ZM92.5732 35.4902L92.6523 36.5889C93.332 35.7393 94.2432 35.3145 95.3857 35.3145C96.3936 35.3145 97.1436 35.6104 97.6357 36.2021C98.1279 36.7939 98.3799 37.6787 98.3916 38.8564V45H95.8516V38.918C95.8516 38.3789 95.7344 37.9893 95.5 37.749C95.2656 37.5029 94.876 37.3799 94.3311 37.3799C93.6162 37.3799 93.0801 37.6846 92.7227 38.2939V45H90.1826V35.4902H92.5732ZM105.836 45C105.719 44.7715 105.634 44.4873 105.581 44.1475C104.966 44.833 104.166 45.1758 103.182 45.1758C102.25 45.1758 101.477 44.9062 100.861 44.3672C100.252 43.8281 99.9473 43.1484 99.9473 42.3281C99.9473 41.3203 100.319 40.5469 101.063 40.0078C101.813 39.4688 102.895 39.1963 104.307 39.1904H105.476V38.6455C105.476 38.2061 105.361 37.8545 105.133 37.5908C104.91 37.3271 104.556 37.1953 104.069 37.1953C103.642 37.1953 103.305 37.2979 103.059 37.5029C102.818 37.708 102.698 37.9893 102.698 38.3467H100.158C100.158 37.7959 100.328 37.2861 100.668 36.8174C101.008 36.3486 101.488 35.9824 102.109 35.7188C102.73 35.4492 103.428 35.3145 104.201 35.3145C105.373 35.3145 106.302 35.6104 106.987 36.2021C107.679 36.7881 108.024 37.6143 108.024 38.6807V42.8027C108.03 43.7051 108.156 44.3877 108.402 44.8506V45H105.836ZM103.735 43.2334C104.11 43.2334 104.456 43.1514 104.772 42.9873C105.089 42.8174 105.323 42.5918 105.476 42.3105V40.6758H104.526C103.255 40.6758 102.578 41.1152 102.496 41.9941L102.487 42.1436C102.487 42.46 102.599 42.7207 102.821 42.9258C103.044 43.1309 103.349 43.2334 103.735 43.2334ZM112.357 35.4902L112.437 36.5537C113.11 35.7275 114.021 35.3145 115.17 35.3145C116.395 35.3145 117.235 35.7979 117.692 36.7646C118.36 35.7979 119.312 35.3145 120.549 35.3145C121.58 35.3145 122.348 35.6162 122.852 36.2197C123.355 36.8174 123.607 37.7197 123.607 38.9268V45H121.059V38.9355C121.059 38.3965 120.953 38.0039 120.742 37.7578C120.531 37.5059 120.159 37.3799 119.626 37.3799C118.864 37.3799 118.337 37.7432 118.044 38.4697L118.053 45H115.513V38.9443C115.513 38.3936 115.404 37.9951 115.188 37.749C114.971 37.5029 114.602 37.3799 114.08 37.3799C113.359 37.3799 112.838 37.6787 112.516 38.2764V45H109.976V35.4902H112.357ZM129.944 45.1758C128.55 45.1758 127.413 44.748 126.534 43.8926C125.661 43.0371 125.225 41.8975 125.225 40.4736V40.2275C125.225 39.2725 125.409 38.4199 125.778 37.6699C126.147 36.9141 126.669 36.334 127.343 35.9297C128.022 35.5195 128.796 35.3145 129.663 35.3145C130.964 35.3145 131.986 35.7246 132.73 36.5449C133.48 37.3652 133.855 38.5283 133.855 40.0342V41.0713H127.8C127.882 41.6924 128.128 42.1904 128.538 42.5654C128.954 42.9404 129.479 43.1279 130.111 43.1279C131.09 43.1279 131.854 42.7734 132.405 42.0645L133.653 43.4619C133.272 44.001 132.757 44.4229 132.106 44.7275C131.456 45.0264 130.735 45.1758 129.944 45.1758ZM129.654 37.3711C129.15 37.3711 128.74 37.541 128.424 37.8809C128.113 38.2207 127.914 38.707 127.826 39.3398H131.359V39.1377C131.348 38.5752 131.195 38.1416 130.902 37.8369C130.609 37.5264 130.193 37.3711 129.654 37.3711Z" fill="white"/>
<path d="M37.4922 122.721H31.5254V129H29.6504V114.781H38.459V116.324H31.5254V121.188H37.4922V122.721ZM46.7305 127.955C46.0273 128.782 44.9954 129.195 43.6348 129.195C42.5085 129.195 41.6491 128.87 41.0566 128.219C40.4707 127.561 40.1745 126.591 40.168 125.309V118.434H41.9746V125.26C41.9746 126.861 42.6257 127.662 43.9277 127.662C45.3079 127.662 46.2259 127.148 46.6816 126.119V118.434H48.4883V129H46.7695L46.7305 127.955ZM52.9512 118.434L53.0098 119.762C53.8171 118.746 54.8717 118.238 56.1738 118.238C58.4069 118.238 59.5332 119.498 59.5527 122.018V129H57.7461V122.008C57.7396 121.246 57.5638 120.683 57.2188 120.318C56.8802 119.954 56.3496 119.771 55.627 119.771C55.041 119.771 54.5267 119.928 54.084 120.24C53.6413 120.553 53.2962 120.963 53.0488 121.471V129H51.2422V118.434H52.9512ZM63.9863 118.434L64.0449 119.762C64.8522 118.746 65.9069 118.238 67.209 118.238C69.4421 118.238 70.5684 119.498 70.5879 122.018V129H68.7812V122.008C68.7747 121.246 68.599 120.683 68.2539 120.318C67.9154 119.954 67.3848 119.771 66.6621 119.771C66.0762 119.771 65.5618 119.928 65.1191 120.24C64.6764 120.553 64.3314 120.963 64.084 121.471V129H62.2773V118.434H63.9863ZM77.6973 129.195C76.265 129.195 75.0996 128.727 74.2012 127.789C73.3027 126.845 72.8535 125.585 72.8535 124.01V123.678C72.8535 122.63 73.0521 121.695 73.4492 120.875C73.8529 120.048 74.4128 119.404 75.1289 118.941C75.8516 118.473 76.6328 118.238 77.4727 118.238C78.8464 118.238 79.9141 118.691 80.6758 119.596C81.4375 120.501 81.8184 121.796 81.8184 123.482V124.234H74.6602C74.6862 125.276 74.9889 126.119 75.5684 126.764C76.1543 127.402 76.8965 127.721 77.7949 127.721C78.4329 127.721 78.9733 127.59 79.416 127.33C79.8587 127.07 80.2461 126.725 80.5781 126.295L81.6816 127.154C80.7962 128.515 79.4681 129.195 77.6973 129.195ZM77.4727 119.723C76.7435 119.723 76.1315 119.99 75.6367 120.523C75.1419 121.051 74.8359 121.793 74.7188 122.75H80.0117V122.613C79.9596 121.695 79.7122 120.986 79.2695 120.484C78.8268 119.977 78.2279 119.723 77.4727 119.723ZM85.8809 129H84.0742V114H85.8809V129ZM98.2148 122.662C96.6068 122.2 95.4349 121.633 94.6992 120.963C93.9701 120.286 93.6055 119.452 93.6055 118.463C93.6055 117.343 94.0514 116.419 94.9434 115.689C95.8418 114.954 97.0072 114.586 98.4395 114.586C99.416 114.586 100.285 114.775 101.047 115.152C101.815 115.53 102.408 116.051 102.824 116.715C103.247 117.379 103.459 118.105 103.459 118.893H101.574C101.574 118.033 101.301 117.359 100.754 116.871C100.207 116.376 99.4355 116.129 98.4395 116.129C97.515 116.129 96.7923 116.334 96.2715 116.744C95.7572 117.148 95.5 117.711 95.5 118.434C95.5 119.013 95.7441 119.505 96.2324 119.908C96.7272 120.305 97.5638 120.67 98.7422 121.002C99.9271 121.334 100.852 121.702 101.516 122.105C102.186 122.503 102.681 122.968 103 123.502C103.326 124.036 103.488 124.664 103.488 125.387C103.488 126.539 103.039 127.464 102.141 128.16C101.242 128.85 100.041 129.195 98.5371 129.195C97.5605 129.195 96.6491 129.01 95.8027 128.639C94.9564 128.261 94.3021 127.747 93.8398 127.096C93.3841 126.445 93.1562 125.706 93.1562 124.879H95.041C95.041 125.738 95.3568 126.419 95.9883 126.92C96.6263 127.415 97.4759 127.662 98.5371 127.662C99.5267 127.662 100.285 127.46 100.812 127.057C101.34 126.653 101.604 126.103 101.604 125.406C101.604 124.71 101.359 124.173 100.871 123.795C100.383 123.411 99.4974 123.033 98.2148 122.662ZM108.068 115.875V118.434H110.041V119.83H108.068V126.383C108.068 126.806 108.156 127.125 108.332 127.34C108.508 127.548 108.807 127.652 109.23 127.652C109.439 127.652 109.725 127.613 110.09 127.535V129C109.615 129.13 109.152 129.195 108.703 129.195C107.896 129.195 107.287 128.951 106.877 128.463C106.467 127.975 106.262 127.281 106.262 126.383V119.83H104.338V118.434H106.262V115.875H108.068ZM118.684 129C118.579 128.792 118.495 128.421 118.43 127.887C117.59 128.759 116.587 129.195 115.422 129.195C114.38 129.195 113.524 128.902 112.854 128.316C112.189 127.724 111.857 126.975 111.857 126.07C111.857 124.97 112.274 124.117 113.107 123.512C113.947 122.9 115.126 122.594 116.643 122.594H118.4V121.764C118.4 121.132 118.212 120.631 117.834 120.26C117.456 119.882 116.9 119.693 116.164 119.693C115.52 119.693 114.979 119.856 114.543 120.182C114.107 120.507 113.889 120.901 113.889 121.363H112.072C112.072 120.836 112.258 120.328 112.629 119.84C113.007 119.345 113.514 118.954 114.152 118.668C114.797 118.382 115.503 118.238 116.271 118.238C117.489 118.238 118.443 118.544 119.133 119.156C119.823 119.762 120.181 120.598 120.207 121.666V126.529C120.207 127.499 120.331 128.271 120.578 128.844V129H118.684ZM115.686 127.623C116.252 127.623 116.789 127.477 117.297 127.184C117.805 126.891 118.173 126.51 118.4 126.041V123.873H116.984C114.771 123.873 113.664 124.521 113.664 125.816C113.664 126.383 113.853 126.826 114.23 127.145C114.608 127.464 115.093 127.623 115.686 127.623ZM128.146 120.055C127.873 120.009 127.577 119.986 127.258 119.986C126.073 119.986 125.269 120.491 124.846 121.5V129H123.039V118.434H124.797L124.826 119.654C125.419 118.71 126.258 118.238 127.346 118.238C127.697 118.238 127.964 118.284 128.146 118.375V120.055ZM132.756 115.875V118.434H134.729V119.83H132.756V126.383C132.756 126.806 132.844 127.125 133.02 127.34C133.195 127.548 133.495 127.652 133.918 127.652C134.126 127.652 134.413 127.613 134.777 127.535V129C134.302 129.13 133.84 129.195 133.391 129.195C132.583 129.195 131.975 128.951 131.564 128.463C131.154 127.975 130.949 127.281 130.949 126.383V119.83H129.025V118.434H130.949V115.875H132.756Z" fill="white"/>
<path d="M33.8711 155.827L36.7715 146.203H39.707L35.251 159H32.5L28.0615 146.203H30.9883L33.8711 155.827ZM45.8594 159C45.7422 158.771 45.6572 158.487 45.6045 158.147C44.9893 158.833 44.1895 159.176 43.2051 159.176C42.2734 159.176 41.5 158.906 40.8848 158.367C40.2754 157.828 39.9707 157.148 39.9707 156.328C39.9707 155.32 40.3428 154.547 41.0869 154.008C41.8369 153.469 42.918 153.196 44.3301 153.19H45.499V152.646C45.499 152.206 45.3848 151.854 45.1562 151.591C44.9336 151.327 44.5791 151.195 44.0928 151.195C43.665 151.195 43.3281 151.298 43.082 151.503C42.8418 151.708 42.7217 151.989 42.7217 152.347H40.1816C40.1816 151.796 40.3516 151.286 40.6914 150.817C41.0312 150.349 41.5117 149.982 42.1328 149.719C42.7539 149.449 43.4512 149.314 44.2246 149.314C45.3965 149.314 46.3252 149.61 47.0107 150.202C47.7021 150.788 48.0479 151.614 48.0479 152.681V156.803C48.0537 157.705 48.1797 158.388 48.4258 158.851V159H45.8594ZM43.7588 157.233C44.1338 157.233 44.4795 157.151 44.7959 156.987C45.1123 156.817 45.3467 156.592 45.499 156.311V154.676H44.5498C43.2783 154.676 42.6016 155.115 42.5195 155.994L42.5107 156.144C42.5107 156.46 42.6221 156.721 42.8447 156.926C43.0674 157.131 43.3721 157.233 43.7588 157.233ZM52.6797 159H50.1309V145.5H52.6797V159ZM60.4756 158.033C59.8486 158.795 58.9814 159.176 57.874 159.176C56.8545 159.176 56.0752 158.883 55.5361 158.297C55.0029 157.711 54.7305 156.853 54.7188 155.722V149.49H57.2588V155.634C57.2588 156.624 57.71 157.119 58.6123 157.119C59.4736 157.119 60.0654 156.82 60.3877 156.223V149.49H62.9365V159H60.5459L60.4756 158.033ZM69.2295 159.176C67.835 159.176 66.6982 158.748 65.8193 157.893C64.9463 157.037 64.5098 155.897 64.5098 154.474V154.228C64.5098 153.272 64.6943 152.42 65.0635 151.67C65.4326 150.914 65.9541 150.334 66.6279 149.93C67.3076 149.52 68.0811 149.314 68.9482 149.314C70.249 149.314 71.2715 149.725 72.0156 150.545C72.7656 151.365 73.1406 152.528 73.1406 154.034V155.071H67.085C67.167 155.692 67.4131 156.19 67.8232 156.565C68.2393 156.94 68.7637 157.128 69.3965 157.128C70.375 157.128 71.1396 156.773 71.6904 156.064L72.9385 157.462C72.5576 158.001 72.042 158.423 71.3916 158.728C70.7412 159.026 70.0205 159.176 69.2295 159.176ZM68.9395 151.371C68.4355 151.371 68.0254 151.541 67.709 151.881C67.3984 152.221 67.1992 152.707 67.1113 153.34H70.6445V153.138C70.6328 152.575 70.4805 152.142 70.1875 151.837C69.8945 151.526 69.4785 151.371 68.9395 151.371Z" fill="white"/>
<path d="M409.457 155.827L412.357 146.203H415.293L410.837 159H408.086L403.647 146.203H406.574L409.457 155.827ZM421.445 159C421.328 158.771 421.243 158.487 421.19 158.147C420.575 158.833 419.775 159.176 418.791 159.176C417.859 159.176 417.086 158.906 416.471 158.367C415.861 157.828 415.557 157.148 415.557 156.328C415.557 155.32 415.929 154.547 416.673 154.008C417.423 153.469 418.504 153.196 419.916 153.19H421.085V152.646C421.085 152.206 420.971 151.854 420.742 151.591C420.52 151.327 420.165 151.195 419.679 151.195C419.251 151.195 418.914 151.298 418.668 151.503C418.428 151.708 418.308 151.989 418.308 152.347H415.768C415.768 151.796 415.938 151.286 416.277 150.817C416.617 150.349 417.098 149.982 417.719 149.719C418.34 149.449 419.037 149.314 419.811 149.314C420.982 149.314 421.911 149.61 422.597 150.202C423.288 150.788 423.634 151.614 423.634 152.681V156.803C423.64 157.705 423.766 158.388 424.012 158.851V159H421.445ZM419.345 157.233C419.72 157.233 420.065 157.151 420.382 156.987C420.698 156.817 420.933 156.592 421.085 156.311V154.676H420.136C418.864 154.676 418.188 155.115 418.105 155.994L418.097 156.144C418.097 156.46 418.208 156.721 418.431 156.926C418.653 157.131 418.958 157.233 419.345 157.233ZM428.266 159H425.717V145.5H428.266V159ZM436.062 158.033C435.435 158.795 434.567 159.176 433.46 159.176C432.44 159.176 431.661 158.883 431.122 158.297C430.589 157.711 430.316 156.853 430.305 155.722V149.49H432.845V155.634C432.845 156.624 433.296 157.119 434.198 157.119C435.06 157.119 435.651 156.82 435.974 156.223V149.49H438.522V159H436.132L436.062 158.033ZM444.815 159.176C443.421 159.176 442.284 158.748 441.405 157.893C440.532 157.037 440.096 155.897 440.096 154.474V154.228C440.096 153.272 440.28 152.42 440.649 151.67C441.019 150.914 441.54 150.334 442.214 149.93C442.894 149.52 443.667 149.314 444.534 149.314C445.835 149.314 446.857 149.725 447.602 150.545C448.352 151.365 448.727 152.528 448.727 154.034V155.071H442.671C442.753 155.692 442.999 156.19 443.409 156.565C443.825 156.94 444.35 157.128 444.982 157.128C445.961 157.128 446.726 156.773 447.276 156.064L448.524 157.462C448.144 158.001 447.628 158.423 446.978 158.728C446.327 159.026 445.606 159.176 444.815 159.176ZM444.525 151.371C444.021 151.371 443.611 151.541 443.295 151.881C442.984 152.221 442.785 152.707 442.697 153.34H446.23V153.138C446.219 152.575 446.066 152.142 445.773 151.837C445.48 151.526 445.064 151.371 444.525 151.371Z" fill="white"/>
<path d="M413.078 122.721H407.111V129H405.236V114.781H414.045V116.324H407.111V121.188H413.078V122.721ZM422.316 127.955C421.613 128.782 420.581 129.195 419.221 129.195C418.094 129.195 417.235 128.87 416.643 128.219C416.057 127.561 415.76 126.591 415.754 125.309V118.434H417.561V125.26C417.561 126.861 418.212 127.662 419.514 127.662C420.894 127.662 421.812 127.148 422.268 126.119V118.434H424.074V129H422.355L422.316 127.955ZM428.537 118.434L428.596 119.762C429.403 118.746 430.458 118.238 431.76 118.238C433.993 118.238 435.119 119.498 435.139 122.018V129H433.332V122.008C433.326 121.246 433.15 120.683 432.805 120.318C432.466 119.954 431.936 119.771 431.213 119.771C430.627 119.771 430.113 119.928 429.67 120.24C429.227 120.553 428.882 120.963 428.635 121.471V129H426.828V118.434H428.537ZM439.572 118.434L439.631 119.762C440.438 118.746 441.493 118.238 442.795 118.238C445.028 118.238 446.154 119.498 446.174 122.018V129H444.367V122.008C444.361 121.246 444.185 120.683 443.84 120.318C443.501 119.954 442.971 119.771 442.248 119.771C441.662 119.771 441.148 119.928 440.705 120.24C440.262 120.553 439.917 120.963 439.67 121.471V129H437.863V118.434H439.572ZM453.283 129.195C451.851 129.195 450.686 128.727 449.787 127.789C448.889 126.845 448.439 125.585 448.439 124.01V123.678C448.439 122.63 448.638 121.695 449.035 120.875C449.439 120.048 449.999 119.404 450.715 118.941C451.438 118.473 452.219 118.238 453.059 118.238C454.432 118.238 455.5 118.691 456.262 119.596C457.023 120.501 457.404 121.796 457.404 123.482V124.234H450.246C450.272 125.276 450.575 126.119 451.154 126.764C451.74 127.402 452.482 127.721 453.381 127.721C454.019 127.721 454.559 127.59 455.002 127.33C455.445 127.07 455.832 126.725 456.164 126.295L457.268 127.154C456.382 128.515 455.054 129.195 453.283 129.195ZM453.059 119.723C452.329 119.723 451.717 119.99 451.223 120.523C450.728 121.051 450.422 121.793 450.305 122.75H455.598V122.613C455.546 121.695 455.298 120.986 454.855 120.484C454.413 119.977 453.814 119.723 453.059 119.723ZM461.467 129H459.66V114H461.467V129ZM473.801 122.662C472.193 122.2 471.021 121.633 470.285 120.963C469.556 120.286 469.191 119.452 469.191 118.463C469.191 117.343 469.637 116.419 470.529 115.689C471.428 114.954 472.593 114.586 474.025 114.586C475.002 114.586 475.871 114.775 476.633 115.152C477.401 115.53 477.993 116.051 478.41 116.715C478.833 117.379 479.045 118.105 479.045 118.893H477.16C477.16 118.033 476.887 117.359 476.34 116.871C475.793 116.376 475.021 116.129 474.025 116.129C473.101 116.129 472.378 116.334 471.857 116.744C471.343 117.148 471.086 117.711 471.086 118.434C471.086 119.013 471.33 119.505 471.818 119.908C472.313 120.305 473.15 120.67 474.328 121.002C475.513 121.334 476.438 121.702 477.102 122.105C477.772 122.503 478.267 122.968 478.586 123.502C478.911 124.036 479.074 124.664 479.074 125.387C479.074 126.539 478.625 127.464 477.727 128.16C476.828 128.85 475.627 129.195 474.123 129.195C473.146 129.195 472.235 129.01 471.389 128.639C470.542 128.261 469.888 127.747 469.426 127.096C468.97 126.445 468.742 125.706 468.742 124.879H470.627C470.627 125.738 470.943 126.419 471.574 126.92C472.212 127.415 473.062 127.662 474.123 127.662C475.113 127.662 475.871 127.46 476.398 127.057C476.926 126.653 477.189 126.103 477.189 125.406C477.189 124.71 476.945 124.173 476.457 123.795C475.969 123.411 475.083 123.033 473.801 122.662ZM483.654 115.875V118.434H485.627V119.83H483.654V126.383C483.654 126.806 483.742 127.125 483.918 127.34C484.094 127.548 484.393 127.652 484.816 127.652C485.025 127.652 485.311 127.613 485.676 127.535V129C485.201 129.13 484.738 129.195 484.289 129.195C483.482 129.195 482.873 128.951 482.463 128.463C482.053 127.975 481.848 127.281 481.848 126.383V119.83H479.924V118.434H481.848V115.875H483.654ZM492.131 129.195C490.699 129.195 489.533 128.727 488.635 127.789C487.736 126.845 487.287 125.585 487.287 124.01V123.678C487.287 122.63 487.486 121.695 487.883 120.875C488.286 120.048 488.846 119.404 489.562 118.941C490.285 118.473 491.066 118.238 491.906 118.238C493.28 118.238 494.348 118.691 495.109 119.596C495.871 120.501 496.252 121.796 496.252 123.482V124.234H489.094C489.12 125.276 489.423 126.119 490.002 126.764C490.588 127.402 491.33 127.721 492.229 127.721C492.867 127.721 493.407 127.59 493.85 127.33C494.292 127.07 494.68 126.725 495.012 126.295L496.115 127.154C495.23 128.515 493.902 129.195 492.131 129.195ZM491.906 119.723C491.177 119.723 490.565 119.99 490.07 120.523C489.576 121.051 489.27 121.793 489.152 122.75H494.445V122.613C494.393 121.695 494.146 120.986 493.703 120.484C493.26 119.977 492.661 119.723 491.906 119.723ZM507.277 123.834C507.277 125.442 506.91 126.738 506.174 127.721C505.438 128.704 504.442 129.195 503.186 129.195C501.903 129.195 500.894 128.788 500.158 127.975V133.062H498.352V118.434H500.002L500.09 119.605C500.826 118.694 501.848 118.238 503.156 118.238C504.426 118.238 505.428 118.717 506.164 119.674C506.906 120.631 507.277 121.962 507.277 123.668V123.834ZM505.471 123.629C505.471 122.438 505.217 121.497 504.709 120.807C504.201 120.117 503.505 119.771 502.619 119.771C501.525 119.771 500.705 120.257 500.158 121.227V126.275C500.699 127.239 501.525 127.721 502.639 127.721C503.505 127.721 504.191 127.379 504.699 126.695C505.214 126.005 505.471 124.983 505.471 123.629ZM523.674 129H514.357V127.701L519.279 122.232C520.008 121.406 520.51 120.735 520.783 120.221C521.063 119.7 521.203 119.163 521.203 118.609C521.203 117.867 520.979 117.258 520.529 116.783C520.08 116.308 519.481 116.07 518.732 116.07C517.834 116.07 517.134 116.327 516.633 116.842C516.138 117.35 515.891 118.059 515.891 118.971H514.084C514.084 117.662 514.504 116.604 515.344 115.797C516.19 114.99 517.32 114.586 518.732 114.586C520.054 114.586 521.099 114.934 521.867 115.631C522.635 116.321 523.02 117.242 523.02 118.395C523.02 119.794 522.128 121.461 520.344 123.395L516.535 127.525H523.674V129Z" fill="white"/>
<path d="M787.449 155.827L790.35 146.203H793.285L788.829 159H786.078L781.64 146.203H784.566L787.449 155.827ZM799.438 159C799.32 158.771 799.235 158.487 799.183 158.147C798.567 158.833 797.768 159.176 796.783 159.176C795.852 159.176 795.078 158.906 794.463 158.367C793.854 157.828 793.549 157.148 793.549 156.328C793.549 155.32 793.921 154.547 794.665 154.008C795.415 153.469 796.496 153.196 797.908 153.19H799.077V152.646C799.077 152.206 798.963 151.854 798.734 151.591C798.512 151.327 798.157 151.195 797.671 151.195C797.243 151.195 796.906 151.298 796.66 151.503C796.42 151.708 796.3 151.989 796.3 152.347H793.76C793.76 151.796 793.93 151.286 794.27 150.817C794.609 150.349 795.09 149.982 795.711 149.719C796.332 149.449 797.029 149.314 797.803 149.314C798.975 149.314 799.903 149.61 800.589 150.202C801.28 150.788 801.626 151.614 801.626 152.681V156.803C801.632 157.705 801.758 158.388 802.004 158.851V159H799.438ZM797.337 157.233C797.712 157.233 798.058 157.151 798.374 156.987C798.69 156.817 798.925 156.592 799.077 156.311V154.676H798.128C796.856 154.676 796.18 155.115 796.098 155.994L796.089 156.144C796.089 156.46 796.2 156.721 796.423 156.926C796.646 157.131 796.95 157.233 797.337 157.233ZM806.258 159H803.709V145.5H806.258V159ZM814.054 158.033C813.427 158.795 812.56 159.176 811.452 159.176C810.433 159.176 809.653 158.883 809.114 158.297C808.581 157.711 808.309 156.853 808.297 155.722V149.49H810.837V155.634C810.837 156.624 811.288 157.119 812.19 157.119C813.052 157.119 813.644 156.82 813.966 156.223V149.49H816.515V159H814.124L814.054 158.033ZM822.808 159.176C821.413 159.176 820.276 158.748 819.397 157.893C818.524 157.037 818.088 155.897 818.088 154.474V154.228C818.088 153.272 818.272 152.42 818.642 151.67C819.011 150.914 819.532 150.334 820.206 149.93C820.886 149.52 821.659 149.314 822.526 149.314C823.827 149.314 824.85 149.725 825.594 150.545C826.344 151.365 826.719 152.528 826.719 154.034V155.071H820.663C820.745 155.692 820.991 156.19 821.401 156.565C821.817 156.94 822.342 157.128 822.975 157.128C823.953 157.128 824.718 156.773 825.269 156.064L826.517 157.462C826.136 158.001 825.62 158.423 824.97 158.728C824.319 159.026 823.599 159.176 822.808 159.176ZM822.518 151.371C822.014 151.371 821.604 151.541 821.287 151.881C820.977 152.221 820.777 152.707 820.689 153.34H824.223V153.138C824.211 152.575 824.059 152.142 823.766 151.837C823.473 151.526 823.057 151.371 822.518 151.371Z" fill="white"/>
<path d="M788.662 122.721H782.695V129H780.82V114.781H789.629V116.324H782.695V121.188H788.662V122.721ZM797.9 127.955C797.197 128.782 796.165 129.195 794.805 129.195C793.678 129.195 792.819 128.87 792.227 128.219C791.641 127.561 791.344 126.591 791.338 125.309V118.434H793.145V125.26C793.145 126.861 793.796 127.662 795.098 127.662C796.478 127.662 797.396 127.148 797.852 126.119V118.434H799.658V129H797.939L797.9 127.955ZM804.121 118.434L804.18 119.762C804.987 118.746 806.042 118.238 807.344 118.238C809.577 118.238 810.703 119.498 810.723 122.018V129H808.916V122.008C808.91 121.246 808.734 120.683 808.389 120.318C808.05 119.954 807.52 119.771 806.797 119.771C806.211 119.771 805.697 119.928 805.254 120.24C804.811 120.553 804.466 120.963 804.219 121.471V129H802.412V118.434H804.121ZM815.156 118.434L815.215 119.762C816.022 118.746 817.077 118.238 818.379 118.238C820.612 118.238 821.738 119.498 821.758 122.018V129H819.951V122.008C819.945 121.246 819.769 120.683 819.424 120.318C819.085 119.954 818.555 119.771 817.832 119.771C817.246 119.771 816.732 119.928 816.289 120.24C815.846 120.553 815.501 120.963 815.254 121.471V129H813.447V118.434H815.156ZM828.867 129.195C827.435 129.195 826.27 128.727 825.371 127.789C824.473 126.845 824.023 125.585 824.023 124.01V123.678C824.023 122.63 824.222 121.695 824.619 120.875C825.023 120.048 825.583 119.404 826.299 118.941C827.021 118.473 827.803 118.238 828.643 118.238C830.016 118.238 831.084 118.691 831.846 119.596C832.607 120.501 832.988 121.796 832.988 123.482V124.234H825.83C825.856 125.276 826.159 126.119 826.738 126.764C827.324 127.402 828.066 127.721 828.965 127.721C829.603 127.721 830.143 127.59 830.586 127.33C831.029 127.07 831.416 126.725 831.748 126.295L832.852 127.154C831.966 128.515 830.638 129.195 828.867 129.195ZM828.643 119.723C827.913 119.723 827.301 119.99 826.807 120.523C826.312 121.051 826.006 121.793 825.889 122.75H831.182V122.613C831.13 121.695 830.882 120.986 830.439 120.484C829.997 119.977 829.398 119.723 828.643 119.723ZM837.051 129H835.244V114H837.051V129ZM849.385 122.662C847.777 122.2 846.605 121.633 845.869 120.963C845.14 120.286 844.775 119.452 844.775 118.463C844.775 117.343 845.221 116.419 846.113 115.689C847.012 114.954 848.177 114.586 849.609 114.586C850.586 114.586 851.455 114.775 852.217 115.152C852.985 115.53 853.577 116.051 853.994 116.715C854.417 117.379 854.629 118.105 854.629 118.893H852.744C852.744 118.033 852.471 117.359 851.924 116.871C851.377 116.376 850.605 116.129 849.609 116.129C848.685 116.129 847.962 116.334 847.441 116.744C846.927 117.148 846.67 117.711 846.67 118.434C846.67 119.013 846.914 119.505 847.402 119.908C847.897 120.305 848.734 120.67 849.912 121.002C851.097 121.334 852.021 121.702 852.686 122.105C853.356 122.503 853.851 122.968 854.17 123.502C854.495 124.036 854.658 124.664 854.658 125.387C854.658 126.539 854.209 127.464 853.311 128.16C852.412 128.85 851.211 129.195 849.707 129.195C848.73 129.195 847.819 129.01 846.973 128.639C846.126 128.261 845.472 127.747 845.01 127.096C844.554 126.445 844.326 125.706 844.326 124.879H846.211C846.211 125.738 846.527 126.419 847.158 126.92C847.796 127.415 848.646 127.662 849.707 127.662C850.697 127.662 851.455 127.46 851.982 127.057C852.51 126.653 852.773 126.103 852.773 125.406C852.773 124.71 852.529 124.173 852.041 123.795C851.553 123.411 850.667 123.033 849.385 122.662ZM859.238 115.875V118.434H861.211V119.83H859.238V126.383C859.238 126.806 859.326 127.125 859.502 127.34C859.678 127.548 859.977 127.652 860.4 127.652C860.609 127.652 860.895 127.613 861.26 127.535V129C860.785 129.13 860.322 129.195 859.873 129.195C859.066 129.195 858.457 128.951 858.047 128.463C857.637 127.975 857.432 127.281 857.432 126.383V119.83H855.508V118.434H857.432V115.875H859.238ZM867.715 129.195C866.283 129.195 865.117 128.727 864.219 127.789C863.32 126.845 862.871 125.585 862.871 124.01V123.678C862.871 122.63 863.07 121.695 863.467 120.875C863.87 120.048 864.43 119.404 865.146 118.941C865.869 118.473 866.65 118.238 867.49 118.238C868.864 118.238 869.932 118.691 870.693 119.596C871.455 120.501 871.836 121.796 871.836 123.482V124.234H864.678C864.704 125.276 865.007 126.119 865.586 126.764C866.172 127.402 866.914 127.721 867.812 127.721C868.451 127.721 868.991 127.59 869.434 127.33C869.876 127.07 870.264 126.725 870.596 126.295L871.699 127.154C870.814 128.515 869.486 129.195 867.715 129.195ZM867.49 119.723C866.761 119.723 866.149 119.99 865.654 120.523C865.16 121.051 864.854 121.793 864.736 122.75H870.029V122.613C869.977 121.695 869.73 120.986 869.287 120.484C868.844 119.977 868.245 119.723 867.49 119.723ZM882.861 123.834C882.861 125.442 882.493 126.738 881.758 127.721C881.022 128.704 880.026 129.195 878.77 129.195C877.487 129.195 876.478 128.788 875.742 127.975V133.062H873.936V118.434H875.586L875.674 119.605C876.41 118.694 877.432 118.238 878.74 118.238C880.01 118.238 881.012 118.717 881.748 119.674C882.49 120.631 882.861 121.962 882.861 123.668V123.834ZM881.055 123.629C881.055 122.438 880.801 121.497 880.293 120.807C879.785 120.117 879.089 119.771 878.203 119.771C877.109 119.771 876.289 120.257 875.742 121.227V126.275C876.283 127.239 877.109 127.721 878.223 127.721C879.089 127.721 879.775 127.379 880.283 126.695C880.798 126.005 881.055 124.983 881.055 123.629ZM892.568 121.012H893.926C894.779 120.999 895.449 120.774 895.938 120.338C896.426 119.902 896.67 119.312 896.67 118.57C896.67 116.904 895.84 116.07 894.18 116.07C893.398 116.07 892.773 116.295 892.305 116.744C891.842 117.187 891.611 117.776 891.611 118.512H889.805C889.805 117.385 890.215 116.451 891.035 115.709C891.862 114.96 892.91 114.586 894.18 114.586C895.521 114.586 896.572 114.941 897.334 115.65C898.096 116.36 898.477 117.346 898.477 118.609C898.477 119.228 898.275 119.827 897.871 120.406C897.474 120.986 896.93 121.419 896.24 121.705C897.021 121.952 897.624 122.363 898.047 122.936C898.477 123.508 898.691 124.208 898.691 125.035C898.691 126.311 898.275 127.324 897.441 128.072C896.608 128.821 895.524 129.195 894.189 129.195C892.855 129.195 891.768 128.834 890.928 128.111C890.094 127.389 889.678 126.435 889.678 125.25H891.494C891.494 125.999 891.738 126.598 892.227 127.047C892.715 127.496 893.369 127.721 894.189 127.721C895.062 127.721 895.729 127.493 896.191 127.037C896.654 126.581 896.885 125.927 896.885 125.074C896.885 124.247 896.631 123.613 896.123 123.17C895.615 122.727 894.883 122.499 893.926 122.486H892.568V121.012Z" fill="white"/>
<path d="M1160.63 155.827L1163.53 146.203H1166.46L1162.01 159H1159.26L1154.82 146.203H1157.74L1160.63 155.827ZM1172.62 159C1172.5 158.771 1172.41 158.487 1172.36 158.147C1171.75 158.833 1170.95 159.176 1169.96 159.176C1169.03 159.176 1168.26 158.906 1167.64 158.367C1167.03 157.828 1166.73 157.148 1166.73 156.328C1166.73 155.32 1167.1 154.547 1167.84 154.008C1168.59 153.469 1169.67 153.196 1171.09 153.19H1172.25V152.646C1172.25 152.206 1172.14 151.854 1171.91 151.591C1171.69 151.327 1171.33 151.195 1170.85 151.195C1170.42 151.195 1170.08 151.298 1169.84 151.503C1169.6 151.708 1169.48 151.989 1169.48 152.347H1166.94C1166.94 151.796 1167.11 151.286 1167.45 150.817C1167.79 150.349 1168.27 149.982 1168.89 149.719C1169.51 149.449 1170.21 149.314 1170.98 149.314C1172.15 149.314 1173.08 149.61 1173.77 150.202C1174.46 150.788 1174.8 151.614 1174.8 152.681V156.803C1174.81 157.705 1174.94 158.388 1175.18 158.851V159H1172.62ZM1170.51 157.233C1170.89 157.233 1171.24 157.151 1171.55 156.987C1171.87 156.817 1172.1 156.592 1172.25 156.311V154.676H1171.31C1170.03 154.676 1169.36 155.115 1169.28 155.994L1169.27 156.144C1169.27 156.46 1169.38 156.721 1169.6 156.926C1169.82 157.131 1170.13 157.233 1170.51 157.233ZM1179.44 159H1176.89V145.5H1179.44V159ZM1187.23 158.033C1186.6 158.795 1185.74 159.176 1184.63 159.176C1183.61 159.176 1182.83 158.883 1182.29 158.297C1181.76 157.711 1181.49 156.853 1181.47 155.722V149.49H1184.01V155.634C1184.01 156.624 1184.47 157.119 1185.37 157.119C1186.23 157.119 1186.82 156.82 1187.14 156.223V149.49H1189.69V159H1187.3L1187.23 158.033ZM1195.99 159.176C1194.59 159.176 1193.45 158.748 1192.58 157.893C1191.7 157.037 1191.27 155.897 1191.27 154.474V154.228C1191.27 153.272 1191.45 152.42 1191.82 151.67C1192.19 150.914 1192.71 150.334 1193.38 149.93C1194.06 149.52 1194.84 149.314 1195.7 149.314C1197 149.314 1198.03 149.725 1198.77 150.545C1199.52 151.365 1199.9 152.528 1199.9 154.034V155.071H1193.84C1193.92 155.692 1194.17 156.19 1194.58 156.565C1195 156.94 1195.52 157.128 1196.15 157.128C1197.13 157.128 1197.9 156.773 1198.45 156.064L1199.69 157.462C1199.31 158.001 1198.8 158.423 1198.15 158.728C1197.5 159.026 1196.78 159.176 1195.99 159.176ZM1195.7 151.371C1195.19 151.371 1194.78 151.541 1194.46 151.881C1194.15 152.221 1193.96 152.707 1193.87 153.34H1197.4V153.138C1197.39 152.575 1197.24 152.142 1196.94 151.837C1196.65 151.526 1196.23 151.371 1195.7 151.371Z" fill="white"/>
<path d="M1164.25 122.721H1158.28V129H1156.41V114.781H1165.21V116.324H1158.28V121.188H1164.25V122.721ZM1173.49 127.955C1172.78 128.782 1171.75 129.195 1170.39 129.195C1169.26 129.195 1168.4 128.87 1167.81 128.219C1167.23 127.561 1166.93 126.591 1166.92 125.309V118.434H1168.73V125.26C1168.73 126.861 1169.38 127.662 1170.68 127.662C1172.06 127.662 1172.98 127.148 1173.44 126.119V118.434H1175.24V129H1173.53L1173.49 127.955ZM1179.71 118.434L1179.77 119.762C1180.57 118.746 1181.63 118.238 1182.93 118.238C1185.16 118.238 1186.29 119.498 1186.31 122.018V129H1184.5V122.008C1184.5 121.246 1184.32 120.683 1183.97 120.318C1183.64 119.954 1183.11 119.771 1182.38 119.771C1181.8 119.771 1181.28 119.928 1180.84 120.24C1180.4 120.553 1180.05 120.963 1179.8 121.471V129H1178V118.434H1179.71ZM1190.74 118.434L1190.8 119.762C1191.61 118.746 1192.66 118.238 1193.96 118.238C1196.2 118.238 1197.32 119.498 1197.34 122.018V129H1195.54V122.008C1195.53 121.246 1195.35 120.683 1195.01 120.318C1194.67 119.954 1194.14 119.771 1193.42 119.771C1192.83 119.771 1192.32 119.928 1191.88 120.24C1191.43 120.553 1191.09 120.963 1190.84 121.471V129H1189.03V118.434H1190.74ZM1204.45 129.195C1203.02 129.195 1201.86 128.727 1200.96 127.789C1200.06 126.845 1199.61 125.585 1199.61 124.01V123.678C1199.61 122.63 1199.81 121.695 1200.21 120.875C1200.61 120.048 1201.17 119.404 1201.88 118.941C1202.61 118.473 1203.39 118.238 1204.23 118.238C1205.6 118.238 1206.67 118.691 1207.43 119.596C1208.19 120.501 1208.57 121.796 1208.57 123.482V124.234H1201.42C1201.44 125.276 1201.74 126.119 1202.32 126.764C1202.91 127.402 1203.65 127.721 1204.55 127.721C1205.19 127.721 1205.73 127.59 1206.17 127.33C1206.61 127.07 1207 126.725 1207.33 126.295L1208.44 127.154C1207.55 128.515 1206.22 129.195 1204.45 129.195ZM1204.23 119.723C1203.5 119.723 1202.89 119.99 1202.39 120.523C1201.9 121.051 1201.59 121.793 1201.47 122.75H1206.77V122.613C1206.72 121.695 1206.47 120.986 1206.03 120.484C1205.58 119.977 1204.98 119.723 1204.23 119.723ZM1212.64 129H1210.83V114H1212.64V129ZM1224.97 122.662C1223.36 122.2 1222.19 121.633 1221.46 120.963C1220.73 120.286 1220.36 119.452 1220.36 118.463C1220.36 117.343 1220.81 116.419 1221.7 115.689C1222.6 114.954 1223.76 114.586 1225.2 114.586C1226.17 114.586 1227.04 114.775 1227.8 115.152C1228.57 115.53 1229.16 116.051 1229.58 116.715C1230 117.379 1230.21 118.105 1230.21 118.893H1228.33C1228.33 118.033 1228.06 117.359 1227.51 116.871C1226.96 116.376 1226.19 116.129 1225.2 116.129C1224.27 116.129 1223.55 116.334 1223.03 116.744C1222.51 117.148 1222.26 117.711 1222.26 118.434C1222.26 119.013 1222.5 119.505 1222.99 119.908C1223.48 120.305 1224.32 120.67 1225.5 121.002C1226.68 121.334 1227.61 121.702 1228.27 122.105C1228.94 122.503 1229.44 122.968 1229.76 123.502C1230.08 124.036 1230.24 124.664 1230.24 125.387C1230.24 126.539 1229.79 127.464 1228.9 128.16C1228 128.85 1226.8 129.195 1225.29 129.195C1224.32 129.195 1223.4 129.01 1222.56 128.639C1221.71 128.261 1221.06 127.747 1220.6 127.096C1220.14 126.445 1219.91 125.706 1219.91 124.879H1221.8C1221.8 125.738 1222.11 126.419 1222.74 126.92C1223.38 127.415 1224.23 127.662 1225.29 127.662C1226.28 127.662 1227.04 127.46 1227.57 127.057C1228.1 126.653 1228.36 126.103 1228.36 125.406C1228.36 124.71 1228.12 124.173 1227.63 123.795C1227.14 123.411 1226.25 123.033 1224.97 122.662ZM1234.82 115.875V118.434H1236.8V119.83H1234.82V126.383C1234.82 126.806 1234.91 127.125 1235.09 127.34C1235.26 127.548 1235.56 127.652 1235.99 127.652C1236.19 127.652 1236.48 127.613 1236.85 127.535V129C1236.37 129.13 1235.91 129.195 1235.46 129.195C1234.65 129.195 1234.04 128.951 1233.63 128.463C1233.22 127.975 1233.02 127.281 1233.02 126.383V119.83H1231.09V118.434H1233.02V115.875H1234.82ZM1243.3 129.195C1241.87 129.195 1240.7 128.727 1239.8 127.789C1238.91 126.845 1238.46 125.585 1238.46 124.01V123.678C1238.46 122.63 1238.66 121.695 1239.05 120.875C1239.46 120.048 1240.02 119.404 1240.73 118.941C1241.46 118.473 1242.24 118.238 1243.08 118.238C1244.45 118.238 1245.52 118.691 1246.28 119.596C1247.04 120.501 1247.42 121.796 1247.42 123.482V124.234H1240.26C1240.29 125.276 1240.59 126.119 1241.17 126.764C1241.76 127.402 1242.5 127.721 1243.4 127.721C1244.04 127.721 1244.58 127.59 1245.02 127.33C1245.46 127.07 1245.85 126.725 1246.18 126.295L1247.29 127.154C1246.4 128.515 1245.07 129.195 1243.3 129.195ZM1243.08 119.723C1242.35 119.723 1241.74 119.99 1241.24 120.523C1240.75 121.051 1240.44 121.793 1240.32 122.75H1245.62V122.613C1245.56 121.695 1245.32 120.986 1244.87 120.484C1244.43 119.977 1243.83 119.723 1243.08 119.723ZM1258.45 123.834C1258.45 125.442 1258.08 126.738 1257.34 127.721C1256.61 128.704 1255.61 129.195 1254.36 129.195C1253.07 129.195 1252.06 128.788 1251.33 127.975V133.062H1249.52V118.434H1251.17L1251.26 119.605C1252 118.694 1253.02 118.238 1254.33 118.238C1255.6 118.238 1256.6 118.717 1257.33 119.674C1258.08 120.631 1258.45 121.962 1258.45 123.668V123.834ZM1256.64 123.629C1256.64 122.438 1256.39 121.497 1255.88 120.807C1255.37 120.117 1254.67 119.771 1253.79 119.771C1252.7 119.771 1251.88 120.257 1251.33 121.227V126.275C1251.87 127.239 1252.7 127.721 1253.81 127.721C1254.67 127.721 1255.36 127.379 1255.87 126.695C1256.38 126.005 1256.64 124.983 1256.64 123.629ZM1273.15 124.225H1275.13V125.699H1273.15V129H1271.34V125.699H1264.86V124.635L1271.23 114.781H1273.15V124.225ZM1266.91 124.225H1271.34V117.252L1271.12 117.643L1266.91 124.225Z" fill="white"/>
<path d="M1536.21 155.827L1539.11 146.203H1542.05L1537.59 159H1534.84L1530.4 146.203H1533.33L1536.21 155.827ZM1548.2 159C1548.08 158.771 1548 158.487 1547.94 158.147C1547.33 158.833 1546.53 159.176 1545.54 159.176C1544.61 159.176 1543.84 158.906 1543.22 158.367C1542.62 157.828 1542.31 157.148 1542.31 156.328C1542.31 155.32 1542.68 154.547 1543.43 154.008C1544.18 153.469 1545.26 153.196 1546.67 153.19H1547.84V152.646C1547.84 152.206 1547.72 151.854 1547.5 151.591C1547.27 151.327 1546.92 151.195 1546.43 151.195C1546 151.195 1545.67 151.298 1545.42 151.503C1545.18 151.708 1545.06 151.989 1545.06 152.347H1542.52C1542.52 151.796 1542.69 151.286 1543.03 150.817C1543.37 150.349 1543.85 149.982 1544.47 149.719C1545.09 149.449 1545.79 149.314 1546.56 149.314C1547.74 149.314 1548.67 149.61 1549.35 150.202C1550.04 150.788 1550.39 151.614 1550.39 152.681V156.803C1550.39 157.705 1550.52 158.388 1550.77 158.851V159H1548.2ZM1546.1 157.233C1546.47 157.233 1546.82 157.151 1547.14 156.987C1547.45 156.817 1547.69 156.592 1547.84 156.311V154.676H1546.89C1545.62 154.676 1544.94 155.115 1544.86 155.994L1544.85 156.144C1544.85 156.46 1544.96 156.721 1545.18 156.926C1545.41 157.131 1545.71 157.233 1546.1 157.233ZM1555.02 159H1552.47V145.5H1555.02V159ZM1562.82 158.033C1562.19 158.795 1561.32 159.176 1560.21 159.176C1559.19 159.176 1558.42 158.883 1557.88 158.297C1557.34 157.711 1557.07 156.853 1557.06 155.722V149.49H1559.6V155.634C1559.6 156.624 1560.05 157.119 1560.95 157.119C1561.81 157.119 1562.41 156.82 1562.73 156.223V149.49H1565.28V159H1562.89L1562.82 158.033ZM1571.57 159.176C1570.17 159.176 1569.04 158.748 1568.16 157.893C1567.29 157.037 1566.85 155.897 1566.85 154.474V154.228C1566.85 153.272 1567.03 152.42 1567.4 151.67C1567.77 150.914 1568.29 150.334 1568.97 149.93C1569.65 149.52 1570.42 149.314 1571.29 149.314C1572.59 149.314 1573.61 149.725 1574.36 150.545C1575.11 151.365 1575.48 152.528 1575.48 154.034V155.071H1569.42C1569.51 155.692 1569.75 156.19 1570.16 156.565C1570.58 156.94 1571.1 157.128 1571.74 157.128C1572.71 157.128 1573.48 156.773 1574.03 156.064L1575.28 157.462C1574.9 158.001 1574.38 158.423 1573.73 158.728C1573.08 159.026 1572.36 159.176 1571.57 159.176ZM1571.28 151.371C1570.78 151.371 1570.37 151.541 1570.05 151.881C1569.74 152.221 1569.54 152.707 1569.45 153.34H1572.98V153.138C1572.97 152.575 1572.82 152.142 1572.53 151.837C1572.23 151.526 1571.82 151.371 1571.28 151.371Z" fill="white"/>
<path d="M1539.83 122.721H1533.87V129H1531.99V114.781H1540.8V116.324H1533.87V121.188H1539.83V122.721ZM1549.07 127.955C1548.37 128.782 1547.34 129.195 1545.97 129.195C1544.85 129.195 1543.99 128.87 1543.4 128.219C1542.81 127.561 1542.51 126.591 1542.51 125.309V118.434H1544.31V125.26C1544.31 126.861 1544.97 127.662 1546.27 127.662C1547.65 127.662 1548.57 127.148 1549.02 126.119V118.434H1550.83V129H1549.11L1549.07 127.955ZM1555.29 118.434L1555.35 119.762C1556.16 118.746 1557.21 118.238 1558.51 118.238C1560.75 118.238 1561.87 119.498 1561.89 122.018V129H1560.09V122.008C1560.08 121.246 1559.9 120.683 1559.56 120.318C1559.22 119.954 1558.69 119.771 1557.97 119.771C1557.38 119.771 1556.87 119.928 1556.42 120.24C1555.98 120.553 1555.64 120.963 1555.39 121.471V129H1553.58V118.434H1555.29ZM1566.33 118.434L1566.38 119.762C1567.19 118.746 1568.25 118.238 1569.55 118.238C1571.78 118.238 1572.91 119.498 1572.93 122.018V129H1571.12V122.008C1571.11 121.246 1570.94 120.683 1570.59 120.318C1570.26 119.954 1569.72 119.771 1569 119.771C1568.42 119.771 1567.9 119.928 1567.46 120.24C1567.02 120.553 1566.67 120.963 1566.42 121.471V129H1564.62V118.434H1566.33ZM1580.04 129.195C1578.6 129.195 1577.44 128.727 1576.54 127.789C1575.64 126.845 1575.19 125.585 1575.19 124.01V123.678C1575.19 122.63 1575.39 121.695 1575.79 120.875C1576.19 120.048 1576.75 119.404 1577.47 118.941C1578.19 118.473 1578.97 118.238 1579.81 118.238C1581.19 118.238 1582.25 118.691 1583.02 119.596C1583.78 120.501 1584.16 121.796 1584.16 123.482V124.234H1577C1577.03 125.276 1577.33 126.119 1577.91 126.764C1578.49 127.402 1579.24 127.721 1580.13 127.721C1580.77 127.721 1581.31 127.59 1581.76 127.33C1582.2 127.07 1582.59 126.725 1582.92 126.295L1584.02 127.154C1583.14 128.515 1581.81 129.195 1580.04 129.195ZM1579.81 119.723C1579.08 119.723 1578.47 119.99 1577.98 120.523C1577.48 121.051 1577.18 121.793 1577.06 122.75H1582.35V122.613C1582.3 121.695 1582.05 120.986 1581.61 120.484C1581.17 119.977 1580.57 119.723 1579.81 119.723ZM1588.22 129H1586.41V114H1588.22V129ZM1604.4 122.428H1598.24V127.467H1605.4V129H1596.37V114.781H1605.3V116.324H1598.24V120.895H1604.4V122.428ZM1609.16 118.434L1609.22 119.762C1610.02 118.746 1611.08 118.238 1612.38 118.238C1614.61 118.238 1615.74 119.498 1615.76 122.018V129H1613.95V122.008C1613.95 121.246 1613.77 120.683 1613.43 120.318C1613.09 119.954 1612.56 119.771 1611.83 119.771C1611.25 119.771 1610.73 119.928 1610.29 120.24C1609.85 120.553 1609.5 120.963 1609.26 121.471V129H1607.45V118.434H1609.16ZM1618.04 123.629C1618.04 122.008 1618.43 120.706 1619.2 119.723C1619.97 118.733 1620.97 118.238 1622.21 118.238C1623.45 118.238 1624.43 118.661 1625.15 119.508V114H1626.96V129H1625.3L1625.21 127.867C1624.49 128.753 1623.48 129.195 1622.2 129.195C1620.97 129.195 1619.97 128.694 1619.2 127.691C1618.43 126.689 1618.04 125.38 1618.04 123.766V123.629ZM1619.85 123.834C1619.85 125.032 1620.1 125.969 1620.59 126.646C1621.09 127.324 1621.77 127.662 1622.64 127.662C1623.79 127.662 1624.63 127.148 1625.15 126.119V121.266C1624.61 120.27 1623.78 119.771 1622.66 119.771C1621.78 119.771 1621.09 120.113 1620.59 120.797C1620.1 121.48 1619.85 122.493 1619.85 123.834Z" fill="white"/>
<defs>
<filter id="filter0_d" x="0" y="0" width="1703" height="656" filterUnits="userSpaceOnUse" color-interpolation-filters="sRGB">
<feFlood flood-opacity="0" result="BackgroundImageFix"/>
<feColorMatrix in="SourceAlpha" type="matrix" values="0 0 0 0 0 0 0 0 0 0 0 0 0 0 0 0 0 0 127 0"/>
<feOffset/>
<feGaussianBlur stdDeviation="1.5"/>
<feColorMatrix type="matrix" values="0 0 0 0 0 0 0 0 0 0 0 0 0 0 0 0 0 0 0.03 0"/>
<feBlend mode="normal" in2="BackgroundImageFix" result="effect1_dropShadow"/>
<feBlend mode="normal" in="SourceGraphic" in2="effect1_dropShadow" result="shape"/>
</filter>
<filter id="filter1_d" x="505" y="250" width="205" height="210" filterUnits="userSpaceOnUse" color-interpolation-filters="sRGB">
<feFlood flood-opacity="0" result="BackgroundImageFix"/>
<feColorMatrix in="SourceAlpha" type="matrix" values="0 0 0 0 0 0 0 0 0 0 0 0 0 0 0 0 0 0 127 0"/>
<feOffset dy="10"/>
<feGaussianBlur stdDeviation="12"/>
<feColorMatrix type="matrix" values="0 0 0 0 0.0682517 0 0 0 0 0.0725245 0 0 0 0 0.0853431 0 0 0 0.5 0"/>
<feBlend mode="normal" in2="BackgroundImageFix" result="effect1_dropShadow"/>
<feBlend mode="normal" in="SourceGraphic" in2="effect1_dropShadow" result="shape"/>
</filter>
<filter id="filter2_d" x="512" y="335" width="26" height="26" filterUnits="userSpaceOnUse" color-interpolation-filters="sRGB">
<feFlood flood-opacity="0" result="BackgroundImageFix"/>
<feColorMatrix in="SourceAlpha" type="matrix" values="0 0 0 0 0 0 0 0 0 0 0 0 0 0 0 0 0 0 127 0"/>
<feOffset dy="3"/>
<feGaussianBlur stdDeviation="4"/>
<feColorMatrix type="matrix" values="0 0 0 0 0.0541136 0 0 0 0 0.05776 0 0 0 0 0.068699 0 0 0 0.3 0"/>
<feBlend mode="normal" in2="BackgroundImageFix" result="effect1_dropShadow"/>
<feBlend mode="normal" in="SourceGraphic" in2="effect1_dropShadow" result="shape"/>
</filter>
<clipPath id="clip0">
<rect width="157" height="162" fill="white" transform="translate(529 264)"/>
</clipPath>
</defs>
</svg>
