<svg width="24" height="24" viewBox="0 0 24 24" fill="none" xmlns="http://www.w3.org/2000/svg">
<rect x="0.5" y="0.5" width="23" height="23" rx="5.81579" stroke="#BDBDBD"/>
<path fill-rule="evenodd" clip-rule="evenodd" d="M6.20023 11.0419C5.68391 11.5731 5.68391 12.4187 6.20023 12.9499C7.36348 14.1162 9.44323 15.9379 12 15.9379C14.5567 15.9379 16.6372 14.1169 17.8012 12.9507C18.3175 12.4195 18.3175 11.5739 17.8012 11.0427C16.6365 9.87644 14.5545 8.05469 12 8.05469C9.44548 8.05469 7.36423 9.87494 6.20023 11.0419Z" stroke="white" stroke-linecap="round" stroke-linejoin="round"/>
<path fill-rule="evenodd" clip-rule="evenodd" d="M12 13.6797C12.932 13.6797 13.6875 12.9242 13.6875 11.9922C13.6875 11.0602 12.932 10.3047 12 10.3047C11.068 10.3047 10.3125 11.0602 10.3125 11.9922C10.3125 12.9242 11.068 13.6797 12 13.6797Z" stroke="white" stroke-linecap="round" stroke-linejoin="round"/>
</svg>
